<svg class="mx-auto w-[200px] h-[200px] md:w-[300px] md:h-[300px]" viewBox="-36 -36 72 72" xmlns="http://www.w3.org/2000/svg"><g><circle cx="0" cy="0" r="1.0499999999999998" fill="#B0E9FE"></circle><circle cx="0" cy="-3" r="1.0499999999999998" fill="#B0E9FE"></circle><circle cx="2.598076" cy="-1.5" r="1.0499999999999998" fill="#B0E9FE"></circle><circle cx="2.598076" cy="1.5" r="1.0499999999999998" fill="#B0E9FE"></circle><circle cx="0" cy="3" r="1.0499999999999998" fill="#B0E9FE"></circle><circle cx="-2.598076" cy="1.5" r="1.0499999999999998" fill="#B0E9FE"></circle><circle cx="-2.598076" cy="-1.5" r="1.0499999999999998" fill="#B0E9FE"></circle><circle cx="0" cy="-6" r="1.005" fill="#B0E9FE"></circle><circle cx="3" cy="-5.196152" r="1.005" fill="#B0E9FE"></circle><circle cx="5.196152" cy="-3" r="1.005" fill="#B0E9FE"></circle><circle cx="6" cy="0" r="1.005" fill="#B0E9FE"></circle><circle cx="5.196152" cy="3" r="1.005" fill="#B0E9FE"></circle><circle cx="3" cy="5.196152" r="1.005" fill="#B0E9FE"></circle><circle cx="0" cy="6" r="1.005" fill="#B0E9FE"></circle><circle cx="-3" cy="5.196152" r="1.005" fill="#B0E9FE"></circle><circle cx="-5.196152" cy="3" r="1.005" fill="#B0E9FE"></circle><circle cx="-6" cy="0" r="1.005" fill="#B0E9FE"></circle><circle cx="-5.196152" cy="-3" r="1.005" fill="#B0E9FE"></circle><circle cx="-3" cy="-5.196152" r="1.005" fill="#B0E9FE"></circle><circle cx="0" cy="-9" r="0.96" fill="#B0E9FE"></circle><circle cx="3.078181" cy="-8.457234" r="0.96" fill="#B0E9FE"></circle><circle cx="5.785088" cy="-6.8944" r="0.96" fill="#B0E9FE"></circle><circle cx="7.794229" cy="-4.5" r="0.96" fill="#B0E9FE"></circle><circle cx="8.86327" cy="-1.562834" r="0.96" fill="#B0E9FE"></circle><circle cx="8.86327" cy="1.562834" r="0.96" fill="#B0E9FE"></circle><circle cx="7.794229" cy="4.5" r="0.96" fill="#B0E9FE"></circle><circle cx="5.785088" cy="6.8944" r="0.96" fill="#B0E9FE"></circle><circle cx="3.078181" cy="8.457234" r="0.96" fill="#B0E9FE"></circle><circle cx="0" cy="9" r="0.96" fill="#B0E9FE"></circle><circle cx="-3.078181" cy="8.457234" r="0.96" fill="#B0E9FE"></circle><circle cx="-5.785088" cy="6.8944" r="0.96" fill="#B0E9FE"></circle><circle cx="-7.794229" cy="4.5" r="0.96" fill="#B0E9FE"></circle><circle cx="-8.86327" cy="1.562834" r="0.96" fill="#B0E9FE"></circle><circle cx="-8.86327" cy="-1.562834" r="0.96" fill="#B0E9FE"></circle><circle cx="-7.794229" cy="-4.5" r="0.96" fill="#B0E9FE"></circle><circle cx="-5.785088" cy="-6.8944" r="0.96" fill="#B0E9FE"></circle><circle cx="-3.078181" cy="-8.457234" r="0.96" fill="#B0E9FE"></circle><circle cx="0" cy="-12" r="0.915" fill="#B0E9FE"></circle><circle cx="2.984279" cy="-11.622998" r="0.915" fill="#B0E9FE"></circle><circle cx="5.781044" cy="-10.51568" r="0.915" fill="#B0E9FE"></circle><circle cx="8.214565" cy="-8.747624" r="0.915" fill="#B0E9FE"></circle><circle cx="10.131935" cy="-6.429922" r="0.915" fill="#B0E9FE"></circle><circle cx="11.412678" cy="-3.708204" r="0.915" fill="#B0E9FE"></circle><circle cx="11.976321" cy="-0.753486" r="0.915" fill="#B0E9FE"></circle><circle cx="11.787447" cy="2.248576" r="0.915" fill="#B0E9FE"></circle><circle cx="10.857925" cy="5.109351" r="0.915" fill="#B0E9FE"></circle><circle cx="9.246159" cy="7.649088" r="0.915" fill="#B0E9FE"></circle><circle cx="7.053423" cy="9.708204" r="0.915" fill="#B0E9FE"></circle><circle cx="4.417495" cy="11.157318" r="0.915" fill="#B0E9FE"></circle><circle cx="1.503999" cy="11.905376" r="0.915" fill="#B0E9FE"></circle><circle cx="-1.503999" cy="11.905376" r="0.915" fill="#B0E9FE"></circle><circle cx="-4.417495" cy="11.157318" r="0.915" fill="#B0E9FE"></circle><circle cx="-7.053423" cy="9.708204" r="0.915" fill="#B0E9FE"></circle><circle cx="-9.246159" cy="7.649088" r="0.915" fill="#B0E9FE"></circle><circle cx="-10.857925" cy="5.109351" r="0.915" fill="#B0E9FE"></circle><circle cx="-11.787447" cy="2.248576" r="0.915" fill="#B0E9FE"></circle><circle cx="-11.976321" cy="-0.753486" r="0.915" fill="#B0E9FE"></circle><circle cx="-11.412678" cy="-3.708204" r="0.915" fill="#B0E9FE"></circle><circle cx="-10.131935" cy="-6.429922" r="0.915" fill="#B0E9FE"></circle><circle cx="-8.214565" cy="-8.747624" r="0.915" fill="#B0E9FE"></circle><circle cx="-5.781044" cy="-10.51568" r="0.915" fill="#B0E9FE"></circle><circle cx="-2.984279" cy="-11.622998" r="0.915" fill="#B0E9FE"></circle><circle cx="0" cy="-15" r="0.8699999999999999" fill="#B0E9FE"></circle><circle cx="3.019478" cy="-14.692949" r="0.8699999999999999" fill="#B0E9FE"></circle><circle cx="5.915338" cy="-13.784367" r="0.8699999999999999" fill="#B0E9FE"></circle><circle cx="8.569023" cy="-12.311452" r="0.8699999999999999" fill="#B0E9FE"></circle><circle cx="10.871892" cy="-10.334504" r="0.8699999999999999" fill="#B0E9FE"></circle><circle cx="12.729664" cy="-7.93446" r="0.8699999999999999" fill="#B0E9FE"></circle><circle cx="14.066282" cy="-5.209579" r="0.8699999999999999" fill="#B0E9FE"></circle><circle cx="14.827025" cy="-2.271417" r="0.8699999999999999" fill="#B0E9FE"></circle><circle cx="14.980748" cy="0.759738" r="0.8699999999999999" fill="#B0E9FE"></circle><circle cx="14.521157" cy="3.759788" r="0.8699999999999999" fill="#B0E9FE"></circle><circle cx="13.467068" cy="6.605912" r="0.8699999999999999" fill="#B0E9FE"></circle><circle cx="11.861636" cy="9.18159" r="0.8699999999999999" fill="#B0E9FE"></circle><circle cx="9.770587" cy="11.381372" r="0.8699999999999999" fill="#B0E9FE"></circle><circle cx="7.279529" cy="13.115199" r="0.8699999999999999" fill="#B0E9FE"></circle><circle cx="4.490447" cy="14.312089" r="0.8699999999999999" fill="#B0E9FE"></circle><circle cx="1.517525" cy="14.92304" r="0.8699999999999999" fill="#B0E9FE"></circle><circle cx="-1.517525" cy="14.92304" r="0.8699999999999999" fill="#B0E9FE"></circle><circle cx="-4.490447" cy="14.312089" r="0.8699999999999999" fill="#B0E9FE"></circle><circle cx="-7.279529" cy="13.115199" r="0.8699999999999999" fill="#B0E9FE"></circle><circle cx="-9.770587" cy="11.381372" r="0.8699999999999999" fill="#B0E9FE"></circle><circle cx="-11.861636" cy="9.18159" r="0.8699999999999999" fill="#B0E9FE"></circle><circle cx="-13.467068" cy="6.605912" r="0.8699999999999999" fill="#B0E9FE"></circle><circle cx="-14.521157" cy="3.759788" r="0.8699999999999999" fill="#B0E9FE"></circle><circle cx="-14.980748" cy="0.759738" r="0.8699999999999999" fill="#B0E9FE"></circle><circle cx="-14.827025" cy="-2.271417" r="0.8699999999999999" fill="#B0E9FE"></circle><circle cx="-14.066282" cy="-5.209579" r="0.8699999999999999" fill="#B0E9FE"></circle><circle cx="-12.729664" cy="-7.93446" r="0.8699999999999999" fill="#B0E9FE"></circle><circle cx="-10.871892" cy="-10.334504" r="0.8699999999999999" fill="#B0E9FE"></circle><circle cx="-8.569023" cy="-12.311452" r="0.8699999999999999" fill="#B0E9FE"></circle><circle cx="-5.915338" cy="-13.784367" r="0.8699999999999999" fill="#B0E9FE"></circle><circle cx="-3.019478" cy="-14.692949" r="0.8699999999999999" fill="#B0E9FE"></circle><circle cx="0" cy="-18" r="0.8250000000000001" fill="#B0E9FE"></circle><circle cx="3.042015" cy="-17.741086" r="0.8250000000000001" fill="#B0E9FE"></circle><circle cx="5.996516" cy="-16.971794" r="0.8250000000000001" fill="#B0E9FE"></circle><circle cx="8.778509" cy="-15.714254" r="0.8250000000000001" fill="#B0E9FE"></circle><circle cx="11.30796" cy="-14.004644" r="0.8250000000000001" fill="#B0E9FE"></circle><circle cx="13.512101" cy="-11.892145" r="0.8250000000000001" fill="#B0E9FE"></circle><circle cx="15.327524" cy="-9.437531" r="0.8250000000000001" fill="#B0E9FE"></circle><circle cx="16.702002" cy="-6.711417" r="0.8250000000000001" fill="#B0E9FE"></circle><circle cx="17.595994" cy="-3.792227" r="0.8250000000000001" fill="#B0E9FE"></circle><circle cx="17.983781" cy="-0.763942" r="0.8250000000000001" fill="#B0E9FE"></circle><circle cx="17.854208" cy="2.286321" r="0.8250000000000001" fill="#B0E9FE"></circle><circle cx="17.211001" cy="5.27081" r="0.8250000000000001" fill="#B0E9FE"></circle><circle cx="16.072665" cy="8.103667" r="0.8250000000000001" fill="#B0E9FE"></circle><circle cx="14.471948" cy="10.703397" r="0.8250000000000001" fill="#B0E9FE"></circle><circle cx="12.4549" cy="12.99521" r="0.8250000000000001" fill="#B0E9FE"></circle><circle cx="10.079546" cy="14.913174" r="0.8250000000000001" fill="#B0E9FE"></circle><circle cx="7.414222" cy="16.402113" r="0.8250000000000001" fill="#B0E9FE"></circle><circle cx="4.535605" cy="17.419193" r="0.8250000000000001" fill="#B0E9FE"></circle><circle cx="1.526507" cy="17.935155" r="0.8250000000000001" fill="#B0E9FE"></circle><circle cx="-1.526507" cy="17.935155" r="0.8250000000000001" fill="#B0E9FE"></circle><circle cx="-4.535605" cy="17.419193" r="0.8250000000000001" fill="#B0E9FE"></circle><circle cx="-7.414222" cy="16.402113" r="0.8250000000000001" fill="#B0E9FE"></circle><circle cx="-10.079546" cy="14.913174" r="0.8250000000000001" fill="#B0E9FE"></circle><circle cx="-12.4549" cy="12.99521" r="0.8250000000000001" fill="#B0E9FE"></circle><circle cx="-14.471948" cy="10.703397" r="0.8250000000000001" fill="#B0E9FE"></circle><circle cx="-16.072665" cy="8.103667" r="0.8250000000000001" fill="#B0E9FE"></circle><circle cx="-17.211001" cy="5.27081" r="0.8250000000000001" fill="#B0E9FE"></circle><circle cx="-17.854208" cy="2.286321" r="0.8250000000000001" fill="#B0E9FE"></circle><circle cx="-17.983781" cy="-0.763942" r="0.8250000000000001" fill="#B0E9FE"></circle><circle cx="-17.595994" cy="-3.792227" r="0.8250000000000001" fill="#B0E9FE"></circle><circle cx="-16.702002" cy="-6.711417" r="0.8250000000000001" fill="#B0E9FE"></circle><circle cx="-15.327524" cy="-9.437531" r="0.8250000000000001" fill="#B0E9FE"></circle><circle cx="-13.512101" cy="-11.892145" r="0.8250000000000001" fill="#B0E9FE"></circle><circle cx="-11.30796" cy="-14.004644" r="0.8250000000000001" fill="#B0E9FE"></circle><circle cx="-8.778509" cy="-15.714254" r="0.8250000000000001" fill="#B0E9FE"></circle><circle cx="-5.996516" cy="-16.971794" r="0.8250000000000001" fill="#B0E9FE"></circle><circle cx="-3.042015" cy="-17.741086" r="0.8250000000000001" fill="#B0E9FE"></circle><circle cx="0" cy="-21" r="0.78" fill="#B0E9FE"></circle><circle cx="3.057625" cy="-20.776211" r="0.78" fill="#B0E9FE"></circle><circle cx="6.050081" cy="-20.109613" r="0.78" fill="#B0E9FE"></circle><circle cx="8.913591" cy="-19.014413" r="0.78" fill="#B0E9FE"></circle><circle cx="11.587123" cy="-17.513954" r="0.78" fill="#B0E9FE"></circle><circle cx="14.013695" cy="-15.640216" r="0.78" fill="#B0E9FE"></circle><circle cx="16.14159" cy="-13.433133" r="0.78" fill="#B0E9FE"></circle><circle cx="17.925455" cy="-10.939747" r="0.78" fill="#B0E9FE"></circle><circle cx="19.32727" cy="-8.213199" r="0.78" fill="#B0E9FE"></circle><circle cx="20.317158" cy="-5.311601" r="0.78" fill="#B0E9FE"></circle><circle cx="20.87402" cy="-2.296795" r="0.78" fill="#B0E9FE"></circle><circle cx="20.98599" cy="0.766962" r="0.78" fill="#B0E9FE"></circle><circle cx="20.650679" cy="3.814374" r="0.78" fill="#B0E9FE"></circle><circle cx="19.875235" cy="6.780489" r="0.78" fill="#B0E9FE"></circle><circle cx="18.676185" cy="9.602089" r="0.78" fill="#B0E9FE"></circle><circle cx="17.079085" cy="12.219037" r="0.78" fill="#B0E9FE"></circle><circle cx="15.117973" cy="14.575558" r="0.78" fill="#B0E9FE"></circle><circle cx="12.834648" cy="16.621426" r="0.78" fill="#B0E9FE"></circle><circle cx="10.277775" cy="18.313038" r="0.78" fill="#B0E9FE"></circle><circle cx="7.501849" cy="19.614338" r="0.78" fill="#B0E9FE"></circle><circle cx="4.566034" cy="20.497593" r="0.78" fill="#B0E9FE"></circle><circle cx="1.532902" cy="20.943978" r="0.78" fill="#B0E9FE"></circle><circle cx="-1.532902" cy="20.943978" r="0.78" fill="#B0E9FE"></circle><circle cx="-4.566034" cy="20.497593" r="0.78" fill="#B0E9FE"></circle><circle cx="-7.501849" cy="19.614338" r="0.78" fill="#B0E9FE"></circle><circle cx="-10.277775" cy="18.313038" r="0.78" fill="#B0E9FE"></circle><circle cx="-12.834648" cy="16.621426" r="0.78" fill="#B0E9FE"></circle><circle cx="-15.117973" cy="14.575558" r="0.78" fill="#B0E9FE"></circle><circle cx="-17.079085" cy="12.219037" r="0.78" fill="#B0E9FE"></circle><circle cx="-18.676185" cy="9.602089" r="0.78" fill="#B0E9FE"></circle><circle cx="-19.875235" cy="6.780489" r="0.78" fill="#B0E9FE"></circle><circle cx="-20.650679" cy="3.814374" r="0.78" fill="#B0E9FE"></circle><circle cx="-20.98599" cy="0.766962" r="0.78" fill="#B0E9FE"></circle><circle cx="-20.87402" cy="-2.296795" r="0.78" fill="#B0E9FE"></circle><circle cx="-20.317158" cy="-5.311601" r="0.78" fill="#B0E9FE"></circle><circle cx="-19.32727" cy="-8.213199" r="0.78" fill="#B0E9FE"></circle><circle cx="-17.925455" cy="-10.939747" r="0.78" fill="#B0E9FE"></circle><circle cx="-16.14159" cy="-13.433133" r="0.78" fill="#B0E9FE"></circle><circle cx="-14.013695" cy="-15.640216" r="0.78" fill="#B0E9FE"></circle><circle cx="-11.587123" cy="-17.513954" r="0.78" fill="#B0E9FE"></circle><circle cx="-8.913591" cy="-19.014413" r="0.78" fill="#B0E9FE"></circle><circle cx="-6.050081" cy="-20.109613" r="0.78" fill="#B0E9FE"></circle><circle cx="-3.057625" cy="-20.776211" r="0.78" fill="#B0E9FE"></circle><circle cx="0" cy="-24" r="0.735" fill="#B0E9FE"></circle><circle cx="3.007998" cy="-23.810753" r="0.735" fill="#B0E9FE"></circle><circle cx="5.968557" cy="-23.245996" r="0.735" fill="#B0E9FE"></circle><circle cx="8.834989" cy="-22.314636" r="0.735" fill="#B0E9FE"></circle><circle cx="11.562088" cy="-21.03136" r="0.735" fill="#B0E9FE"></circle><circle cx="14.106846" cy="-19.416408" r="0.735" fill="#B0E9FE"></circle><circle cx="16.429131" cy="-17.495247" r="0.735" fill="#B0E9FE"></circle><circle cx="18.492318" cy="-15.298176" r="0.735" fill="#B0E9FE"></circle><circle cx="20.26387" cy="-12.859843" r="0.735" fill="#B0E9FE"></circle><circle cx="21.715849" cy="-10.218703" r="0.735" fill="#B0E9FE"></circle><circle cx="22.825356" cy="-7.416408" r="0.735" fill="#B0E9FE"></circle><circle cx="23.574894" cy="-4.497152" r="0.735" fill="#B0E9FE"></circle><circle cx="23.952641" cy="-1.506972" r="0.735" fill="#B0E9FE"></circle><circle cx="23.952641" cy="1.506972" r="0.735" fill="#B0E9FE"></circle><circle cx="23.574894" cy="4.497152" r="0.735" fill="#B0E9FE"></circle><circle cx="22.825356" cy="7.416408" r="0.735" fill="#B0E9FE"></circle><circle cx="21.715849" cy="10.218703" r="0.735" fill="#B0E9FE"></circle><circle cx="20.26387" cy="12.859843" r="0.735" fill="#B0E9FE"></circle><circle cx="18.492318" cy="15.298176" r="0.735" fill="#B0E9FE"></circle><circle cx="16.429131" cy="17.495247" r="0.735" fill="#B0E9FE"></circle><circle cx="14.106846" cy="19.416408" r="0.735" fill="#B0E9FE"></circle><circle cx="11.562088" cy="21.03136" r="0.735" fill="#B0E9FE"></circle><circle cx="8.834989" cy="22.314636" r="0.735" fill="#B0E9FE"></circle><circle cx="5.968557" cy="23.245996" r="0.735" fill="#B0E9FE"></circle><circle cx="3.007998" cy="23.810753" r="0.735" fill="#B0E9FE"></circle><circle cx="0" cy="24" r="0.735" fill="#B0E9FE"></circle><circle cx="-3.007998" cy="23.810753" r="0.735" fill="#B0E9FE"></circle><circle cx="-5.968557" cy="23.245996" r="0.735" fill="#B0E9FE"></circle><circle cx="-8.834989" cy="22.314636" r="0.735" fill="#B0E9FE"></circle><circle cx="-11.562088" cy="21.03136" r="0.735" fill="#B0E9FE"></circle><circle cx="-14.106846" cy="19.416408" r="0.735" fill="#B0E9FE"></circle><circle cx="-16.429131" cy="17.495247" r="0.735" fill="#B0E9FE"></circle><circle cx="-18.492318" cy="15.298176" r="0.735" fill="#B0E9FE"></circle><circle cx="-20.26387" cy="12.859843" r="0.735" fill="#B0E9FE"></circle><circle cx="-21.715849" cy="10.218703" r="0.735" fill="#B0E9FE"></circle><circle cx="-22.825356" cy="7.416408" r="0.735" fill="#B0E9FE"></circle><circle cx="-23.574894" cy="4.497152" r="0.735" fill="#B0E9FE"></circle><circle cx="-23.952641" cy="1.506972" r="0.735" fill="#B0E9FE"></circle><circle cx="-23.952641" cy="-1.506972" r="0.735" fill="#B0E9FE"></circle><circle cx="-23.574894" cy="-4.497152" r="0.735" fill="#B0E9FE"></circle><circle cx="-22.825356" cy="-7.416408" r="0.735" fill="#B0E9FE"></circle><circle cx="-21.715849" cy="-10.218703" r="0.735" fill="#B0E9FE"></circle><circle cx="-20.26387" cy="-12.859843" r="0.735" fill="#B0E9FE"></circle><circle cx="-18.492318" cy="-15.298176" r="0.735" fill="#B0E9FE"></circle><circle cx="-16.429131" cy="-17.495247" r="0.735" fill="#B0E9FE"></circle><circle cx="-14.106846" cy="-19.416408" r="0.735" fill="#B0E9FE"></circle><circle cx="-11.562088" cy="-21.03136" r="0.735" fill="#B0E9FE"></circle><circle cx="-8.834989" cy="-22.314636" r="0.735" fill="#B0E9FE"></circle><circle cx="-5.968557" cy="-23.245996" r="0.735" fill="#B0E9FE"></circle><circle cx="-3.007998" cy="-23.810753" r="0.735" fill="#B0E9FE"></circle><circle cx="0" cy="-27" r="0.69" fill="#B0E9FE"></circle><circle cx="3.023041" cy="-26.83023" r="0.69" fill="#B0E9FE"></circle><circle cx="6.008065" cy="-26.323054" r="0.69" fill="#B0E9FE"></circle><circle cx="8.917535" cy="-25.48485" r="0.69" fill="#B0E9FE"></circle><circle cx="11.714861" cy="-24.326159" r="0.69" fill="#B0E9FE"></circle><circle cx="14.364866" cy="-22.861553" r="0.69" fill="#B0E9FE"></circle><circle cx="16.834225" cy="-21.10945" r="0.69" fill="#B0E9FE"></circle><circle cx="19.091883" cy="-19.091883" r="0.69" fill="#B0E9FE"></circle><circle cx="21.10945" cy="-16.834225" r="0.69" fill="#B0E9FE"></circle><circle cx="22.861553" cy="-14.364866" r="0.69" fill="#B0E9FE"></circle><circle cx="24.326159" cy="-11.714861" r="0.69" fill="#B0E9FE"></circle><circle cx="25.48485" cy="-8.917535" r="0.69" fill="#B0E9FE"></circle><circle cx="26.323054" cy="-6.008065" r="0.69" fill="#B0E9FE"></circle><circle cx="26.83023" cy="-3.023041" r="0.69" fill="#B0E9FE"></circle><circle cx="27" cy="0" r="0.69" fill="#B0E9FE"></circle><circle cx="26.83023" cy="3.023041" r="0.69" fill="#B0E9FE"></circle><circle cx="26.323054" cy="6.008065" r="0.69" fill="#B0E9FE"></circle><circle cx="25.48485" cy="8.917535" r="0.69" fill="#B0E9FE"></circle><circle cx="24.326159" cy="11.714861" r="0.69" fill="#B0E9FE"></circle><circle cx="22.861553" cy="14.364866" r="0.69" fill="#B0E9FE"></circle><circle cx="21.10945" cy="16.834225" r="0.69" fill="#B0E9FE"></circle><circle cx="19.091883" cy="19.091883" r="0.69" fill="#B0E9FE"></circle><circle cx="16.834225" cy="21.10945" r="0.69" fill="#B0E9FE"></circle><circle cx="14.364866" cy="22.861553" r="0.69" fill="#B0E9FE"></circle><circle cx="11.714861" cy="24.326159" r="0.69" fill="#B0E9FE"></circle><circle cx="8.917535" cy="25.48485" r="0.69" fill="#B0E9FE"></circle><circle cx="6.008065" cy="26.323054" r="0.69" fill="#B0E9FE"></circle><circle cx="3.023041" cy="26.83023" r="0.69" fill="#B0E9FE"></circle><circle cx="0" cy="27" r="0.69" fill="#B0E9FE"></circle><circle cx="-3.023041" cy="26.83023" r="0.69" fill="#B0E9FE"></circle><circle cx="-6.008065" cy="26.323054" r="0.69" fill="#B0E9FE"></circle><circle cx="-8.917535" cy="25.48485" r="0.69" fill="#B0E9FE"></circle><circle cx="-11.714861" cy="24.326159" r="0.69" fill="#B0E9FE"></circle><circle cx="-14.364866" cy="22.861553" r="0.69" fill="#B0E9FE"></circle><circle cx="-16.834225" cy="21.10945" r="0.69" fill="#B0E9FE"></circle><circle cx="-19.091883" cy="19.091883" r="0.69" fill="#B0E9FE"></circle><circle cx="-21.10945" cy="16.834225" r="0.69" fill="#B0E9FE"></circle><circle cx="-22.861553" cy="14.364866" r="0.69" fill="#B0E9FE"></circle><circle cx="-24.326159" cy="11.714861" r="0.69" fill="#B0E9FE"></circle><circle cx="-25.48485" cy="8.917535" r="0.69" fill="#B0E9FE"></circle><circle cx="-26.323054" cy="6.008065" r="0.69" fill="#B0E9FE"></circle><circle cx="-26.83023" cy="3.023041" r="0.69" fill="#B0E9FE"></circle><circle cx="-27" cy="0" r="0.69" fill="#B0E9FE"></circle><circle cx="-26.83023" cy="-3.023041" r="0.69" fill="#B0E9FE"></circle><circle cx="-26.323054" cy="-6.008065" r="0.69" fill="#B0E9FE"></circle><circle cx="-25.48485" cy="-8.917535" r="0.69" fill="#B0E9FE"></circle><circle cx="-24.326159" cy="-11.714861" r="0.69" fill="#B0E9FE"></circle><circle cx="-22.861553" cy="-14.364866" r="0.69" fill="#B0E9FE"></circle><circle cx="-21.10945" cy="-16.834225" r="0.69" fill="#B0E9FE"></circle><circle cx="-19.091883" cy="-19.091883" r="0.69" fill="#B0E9FE"></circle><circle cx="-16.834225" cy="-21.10945" r="0.69" fill="#B0E9FE"></circle><circle cx="-14.364866" cy="-22.861553" r="0.69" fill="#B0E9FE"></circle><circle cx="-11.714861" cy="-24.326159" r="0.69" fill="#B0E9FE"></circle><circle cx="-8.917535" cy="-25.48485" r="0.69" fill="#B0E9FE"></circle><circle cx="-6.008065" cy="-26.323054" r="0.69" fill="#B0E9FE"></circle><circle cx="-3.023041" cy="-26.83023" r="0.69" fill="#B0E9FE"></circle><circle cx="0" cy="-30" r="0.645" fill="#B0E9FE"></circle><circle cx="3.03505" cy="-29.84608" r="0.645" fill="#B0E9FE"></circle><circle cx="6.038956" cy="-29.385898" r="0.645" fill="#B0E9FE"></circle><circle cx="8.980894" cy="-28.624178" r="0.645" fill="#B0E9FE"></circle><circle cx="11.830676" cy="-27.568734" r="0.645" fill="#B0E9FE"></circle><circle cx="14.559059" cy="-26.230398" r="0.645" fill="#B0E9FE"></circle><circle cx="17.138046" cy="-24.622903" r="0.645" fill="#B0E9FE"></circle><circle cx="19.541174" cy="-22.762744" r="0.645" fill="#B0E9FE"></circle><circle cx="21.743784" cy="-20.669008" r="0.645" fill="#B0E9FE"></circle><circle cx="23.723272" cy="-18.363179" r="0.645" fill="#B0E9FE"></circle><circle cx="25.459328" cy="-15.86892" r="0.645" fill="#B0E9FE"></circle><circle cx="26.934136" cy="-13.211825" r="0.645" fill="#B0E9FE"></circle><circle cx="28.132564" cy="-10.419158" r="0.645" fill="#B0E9FE"></circle><circle cx="29.042314" cy="-7.519576" r="0.645" fill="#B0E9FE"></circle><circle cx="29.65405" cy="-4.542833" r="0.645" fill="#B0E9FE"></circle><circle cx="29.961495" cy="-1.519475" r="0.645" fill="#B0E9FE"></circle><circle cx="29.961495" cy="1.519475" r="0.645" fill="#B0E9FE"></circle><circle cx="29.65405" cy="4.542833" r="0.645" fill="#B0E9FE"></circle><circle cx="29.042314" cy="7.519576" r="0.645" fill="#B0E9FE"></circle><circle cx="28.132564" cy="10.419158" r="0.645" fill="#B0E9FE"></circle><circle cx="26.934136" cy="13.211825" r="0.645" fill="#B0E9FE"></circle><circle cx="25.459328" cy="15.86892" r="0.645" fill="#B0E9FE"></circle><circle cx="23.723272" cy="18.363179" r="0.645" fill="#B0E9FE"></circle><circle cx="21.743784" cy="20.669008" r="0.645" fill="#B0E9FE"></circle><circle cx="19.541174" cy="22.762744" r="0.645" fill="#B0E9FE"></circle><circle cx="17.138046" cy="24.622903" r="0.645" fill="#B0E9FE"></circle><circle cx="14.559059" cy="26.230398" r="0.645" fill="#B0E9FE"></circle><circle cx="11.830676" cy="27.568734" r="0.645" fill="#B0E9FE"></circle><circle cx="8.980894" cy="28.624178" r="0.645" fill="#B0E9FE"></circle><circle cx="6.038956" cy="29.385898" r="0.645" fill="#B0E9FE"></circle><circle cx="3.03505" cy="29.84608" r="0.645" fill="#B0E9FE"></circle><circle cx="0" cy="30" r="0.645" fill="#B0E9FE"></circle><circle cx="-3.03505" cy="29.84608" r="0.645" fill="#B0E9FE"></circle><circle cx="-6.038956" cy="29.385898" r="0.645" fill="#B0E9FE"></circle><circle cx="-8.980894" cy="28.624178" r="0.645" fill="#B0E9FE"></circle><circle cx="-11.830676" cy="27.568734" r="0.645" fill="#B0E9FE"></circle><circle cx="-14.559059" cy="26.230398" r="0.645" fill="#B0E9FE"></circle><circle cx="-17.138046" cy="24.622903" r="0.645" fill="#B0E9FE"></circle><circle cx="-19.541174" cy="22.762744" r="0.645" fill="#B0E9FE"></circle><circle cx="-21.743784" cy="20.669008" r="0.645" fill="#B0E9FE"></circle><circle cx="-23.723272" cy="18.363179" r="0.645" fill="#B0E9FE"></circle><circle cx="-25.459328" cy="15.86892" r="0.645" fill="#B0E9FE"></circle><circle cx="-26.934136" cy="13.211825" r="0.645" fill="#B0E9FE"></circle><circle cx="-28.132564" cy="10.419158" r="0.645" fill="#B0E9FE"></circle><circle cx="-29.042314" cy="7.519576" r="0.645" fill="#B0E9FE"></circle><circle cx="-29.65405" cy="4.542833" r="0.645" fill="#B0E9FE"></circle><circle cx="-29.961495" cy="1.519475" r="0.645" fill="#B0E9FE"></circle><circle cx="-29.961495" cy="-1.519475" r="0.645" fill="#B0E9FE"></circle><circle cx="-29.65405" cy="-4.542833" r="0.645" fill="#B0E9FE"></circle><circle cx="-29.042314" cy="-7.519576" r="0.645" fill="#B0E9FE"></circle><circle cx="-28.132564" cy="-10.419158" r="0.645" fill="#B0E9FE"></circle><circle cx="-26.934136" cy="-13.211825" r="0.645" fill="#B0E9FE"></circle><circle cx="-25.459328" cy="-15.86892" r="0.645" fill="#B0E9FE"></circle><circle cx="-23.723272" cy="-18.363179" r="0.645" fill="#B0E9FE"></circle><circle cx="-21.743784" cy="-20.669008" r="0.645" fill="#B0E9FE"></circle><circle cx="-19.541174" cy="-22.762744" r="0.645" fill="#B0E9FE"></circle><circle cx="-17.138046" cy="-24.622903" r="0.645" fill="#B0E9FE"></circle><circle cx="-14.559059" cy="-26.230398" r="0.645" fill="#B0E9FE"></circle><circle cx="-11.830676" cy="-27.568734" r="0.645" fill="#B0E9FE"></circle><circle cx="-8.980894" cy="-28.624178" r="0.645" fill="#B0E9FE"></circle><circle cx="-6.038956" cy="-29.385898" r="0.645" fill="#B0E9FE"></circle><circle cx="-3.03505" cy="-29.84608" r="0.645" fill="#B0E9FE"></circle><circle cx="0" cy="-33" r="0.6000000000000001" fill="#B0E9FE"></circle><circle cx="3.00085" cy="-32.863276" r="0.6000000000000001" fill="#B0E9FE"></circle><circle cx="5.976835" cy="-32.454236" r="0.6000000000000001" fill="#B0E9FE"></circle><circle cx="8.903293" cy="-31.77627" r="0.6000000000000001" fill="#B0E9FE"></circle><circle cx="11.755976" cy="-30.834997" r="0.6000000000000001" fill="#B0E9FE"></circle><circle cx="14.511246" cy="-29.638214" r="0.6000000000000001" fill="#B0E9FE"></circle><circle cx="17.14627" cy="-28.19584" r="0.6000000000000001" fill="#B0E9FE"></circle><circle cx="19.639216" cy="-26.519827" r="0.6000000000000001" fill="#B0E9FE"></circle><circle cx="21.969424" cy="-24.624062" r="0.6000000000000001" fill="#B0E9FE"></circle><circle cx="24.117587" cy="-22.524254" r="0.6000000000000001" fill="#B0E9FE"></circle><circle cx="26.065904" cy="-20.237803" r="0.6000000000000001" fill="#B0E9FE"></circle><circle cx="27.79823" cy="-17.783655" r="0.6000000000000001" fill="#B0E9FE"></circle><circle cx="29.300212" cy="-15.182146" r="0.6000000000000001" fill="#B0E9FE"></circle><circle cx="30.559403" cy="-12.454833" r="0.6000000000000001" fill="#B0E9FE"></circle><circle cx="31.565369" cy="-9.624316" r="0.6000000000000001" fill="#B0E9FE"></circle><circle cx="32.309775" cy="-6.714048" r="0.6000000000000001" fill="#B0E9FE"></circle><circle cx="32.786451" cy="-3.748146" r="0.6000000000000001" fill="#B0E9FE"></circle><circle cx="32.991449" cy="-0.751186" r="0.6000000000000001" fill="#B0E9FE"></circle><circle cx="32.923069" cy="2.252" r="0.6000000000000001" fill="#B0E9FE"></circle><circle cx="32.581879" cy="5.236524" r="0.6000000000000001" fill="#B0E9FE"></circle><circle cx="31.970704" cy="8.177657" r="0.6000000000000001" fill="#B0E9FE"></circle><circle cx="31.09461" cy="11.051027" r="0.6000000000000001" fill="#B0E9FE"></circle><circle cx="29.960857" cy="13.832825" r="0.6000000000000001" fill="#B0E9FE"></circle><circle cx="28.578838" cy="16.5" r="0.6000000000000001" fill="#B0E9FE"></circle><circle cx="26.960006" cy="19.030451" r="0.6000000000000001" fill="#B0E9FE"></circle><circle cx="25.117776" cy="21.403209" r="0.6000000000000001" fill="#B0E9FE"></circle><circle cx="23.067411" cy="23.598614" r="0.6000000000000001" fill="#B0E9FE"></circle><circle cx="20.825902" cy="25.598473" r="0.6000000000000001" fill="#B0E9FE"></circle><circle cx="18.411824" cy="27.386215" r="0.6000000000000001" fill="#B0E9FE"></circle><circle cx="15.845179" cy="28.947026" r="0.6000000000000001" fill="#B0E9FE"></circle><circle cx="13.147236" cy="30.267973" r="0.6000000000000001" fill="#B0E9FE"></circle><circle cx="10.340351" cy="31.33811" r="0.6000000000000001" fill="#B0E9FE"></circle><circle cx="7.447783" cy="32.14857" r="0.6000000000000001" fill="#B0E9FE"></circle><circle cx="4.493499" cy="32.692636" r="0.6000000000000001" fill="#B0E9FE"></circle><circle cx="1.501982" cy="32.965801" r="0.6000000000000001" fill="#B0E9FE"></circle><circle cx="-1.501982" cy="32.965801" r="0.6000000000000001" fill="#B0E9FE"></circle><circle cx="-4.493499" cy="32.692636" r="0.6000000000000001" fill="#B0E9FE"></circle><circle cx="-7.447783" cy="32.14857" r="0.6000000000000001" fill="#B0E9FE"></circle><circle cx="-10.340351" cy="31.33811" r="0.6000000000000001" fill="#B0E9FE"></circle><circle cx="-13.147236" cy="30.267973" r="0.6000000000000001" fill="#B0E9FE"></circle><circle cx="-15.845179" cy="28.947026" r="0.6000000000000001" fill="#B0E9FE"></circle><circle cx="-18.411824" cy="27.386215" r="0.6000000000000001" fill="#B0E9FE"></circle><circle cx="-20.825902" cy="25.598473" r="0.6000000000000001" fill="#B0E9FE"></circle><circle cx="-23.067411" cy="23.598614" r="0.6000000000000001" fill="#B0E9FE"></circle><circle cx="-25.117776" cy="21.403209" r="0.6000000000000001" fill="#B0E9FE"></circle><circle cx="-26.960006" cy="19.030451" r="0.6000000000000001" fill="#B0E9FE"></circle><circle cx="-28.578838" cy="16.5" r="0.6000000000000001" fill="#B0E9FE"></circle><circle cx="-29.960857" cy="13.832825" r="0.6000000000000001" fill="#B0E9FE"></circle><circle cx="-31.09461" cy="11.051027" r="0.6000000000000001" fill="#B0E9FE"></circle><circle cx="-31.970704" cy="8.177657" r="0.6000000000000001" fill="#B0E9FE"></circle><circle cx="-32.581879" cy="5.236524" r="0.6000000000000001" fill="#B0E9FE"></circle><circle cx="-32.923069" cy="2.252" r="0.6000000000000001" fill="#B0E9FE"></circle><circle cx="-32.991449" cy="-0.751186" r="0.6000000000000001" fill="#B0E9FE"></circle><circle cx="-32.786451" cy="-3.748146" r="0.6000000000000001" fill="#B0E9FE"></circle><circle cx="-32.309775" cy="-6.714048" r="0.6000000000000001" fill="#B0E9FE"></circle><circle cx="-31.565369" cy="-9.624316" r="0.6000000000000001" fill="#B0E9FE"></circle><circle cx="-30.559403" cy="-12.454833" r="0.6000000000000001" fill="#B0E9FE"></circle><circle cx="-29.300212" cy="-15.182146" r="0.6000000000000001" fill="#B0E9FE"></circle><circle cx="-27.79823" cy="-17.783655" r="0.6000000000000001" fill="#B0E9FE"></circle><circle cx="-26.065904" cy="-20.237803" r="0.6000000000000001" fill="#B0E9FE"></circle><circle cx="-24.117587" cy="-22.524254" r="0.6000000000000001" fill="#B0E9FE"></circle><circle cx="-21.969424" cy="-24.624062" r="0.6000000000000001" fill="#B0E9FE"></circle><circle cx="-19.639216" cy="-26.519827" r="0.6000000000000001" fill="#B0E9FE"></circle><circle cx="-17.14627" cy="-28.19584" r="0.6000000000000001" fill="#B0E9FE"></circle><circle cx="-14.511246" cy="-29.638214" r="0.6000000000000001" fill="#B0E9FE"></circle><circle cx="-11.755976" cy="-30.834997" r="0.6000000000000001" fill="#B0E9FE"></circle><circle cx="-8.903293" cy="-31.77627" r="0.6000000000000001" fill="#B0E9FE"></circle><circle cx="-5.976835" cy="-32.454236" r="0.6000000000000001" fill="#B0E9FE"></circle><circle cx="-3.00085" cy="-32.863276" r="0.6000000000000001" fill="#B0E9FE"></circle></g><circle data-highlight-ring="1" cx="0" cy="-3" r="1.0499999999999998" fill="#0023EB" opacity="0"></circle><circle data-highlight-ring="2" cx="0" cy="-6" r="1.005" fill="#0023EB" opacity="0"></circle><circle data-highlight-ring="3" cx="0" cy="-9" r="0.96" fill="#0023EB" opacity="0"></circle><circle data-highlight-ring="4" cx="0" cy="-12" r="0.915" fill="#0023EB" opacity="0"></circle><circle data-highlight-ring="5" cx="0" cy="-15" r="0.8699999999999999" fill="#0023EB" opacity="0"></circle><circle data-highlight-ring="6" cx="0" cy="-18" r="0.8250000000000001" fill="#0023EB" opacity="0"></circle><circle data-highlight-ring="7" cx="0" cy="-21" r="0.78" fill="#0023EB" opacity="0"></circle><circle data-highlight-ring="8" cx="0" cy="-24" r="0.735" fill="#0023EB" opacity="0"></circle><circle data-highlight-ring="9" cx="0" cy="-27" r="0.69" fill="#0023EB" opacity="0"></circle><circle data-highlight-ring="10" cx="0" cy="-30" r="0.645" fill="#0023EB" opacity="0"></circle><circle data-highlight-ring="11" cx="0" cy="-33" r="0.6000000000000001" fill="#0023EB" opacity="0"></circle><circle data-arc-ring="1" cx="0" cy="0" r="3" fill="none" stroke="#0023EB" stroke-width="2.0999999999999996" stroke-dasharray="0 9999" stroke-linecap="round" opacity="0"></circle><circle data-arc-ring="2" cx="0" cy="0" r="6" fill="none" stroke="#0023EB" stroke-width="2.01" stroke-dasharray="0 9999" stroke-linecap="round" opacity="0"></circle><circle data-arc-ring="3" cx="0" cy="0" r="9" fill="none" stroke="#0023EB" stroke-width="1.92" stroke-dasharray="0 9999" stroke-linecap="round" opacity="0"></circle><circle data-arc-ring="4" cx="0" cy="0" r="12" fill="none" stroke="#0023EB" stroke-width="1.83" stroke-dasharray="0 9999" stroke-linecap="round" opacity="0"></circle><circle data-arc-ring="5" cx="0" cy="0" r="15" fill="none" stroke="#0023EB" stroke-width="1.7399999999999998" stroke-dasharray="0 9999" stroke-linecap="round" opacity="0"></circle><circle data-arc-ring="6" cx="0" cy="0" r="18" fill="none" stroke="#0023EB" stroke-width="1.6500000000000001" stroke-dasharray="0 9999" stroke-linecap="round" opacity="0"></circle><circle data-arc-ring="7" cx="0" cy="0" r="21" fill="none" stroke="#0023EB" stroke-width="1.56" stroke-dasharray="0 9999" stroke-linecap="round" opacity="0"></circle><circle data-arc-ring="8" cx="0" cy="0" r="24" fill="none" stroke="#0023EB" stroke-width="1.47" stroke-dasharray="0 9999" stroke-linecap="round" opacity="0"></circle><circle data-arc-ring="9" cx="0" cy="0" r="27" fill="none" stroke="#0023EB" stroke-width="1.38" stroke-dasharray="0 9999" stroke-linecap="round" opacity="0"></circle><circle data-arc-ring="10" cx="0" cy="0" r="30" fill="none" stroke="#0023EB" stroke-width="1.29" stroke-dasharray="0 9999" stroke-linecap="round" opacity="0"></circle><circle data-arc-ring="11" cx="0" cy="0" r="33" fill="none" stroke="#0023EB" stroke-width="1.2000000000000002" stroke-dasharray="0 9999" stroke-linecap="round" opacity="0"></circle></svg>