<svg width="178" height="48" viewBox="0 0 178 48" fill="none" xmlns="http://www.w3.org/2000/svg" class="w-29 h-auto lg:w-[unset]"><path d="M174.554 0.154017L174.513 0.376342L173.609 0.376342L173.098 2.98609L172.857 2.98609L173.369 0.376341L172.466 0.376341L172.507 0.154017L174.554 0.154017Z" fill="white"></path><path d="M175.755 2.03864L177.071 0.157436L177.321 0.157436L176.769 2.98951L176.528 2.98951L176.978 0.680753L175.817 2.36016L175.604 2.36016L175.103 0.687594L174.653 2.99293L174.413 2.99293L174.966 0.160856L175.185 0.160856L175.759 2.04206L175.755 2.03864Z" fill="white"></path><path d="M49.3863 8.63497e-06L45.0764 27.9889L62.6867 27.9889L70.1731 7.53852C70.2246 7.40513 70.362 7.30593 70.4993 7.30593C70.6573 7.30593 70.7638 7.43591 70.7329 7.59667L67.0515 27.9889L84.2805 27.9889L95.7024 1.67331e-05L85.1837 1.4894e-05L76.7014 21.1174C76.6499 21.2542 76.5091 21.3534 76.3683 21.3534L76.3168 21.3534C76.1553 21.3534 76.0489 21.2234 76.0764 21.0627L79.9432 1.39777e-05L65.3653 1.14288e-05L56.7697 21.2747C56.7147 21.4081 56.5774 21.5039 56.44 21.5039C56.2786 21.5039 56.1721 21.3739 56.203 21.2098L60.1248 1.05126e-05L49.3863 8.63497e-06Z" fill="white"></path><path d="M141.376 0.0239708L133.31 27.989L170.175 27.989L172.668 19.3217L147.898 19.3217L153.437 0.0239729L141.376 0.0239708Z" fill="white"></path><path d="M39.5955 0.00322191L8.16293 0.00321641L-4.8937e-06 27.9887L12.3972 27.9887L14.4027 21.0898C14.4199 21.0248 14.4817 20.977 14.547 20.977L33.682 20.977C33.682 20.977 43.5414 20.5392 45.6396 9.37847C47.3395 0.348681 39.5955 0.00322191 39.5955 0.00322191ZM32.6243 11.1639C32.0885 12.686 30.4951 13.7566 28.9566 13.7566L16.6933 13.7565C16.6212 13.7565 16.5766 13.695 16.5972 13.6197L18.3177 7.65802C18.3348 7.59645 18.3966 7.54857 18.4619 7.54857L30.2513 7.54857C32.1503 7.54857 33.2973 9.25192 32.6243 11.1605L32.6243 11.1639Z" fill="white"></path><path d="M135.556 9.41629C137.204 0.3865 129.457 0.0410414 129.457 0.0410414L98.024 0.0410359L89.8645 28.0265L102.334 28.0265L104.525 20.0879L117.18 20.0879C118.2 20.0879 118.979 20.7583 119.092 21.7399L119.824 28.0266L131.902 28.0266L129.872 18.4324C132.266 17.0027 134.659 14.3451 135.559 9.41287L135.556 9.41629ZM108.083 7.58639L120.751 7.58639C122.314 7.58639 123.285 8.93744 122.842 10.4971C122.458 11.8448 121.136 12.8709 119.783 12.8709L106.575 12.8709L108.086 7.58639L108.083 7.58639Z" fill="white"></path><g transform="translate(0 33)"><path d="M1.92351e-06 0.801968L3.76278 0.801968C6.05973 0.801969 7.43488 2.00494 7.43488 3.80197C7.43488 5.82177 6.07484 7.06929 3.95923 7.06929C3.30943 7.06929 2.73519 6.92077 2.41785 6.80196L2.41785 9.66829C2.41785 10.7673 2.53874 11.4356 3.56633 11.4356V11.6138H0L3.17063e-08 11.4356C1.02759 11.4356 1.08803 10.7673 1.08803 9.66829L1.08803 2.74751C1.08803 1.6485 1.02759 0.980186 1.89181e-06 0.980186L1.92351e-06 0.801968ZM3.58144 6.60889C5.01704 6.60889 6.02951 5.71781 6.02951 3.84652C6.02951 2.27226 5.24371 1.21781 3.56633 1.21781L2.99209 1.21781C2.62941 1.21781 2.41785 1.39603 2.41785 1.75246L2.41785 5.92573C2.41785 6.26731 2.58408 6.60889 3.58144 6.60889Z" fill="white"></path><path d="M12.2157 3.65345C12.3819 3.65345 12.5935 3.68315 12.805 3.77226L12.5028 5.04949H12.3517C12.0343 4.82672 11.6868 4.73761 11.4148 4.73761C10.9614 4.73761 10.5685 4.97523 10.1605 5.56929L10.1605 9.98018C10.1605 10.9307 10.2058 11.4356 10.8254 11.4356V11.6138H8.27157V11.4356C8.89114 11.4356 8.93647 10.9307 8.93647 9.98018L8.93648 5.79206C8.93648 4.84157 8.67958 4.52969 8.16579 4.39602V4.21781L10.0396 3.68315H10.1605V5.07919C10.7952 4.21781 11.4752 3.65345 12.2157 3.65345Z" fill="white"></path><path d="M14.5767 2.42078C14.0932 2.42078 13.7154 2.04949 13.7154 1.5891C13.7154 1.1287 14.0932 0.757416 14.5767 0.757416C15.0452 0.757416 15.423 1.1287 15.423 1.5891C15.423 2.04949 15.0452 2.42078 14.5767 2.42078ZM16.0123 11.6138L13.4585 11.6138V11.4356C14.0781 11.4356 14.1234 10.9307 14.1234 9.98018L14.1234 5.79206C14.1234 4.84157 13.8665 4.52969 13.3527 4.39603V4.21781L15.2265 3.68316H15.3474L15.3474 9.98018C15.3474 10.9307 15.3928 11.4356 16.0123 11.4356V11.6138Z" fill="white"></path><path d="M21.5756 4.00989V3.83167L23.661 3.83167V4.00989C23.2077 4.099 22.9054 4.55939 22.2859 6.23761L20.2609 11.7624H19.9587L17.6013 5.599C17.1631 4.45543 16.9213 4.099 16.4075 4.00989V3.83167L19.1729 3.83167V4.00989C18.4929 4.06929 18.4778 4.45543 18.7498 5.19801L20.5027 9.87622L21.8476 6.1188C22.4068 4.5891 22.2859 4.08415 21.5756 4.00989Z" fill="white"></path><path d="M29.851 10.7376L30.0625 10.9307C29.8208 11.2723 29.3221 11.7921 28.6421 11.7921C27.9318 11.7921 27.7354 11.1683 27.7051 10.6336C27.0704 11.3614 26.1335 11.7921 25.3024 11.7921C24.2748 11.7921 23.5495 11.1683 23.5495 10.203C23.5495 9.08909 24.3655 8.25741 26.2091 7.73761L27.6447 7.33662V6.25246C27.6447 5.82177 27.6447 4.38118 26.1638 4.38118C25.1815 4.38118 24.4864 5.01979 24.0481 5.85147L23.7459 5.73266C23.9877 4.93068 24.9246 3.65345 26.6776 3.65345C28.1434 3.65346 28.8536 4.6485 28.8536 6.04454V9.99503C28.8536 10.4851 28.8536 11.0049 29.3221 11.0049C29.5487 11.0049 29.7301 10.8564 29.851 10.7376ZM25.9824 11.0495C26.602 11.0495 27.2367 10.6633 27.6447 10.3069L27.6447 7.73761L26.5718 8.07919C25.5442 8.39107 24.7735 8.77721 24.7735 9.83167C24.7735 10.6336 25.2873 11.0495 25.9824 11.0495Z" fill="white"></path><path d="M35.1339 10.3515L35.3606 10.5891C34.6654 11.3317 33.7587 11.7921 32.9729 11.7921C31.8547 11.7921 31.2049 11.1832 31.2049 9.92078V4.44058H30.4191V4.08415L30.6306 3.99504C31.3711 3.66831 31.8093 3.07425 32.2476 1.88613H32.4289V3.83167L35.2548 3.83167L35.0432 4.44058L32.4289 4.44058V9.71286C32.4289 10.5891 32.8369 11.0495 33.6227 11.0495C34.2272 11.0495 34.7561 10.6782 35.1339 10.3515Z" fill="white"></path><path d="M41.5649 9.74256L41.8369 9.90593C41.308 10.7376 40.3862 11.7921 38.7844 11.7921C36.7745 11.7921 35.5505 10.0544 35.5505 7.85642C35.5505 5.39108 37.1674 3.65346 39.1319 3.65346C40.764 3.65346 41.9427 4.81187 41.8218 6.77227L36.8652 6.77226C36.8501 6.95048 36.835 7.1287 36.835 7.32177C36.835 9.38612 37.6812 10.9752 39.3586 10.9752C40.3862 10.9752 41.0813 10.3366 41.5649 9.74256ZM39.0715 4.03959C37.9079 4.03959 37.1674 5.01979 36.9257 6.32672L40.5222 6.32672C40.628 4.85643 40.1746 4.03959 39.0715 4.03959Z" fill="white"></path><path d="M53.6766 0.801977L53.873 3.0297H53.6917C52.921 1.48514 52.5281 1.21782 51.0018 1.21782L50.4729 1.21782L50.4729 9.6683C50.4729 10.7673 50.5334 11.4356 51.561 11.4356V11.6138H48.0551V11.4356C49.0827 11.4356 49.1431 10.7673 49.1431 9.6683V1.21782L48.5991 1.21782C47.0728 1.21782 46.695 1.48514 45.9092 3.0297H45.7279L45.9395 0.801976L53.6766 0.801977Z" fill="white"></path><path d="M59.1032 9.74256L59.3752 9.90593C58.8463 10.7376 57.9245 11.7921 56.3226 11.7921C54.3128 11.7921 53.0888 10.0544 53.0888 7.85642C53.0888 5.39108 54.7057 3.65346 56.6702 3.65346C58.3022 3.65346 59.4809 4.81187 59.3601 6.77227L54.4035 6.77227C54.3884 6.95049 54.3732 7.1287 54.3732 7.32177C54.3732 9.38613 55.2195 10.9752 56.8969 10.9752C57.9245 10.9752 58.6196 10.3366 59.1032 9.74256ZM56.6098 4.0396C55.4462 4.0396 54.7057 5.01979 54.4639 6.32672L58.0605 6.32672C58.1662 4.85643 57.7129 4.0396 56.6098 4.0396Z" fill="white"></path><path d="M63.5166 11.7921C61.5067 11.7921 60.2827 10.0544 60.2827 7.84157C60.2827 5.39108 61.8996 3.65346 63.849 3.65346C64.9219 3.65346 65.8891 4.18811 66.4029 4.91584L65.7984 5.80692H65.6171C65.3148 4.72277 64.8615 4.0396 63.849 4.0396C62.489 4.0396 61.5672 5.34653 61.5672 7.35148C61.5672 9.38613 62.4285 10.9752 64.0606 10.9752C65.0882 10.9752 65.7682 10.3218 66.2669 9.71286L66.5389 9.87623C66.01 10.7228 65.1033 11.7921 63.5166 11.7921Z" fill="white"></path><path d="M73.7377 5.97029V9.98019C73.7377 10.9307 73.7831 11.4356 74.4027 11.4356V11.6139H71.8488V11.4356C72.4684 11.4356 72.5137 10.9307 72.5137 9.98019V6.29702C72.5137 5.16831 72.1661 4.51485 71.1083 4.51485C70.4434 4.51485 69.7181 4.85643 69.0683 5.36138V9.98019C69.0683 10.9307 69.1136 11.4356 69.7332 11.4356V11.6139L67.1793 11.6138V11.4356C67.7989 11.4356 67.8442 10.9307 67.8442 9.98019V1.9901C67.8442 1.0396 67.5873 0.727722 67.0736 0.594059V0.415842L68.9474 0L69.0683 2.07737e-08L69.0683 4.96039C69.8692 4.20297 70.8514 3.65346 71.8337 3.65346C73.0124 3.65346 73.7377 4.47029 73.7377 5.97029Z" fill="white"></path><path d="M76.1672 11.7921C75.6836 11.7921 75.2907 11.4059 75.2907 10.9455C75.2907 10.4703 75.6836 10.0841 76.1672 10.0841C76.6356 10.0841 77.0285 10.4703 77.0285 10.9455C77.0285 11.4059 76.6356 11.7921 76.1672 11.7921Z" fill="white"></path><path d="M87.6432 0.980201V0.801983L90.4691 0.801983V0.980201C89.5926 0.980201 89.4415 2.00495 89.4415 3.57921V11.7624H89.1393L82.8226 2.18317V8.98514C82.8226 10.4109 83.0644 11.4356 84.0164 11.4356V11.6139H81.0697V11.4356C81.9764 11.4356 82.3088 10.4109 82.3088 8.98514V2.56931C82.3088 1.54456 81.8253 1.09901 81.0697 0.9802V0.801982L83.4875 0.801982L88.9277 9.13366V3.57921C88.9277 2.00495 88.6406 0.980201 87.6432 0.980201Z" fill="white"></path><path d="M97.0897 10.7376L97.3013 10.9307C97.0595 11.2723 96.5608 11.7921 95.8808 11.7921C95.1705 11.7921 94.9741 11.1683 94.9439 10.6337C94.3092 11.3614 93.3723 11.7921 92.5411 11.7921C91.5135 11.7921 90.7882 11.1683 90.7882 10.203C90.7882 9.0891 91.6042 8.25742 93.4478 7.73762L94.8834 7.33663V6.25247C94.8834 5.82178 94.8834 4.38119 93.4025 4.38119C92.4202 4.38119 91.7251 5.0198 91.2869 5.85148L90.9846 5.73267C91.2264 4.93069 92.1633 3.65347 93.9163 3.65347C95.3821 3.65347 96.0923 4.64852 96.0923 6.04455V9.99504C96.0923 10.4851 96.0923 11.0049 96.5608 11.0049C96.7875 11.0049 96.9688 10.8564 97.0897 10.7376ZM93.2211 11.0495C93.8407 11.0495 94.4754 10.6634 94.8834 10.3069V7.73762L93.8105 8.0792C92.7829 8.39108 92.0122 8.77722 92.0122 9.83168C92.0122 10.6337 92.526 11.0495 93.2211 11.0495Z" fill="white"></path><path d="M100.149 11.7921C99.3784 11.7921 98.517 11.599 97.973 11.3168L97.8521 9.47524H98.0335C98.5926 10.797 99.2273 11.4059 100.3 11.4059C101.222 11.4059 101.947 10.9307 101.947 10.0545C101.947 9.17821 101.328 8.82178 100.285 8.27227L99.7108 7.97524C98.9099 7.54455 98.0637 7.05445 98.0637 5.82178C98.0637 4.4703 99.1215 3.65347 100.557 3.65347C101.162 3.65347 101.993 3.78713 102.567 4.09901V5.61386H102.386C102.008 4.51485 101.343 4.03961 100.451 4.03961C99.6051 4.0396 99.0459 4.54456 99.0459 5.28713C99.0459 6.19307 99.8166 6.59406 100.315 6.84653L100.874 7.14356C101.962 7.70792 102.93 8.16831 102.93 9.47524C102.93 10.8861 101.811 11.7921 100.149 11.7921Z" fill="white"></path><path d="M110.561 7.15072e-06V9.75742C110.561 10.7079 110.803 11.0644 111.332 11.2129V11.3911L109.715 11.7921H109.594L109.382 10.5148C108.763 11.2574 107.932 11.7921 106.889 11.7921C105.106 11.7921 103.867 10.1436 103.867 7.87129C103.867 5.27228 105.529 3.65347 107.539 3.65347C108.234 3.65347 108.838 3.84654 109.337 4.14357V1.9901C109.337 1.03961 109.08 0.727729 108.566 0.594066V0.415849L110.44 7.12994e-06L110.561 7.15072e-06ZM107.478 11.0644C108.249 11.0644 108.868 10.6337 109.337 10.099V6.14852C109.337 4.82674 108.657 4.03961 107.523 4.03961C105.937 4.03961 105.181 5.58416 105.181 7.51485C105.181 9.43069 105.952 11.0644 107.478 11.0644Z" fill="white"></path><path d="M118.303 10.7376L118.514 10.9307C118.272 11.2723 117.774 11.7921 117.094 11.7921C116.383 11.7921 116.187 11.1683 116.157 10.6337C115.522 11.3614 114.585 11.7921 113.754 11.7921C112.726 11.7921 112.001 11.1683 112.001 10.203C112.001 9.08911 112.817 8.25743 114.661 7.73762L116.096 7.33663V6.25248C116.096 5.82178 116.096 4.38119 114.615 4.38119C113.633 4.38119 112.938 5.0198 112.5 5.85149L112.197 5.73267C112.439 4.9307 113.376 3.65347 115.129 3.65347C116.595 3.65347 117.305 4.64852 117.305 6.04456V9.99505C117.305 10.4851 117.305 11.0049 117.774 11.0049C118 11.0049 118.182 10.8564 118.303 10.7376ZM114.434 11.0495C115.054 11.0495 115.688 10.6634 116.096 10.3069V7.73762L115.023 8.07921C113.996 8.39109 113.225 8.77723 113.225 9.83168C113.225 10.6337 113.739 11.0495 114.434 11.0495Z" fill="white"></path><path d="M125.746 3.74258V13.3663C125.746 14.3168 125.791 14.8218 126.411 14.8218V15L123.857 15V14.8218C124.476 14.8218 124.522 14.3168 124.522 13.3663V10.5743C123.917 11.2723 123.101 11.7921 122.074 11.7921C120.29 11.7921 119.051 10.1436 119.051 7.87129C119.051 5.27228 120.714 3.65347 122.723 3.65347C123.675 3.65347 124.491 4.02476 125.051 4.54456L125.443 3.74258H125.746ZM122.663 11.0644C123.434 11.0644 124.053 10.6337 124.522 10.099V6.14852C124.522 4.82674 123.842 4.03961 122.708 4.03961C121.122 4.03961 120.366 5.58416 120.366 7.51485C120.366 9.43069 121.137 11.0644 122.663 11.0644Z" fill="white"></path><path d="M137.526 11.6139L130.56 11.6139V11.4356C131.587 11.4356 131.648 10.7673 131.648 9.66832V2.74753C131.648 1.64852 131.587 0.980208 130.56 0.980208V0.80199L134.066 0.801991V0.980209C133.038 0.980209 132.977 1.64852 132.977 2.74753V10.5C132.977 10.9604 133.113 11.198 133.567 11.198L134.625 11.198C136.257 11.198 136.786 10.8713 137.723 8.98515H137.904L137.526 11.6139Z" fill="white"></path><path d="M139.787 2.4208C139.304 2.4208 138.926 2.04951 138.926 1.58912C138.926 1.12872 139.304 0.757438 139.787 0.757438C140.256 0.757438 140.633 1.12872 140.633 1.58912C140.633 2.04952 140.256 2.4208 139.787 2.4208ZM141.223 11.6139L138.669 11.6139V11.4356C139.288 11.4356 139.334 10.9307 139.334 9.9802V5.79209C139.334 4.84159 139.077 4.52971 138.563 4.39605V4.21783L140.437 3.68318H140.558V9.9802C140.558 10.9307 140.603 11.4356 141.223 11.4356V11.6139Z" fill="white"></path><path d="M144.412 11.7921C143.641 11.7921 142.78 11.599 142.236 11.3168L142.115 9.47525H142.296C142.855 10.797 143.49 11.4059 144.563 11.4059C145.485 11.4059 146.21 10.9307 146.21 10.0545C146.21 9.17822 145.59 8.82179 144.548 8.27228L143.974 7.97525C143.173 7.54456 142.326 7.05446 142.326 5.82179C142.326 4.4703 143.384 3.65347 144.82 3.65348C145.424 3.65348 146.255 3.78714 146.83 4.09902V5.61387H146.648C146.27 4.51486 145.606 4.03961 144.714 4.03961C143.868 4.03961 143.309 4.54456 143.309 5.28714C143.309 6.19308 144.079 6.59407 144.578 6.84654L145.137 7.14357C146.225 7.70793 147.192 8.16832 147.192 9.47525C147.192 10.8861 146.074 11.7921 144.412 11.7921Z" fill="white"></path><path d="M152.693 10.3515L152.92 10.5891C152.224 11.3317 151.318 11.7921 150.532 11.7921C149.414 11.7921 148.764 11.1832 148.764 9.9208V4.4406H147.978V4.08417L148.19 3.99506C148.93 3.66833 149.368 3.07427 149.807 1.88615H149.988V3.83169L152.814 3.83169L152.602 4.4406L149.988 4.4406V9.71288C149.988 10.5891 150.396 11.0495 151.182 11.0495C151.786 11.0495 152.315 10.6782 152.693 10.3515Z" fill="white"></path><path d="M159.124 9.74258L159.396 9.90595C158.867 10.7376 157.945 11.7921 156.343 11.7921C154.334 11.7921 153.11 10.0545 153.11 7.85644C153.11 5.3911 154.726 3.65348 156.691 3.65348C158.323 3.65348 159.502 4.81189 159.381 6.77229L154.424 6.77229C154.409 6.9505 154.394 7.12872 154.394 7.32179C154.394 9.38614 155.24 10.9753 156.918 10.9753C157.945 10.9753 158.64 10.3366 159.124 9.74258ZM156.63 4.03961C155.467 4.03961 154.726 5.01981 154.485 6.32674L158.081 6.32674C158.187 4.85645 157.734 4.03961 156.63 4.03961Z" fill="white"></path><path d="M166.998 1.68486e-05V9.75743C166.998 10.7079 167.24 11.0644 167.769 11.2129V11.3911L166.152 11.7921H166.031L165.819 10.5149C165.2 11.2574 164.368 11.7921 163.326 11.7921C161.543 11.7921 160.303 10.1436 160.303 7.87129C160.303 5.27229 161.966 3.65348 163.976 3.65348C164.671 3.65348 165.275 3.84655 165.774 4.14358V1.99011C165.774 1.03962 165.517 0.727739 165.003 0.594076V0.415858L166.877 1.68279e-05L166.998 1.68486e-05ZM163.915 11.0644C164.686 11.0644 165.305 10.6337 165.774 10.099V6.14853C165.774 4.82674 165.094 4.03962 163.96 4.03962C162.374 4.03962 161.618 5.58417 161.618 7.51486C161.618 9.4307 162.389 11.0644 163.915 11.0644Z" fill="white"></path><path d="M169.496 11.7921C169.012 11.7921 168.619 11.4059 168.619 10.9456C168.619 10.4703 169.012 10.0842 169.496 10.0842C169.964 10.0842 170.357 10.4703 170.357 10.9456C170.357 11.4059 169.964 11.7921 169.496 11.7921Z" fill="white"></path></g></svg>