<svg width="76" height="76" viewBox="0 0 76 76" fill="none" xmlns="http://www.w3.org/2000/svg">
<path d="M74.3963 13.8633C73.7263 13.1933 72.8309 12.8187 71.8807 12.8187C71.1345 12.8187 70.428 13.0502 69.8219 13.4705L62.0588 5.71037C63.0364 4.3216 62.9176 2.38462 61.6659 1.13594C60.9959 0.465913 60.1005 0.0913086 59.1503 0.0913086C58.2 0.0913086 57.3046 0.462867 56.6346 1.13594C50.3516 7.41589 49.0207 13.8055 48.7314 19.7504C45.564 19.787 42.2169 19.9941 38.7693 21.0082C38.7693 21.0082 36.5705 21.3432 32.7391 23.7279C32.7117 23.7462 32.6843 23.7462 32.6539 23.7553C32.328 23.9594 32.0021 24.1848 31.6854 24.4071C31.6001 24.4619 31.527 24.5106 31.4417 24.5654C31.4235 24.5746 31.4052 24.5929 31.3869 24.602H31.3778C30.9392 24.9005 30.6042 25.1624 30.3514 25.3847C29.456 26.0913 28.5819 26.8648 27.7322 27.7054C20.7792 34.6554 19.8564 41.8673 19.765 48.7046C17.2768 48.8264 14.6668 49.134 12.0476 49.9258C10.5949 50.3157 8.29241 51.3969 8.29241 51.3969C5.7189 52.6638 3.37991 54.3602 1.13533 56.6048C-0.253444 57.9935 -0.253444 60.2564 1.13533 61.6452C1.83581 62.3426 2.7373 62.6898 3.65097 62.6898C4.49763 62.6898 5.34735 62.3822 6.01737 61.7853L13.7166 69.4814C12.4679 70.8793 12.5136 73.0295 13.8475 74.3726C14.5175 75.0426 15.4129 75.4172 16.3631 75.4172C17.3134 75.4172 18.2088 75.0457 18.8788 74.3726C25.3201 67.9343 26.5018 61.3589 26.7729 55.7581C33.3726 55.685 40.6515 54.9206 47.7812 47.794C54.9108 40.6673 55.6661 33.3915 55.7484 26.7948C61.407 26.5237 67.9946 25.2751 74.3689 18.8946C75.039 18.2246 75.4136 17.3292 75.4136 16.379C75.4136 15.4288 75.042 14.5334 74.3689 13.8633H74.3963ZM68.1804 14.9628C66.886 16.0988 65.5977 16.9668 64.3033 17.6277L57.9016 11.2289C58.5625 9.93457 59.4304 8.65848 60.5756 7.35193L68.1895 14.9628H68.1804ZM62.0923 18.5596C60.1066 19.2388 58.0569 19.5372 55.8671 19.659C55.989 17.4876 56.2692 15.4379 56.9575 13.4278L62.0923 18.5596ZM29.2855 29.2891C30.6103 27.9673 32.0082 26.8283 33.4518 25.8872C34.2893 25.3573 36.2202 24.1908 38.1481 23.5025C38.2029 23.4934 38.2607 23.5025 38.3156 23.4751C38.7267 23.335 39.1257 23.2041 39.5277 23.0944C39.6008 23.0762 39.6678 23.0579 39.7317 23.0396C42.7804 22.193 45.7802 22.0163 48.6522 21.9767C48.6431 22.8143 48.6431 23.6548 48.6431 24.4649V24.6599C42.5306 24.733 36.9664 25.4152 31.1859 31.1895C25.3141 37.0583 24.7354 42.9271 24.6623 48.4335C24.6623 48.5066 24.6623 48.5736 24.6806 48.6376H24.4674C23.6573 48.6376 22.8258 48.6376 21.9792 48.6467C22.0736 42.0683 22.9385 35.633 29.2946 29.2769L29.2855 29.2861V29.2891ZM28.4662 38.971C29.2398 37.1254 30.3941 35.2736 32.13 33.4098L42.1012 43.3779C40.2373 45.1108 38.41 46.2742 36.5552 47.0569L28.4662 38.971ZM34.2162 47.8579C31.8864 48.464 29.4712 48.6041 26.8734 48.6406C26.8734 48.5858 26.8917 48.5371 26.8917 48.4823C26.9282 46.0884 27.05 43.7038 27.6835 41.3282L34.2254 47.867L34.2162 47.8579ZM33.7137 31.8535C35.7817 29.9896 37.813 28.8262 39.8932 28.0983L39.8079 28.1836L47.3304 35.7031L47.4431 35.5904C46.7152 37.6766 45.5427 39.7263 43.6605 41.8125L33.7076 31.8626L33.7168 31.8535H33.7137ZM42.223 27.4466C44.2727 27.0171 46.3893 26.9075 48.6431 26.877C48.6157 29.1399 48.503 31.2566 48.0735 33.2971L42.22 27.4466H42.223ZM7.65588 60.2869C8.9807 59.1691 10.2842 58.3225 11.609 57.689L17.825 63.9019C17.1915 65.2237 16.3418 66.5394 15.2332 67.852L7.66502 60.2869H7.65588ZM13.8536 56.8027C15.7266 56.2149 17.6362 55.9652 19.6584 55.8525C19.5458 57.8839 19.2869 59.7935 18.6991 61.6482L13.8536 56.8027ZM17.3286 72.8072C17.0758 73.0599 16.7408 73.197 16.3784 73.197C16.016 73.197 15.6779 73.0569 15.4282 72.8072C15.1754 72.5544 15.0353 72.2194 15.0353 71.8569C15.0353 71.4945 15.1754 71.1595 15.4282 70.9067C20.6574 65.6805 21.6442 60.5457 21.8878 55.7764C22.7253 55.7672 23.5842 55.7672 24.4704 55.7672H24.5831C24.3212 60.9203 23.2035 66.9475 17.3408 72.8072H17.3316H17.3286ZM53.5647 24.4649C53.5647 31.2291 53.5647 38.8948 46.2401 46.2285C38.9064 53.5592 31.2438 53.5592 24.4674 53.5501C17.6179 53.5501 11.1491 53.5501 4.60727 60.0889C4.08648 60.6097 3.22763 60.6097 2.70684 60.0889C2.18605 59.5681 2.18605 58.7092 2.70684 58.1885C4.77478 56.1205 6.91885 54.5642 9.26698 53.41C11.4111 52.207 12.6872 52.0699 12.6872 52.0699C16.7134 50.8578 20.6543 50.8669 24.4765 50.8669C31.326 50.8669 37.7948 50.8669 44.3366 44.3281C50.8785 37.7893 50.8785 31.3236 50.8785 24.4741C50.8785 17.6246 50.8785 10.0442 58.2031 2.71049C58.4559 2.45771 58.8 2.32066 59.1533 2.32066C59.5066 2.32066 59.8538 2.46076 60.1035 2.71049C60.6243 3.23128 60.6243 4.09013 60.1035 4.61092C53.5617 11.1497 53.5616 17.6155 53.5616 24.4741V24.4649H53.5647ZM72.8309 17.3292C67.0261 23.134 60.9959 24.3066 55.7849 24.5685V24.4558C55.7849 23.5695 55.7849 22.7137 55.794 21.8762C60.5756 21.6326 65.7104 20.6367 70.9305 15.4196C71.4513 14.8988 72.3101 14.8988 72.8309 15.4196C73.0837 15.6724 73.2238 16.0074 73.2238 16.3698C73.2238 16.7323 73.0837 17.0673 72.8309 17.3201V17.3292Z" fill="#0023EC"/>
<path d="M75.3198 16.379C75.3198 15.4532 74.9574 14.5852 74.3056 13.9304L74.1412 13.7659H74.1564C73.526 13.2177 72.728 12.9162 71.8844 12.9162C71.1596 12.9162 70.4713 13.1416 69.8804 13.5497L69.8134 13.5954L61.9924 5.77743L61.9346 5.71957L61.9803 5.65256C62.9335 4.30033 62.8147 2.41513 61.5996 1.203C60.9478 0.551246 60.0768 0.188823 59.1509 0.188823C58.2251 0.188823 57.3571 0.551246 56.7023 1.203C50.4437 7.45858 49.1158 13.8238 48.8265 19.7535V19.8449H48.7321C45.5677 19.8814 42.2298 20.0885 38.7944 21.0997H38.7822C38.7822 21.0997 38.7822 21.0997 38.7792 21.0997C38.7761 21.0997 38.77 21.0997 38.7609 21.0997C38.7457 21.0997 38.7182 21.1057 38.6878 21.1149C38.6208 21.1271 38.5233 21.1514 38.3924 21.1849C38.1304 21.2519 37.7376 21.3677 37.2259 21.5565C36.2026 21.9372 34.7011 22.6133 32.7916 23.8041C32.7642 23.8193 32.7398 23.8285 32.7215 23.8346C32.7063 23.8376 32.7002 23.8376 32.6941 23.8407C32.3743 24.0417 32.0546 24.264 31.7439 24.4833C31.7013 24.5107 31.6617 24.5381 31.6221 24.5625C31.5825 24.5868 31.5429 24.6142 31.5033 24.6416L31.4942 24.6477C31.4942 24.6477 31.4881 24.6508 31.485 24.6569C31.4789 24.663 31.4607 24.6751 31.4424 24.6843L31.4211 24.6934C30.9977 24.9828 30.6749 25.2355 30.4313 25.4518H30.4252C29.7552 25.9847 29.0973 26.5512 28.4547 27.1542L27.8151 27.7694C20.8895 34.692 19.9667 41.8734 19.8753 48.7016V48.793L19.784 48.7991C17.2988 48.9209 14.6979 49.2254 12.0909 50.0142C11.3721 50.2091 10.4371 50.5746 9.68185 50.8944C9.3042 51.0528 8.97223 51.202 8.73468 51.3086C8.6159 51.3634 8.52148 51.406 8.45448 51.4365C8.42098 51.4517 8.39662 51.4639 8.38139 51.47C8.37225 51.4731 8.36616 51.4761 8.36007 51.4791H8.35398L7.87583 51.7228C5.50029 52.9562 3.31966 54.5734 1.22127 56.6718C-0.130959 58.021 -0.130959 60.223 1.22127 61.5752C1.90043 62.2543 2.7806 62.5894 3.6699 62.5894C4.49525 62.5894 5.3206 62.2909 5.97235 61.7092L6.03935 61.6483L13.8664 69.4723L13.8055 69.5393C12.5904 70.8977 12.636 72.993 13.9335 74.2965C14.5852 74.9483 15.4562 75.3107 16.3821 75.3107C17.3079 75.3107 18.1759 74.9483 18.8307 74.2965C25.2477 67.8826 26.4263 61.3315 26.6974 55.746L26.7035 55.6546H26.7949C33.3824 55.5785 40.6309 54.8171 47.7362 47.7148C54.8384 40.6156 55.5937 33.3702 55.6759 26.7827V26.6913L55.7673 26.6852C61.4107 26.4172 67.9739 25.1716 74.3239 18.8124C74.9757 18.1607 75.3381 17.2897 75.3381 16.3669L75.3198 16.379ZM24.6843 55.6698L24.6782 55.7703C24.4163 60.9356 23.2925 66.9902 17.4084 72.8742L17.381 72.9016H17.3688C17.1039 73.1544 16.7567 73.2945 16.3821 73.2945C16.0075 73.2945 15.6329 73.1453 15.3649 72.8742C15.0938 72.6032 14.9446 72.2438 14.9446 71.857C14.9446 71.4672 15.0969 71.1078 15.3649 70.8398C20.5697 65.6349 21.5534 60.5306 21.794 55.7734L21.8001 55.682H21.8915C22.7321 55.6729 23.5879 55.6729 24.4741 55.6729H24.6873L24.6843 55.6698ZM17.8957 63.832L17.9445 63.8807L17.914 63.9416C17.2775 65.2725 16.4247 66.5912 15.31 67.913L15.243 67.9922L15.1699 67.9191L7.62914 60.3813H7.39463L7.59563 60.2108C8.9235 59.087 10.2361 58.2373 11.5701 57.5977L11.631 57.5672L17.8957 63.8289V63.832ZM11.5914 57.8048C10.3245 58.4169 9.07578 59.2301 7.80578 60.29L15.2278 67.709C16.2816 66.4481 17.0947 65.1903 17.7099 63.9203L11.5914 57.8048ZM19.7596 55.8556C19.6469 57.8901 19.385 59.8088 18.7972 61.6726L18.7485 61.8249L13.6776 56.7571L13.8299 56.7084C15.7121 56.1175 17.6338 55.8648 19.6591 55.7551L19.7657 55.749L19.7596 55.8587V55.8556ZM19.5586 55.9531C17.6369 56.0658 15.8187 56.3064 14.037 56.8454L18.6571 61.4625C19.1962 59.6991 19.449 57.884 19.5586 55.9531ZM59.1601 2.22326C59.5408 2.22326 59.9093 2.37249 60.1773 2.64355C60.7377 3.20393 60.7377 4.12064 60.1773 4.68103C53.6659 11.1894 53.6628 17.6186 53.6628 24.4741C53.6628 31.3297 53.6628 38.9375 46.3078 46.2956C38.9436 53.6567 31.2444 53.6567 24.4681 53.6476C17.6186 53.6476 11.1894 53.6476 4.67494 60.159C4.11456 60.7194 3.19784 60.7194 2.63746 60.159C2.07707 59.5986 2.07707 58.6819 2.63746 58.1215C4.71149 56.0475 6.86165 54.4851 9.21892 53.3248C10.297 52.7217 11.1589 52.3837 11.7498 52.1949C12.0452 52.1004 12.2767 52.0456 12.432 52.0121C12.5112 51.9969 12.5721 51.9847 12.6117 51.9786C12.633 51.9756 12.6482 51.9725 12.6574 51.9725H12.6634C16.7019 50.7604 20.6581 50.7695 24.4741 50.7695C31.3236 50.7695 37.7558 50.7695 44.2673 44.2581C50.7787 37.7498 50.7817 31.3206 50.7817 24.4741C50.7817 17.6277 50.7817 10.0047 58.1368 2.64355C58.4078 2.37249 58.7763 2.22326 59.154 2.22326H59.1601ZM48.5585 22.0742C45.72 22.1138 42.7627 22.2966 39.7629 23.1311C39.6989 23.1493 39.6319 23.1706 39.5558 23.1889C39.1598 23.2986 38.7609 23.4295 38.3528 23.5666C38.3132 23.5818 38.2766 23.5909 38.2462 23.594C38.2096 23.597 38.1944 23.594 38.1731 23.6001C36.2605 24.2853 34.3448 25.4426 33.5073 25.9695C32.0698 26.9075 30.6749 28.0405 29.3562 29.3592C23.0671 35.6514 22.1808 42.0227 22.0803 48.5524C22.8935 48.5432 23.6914 48.5432 24.4711 48.5432H24.5716C24.5716 48.5067 24.5716 48.4701 24.5716 48.4336C24.6477 42.9181 25.2264 37.0158 31.1226 31.1226C34.022 28.2232 36.8726 26.603 39.7659 25.6954C42.6287 24.8 45.5281 24.6051 48.5524 24.5655V24.465C48.5524 23.6853 48.5524 22.8813 48.5585 22.0742ZM27.7573 41.2582L34.2991 47.7971L34.2321 47.8671L34.226 47.8732L34.2474 47.9524C31.9053 48.5615 29.4811 48.7016 26.8801 48.7381H26.7827V48.6407C26.7827 48.6041 26.7888 48.5676 26.7918 48.5432C26.7979 48.5158 26.801 48.5006 26.801 48.4823C26.8375 46.0855 26.9593 43.6886 27.5958 41.3009L27.6385 41.1395L27.7573 41.2582ZM27.739 41.5141C27.1451 43.8226 27.0263 46.1433 26.9898 48.4823C26.9898 48.5036 26.9867 48.5219 26.9837 48.5402C29.478 48.5006 31.7957 48.3635 34.0311 47.8032L27.739 41.5141ZM42.245 43.381L42.1719 43.448C40.3019 45.187 38.4655 46.3596 36.5985 47.1453L36.5376 47.1697L36.4919 47.124L28.3572 38.9923L28.3816 38.9314C29.1582 37.0767 30.3216 35.2128 32.0637 33.3398L32.1337 33.2667L42.248 43.3779L42.245 43.381ZM32.1368 33.5469C30.4678 35.3559 29.344 37.1589 28.5857 38.9467L36.5803 46.9413C38.3802 46.1738 40.1527 45.0439 41.9648 43.3719L32.1337 33.5469H32.1368ZM39.9639 28.1654L39.9486 28.1806L47.3341 35.563L47.3798 35.5204L47.5382 35.6209C46.8073 37.7193 45.6256 39.7811 43.7343 41.8765L43.6642 41.9526L33.5712 31.8627L33.6382 31.7926L33.6504 31.7804C35.7275 29.9105 37.7711 28.7379 39.8634 28.007L39.9639 28.1654ZM39.7476 28.2537C37.765 28.9724 35.825 30.0963 33.8484 31.8657L43.6581 41.6724C45.4276 39.6959 46.5575 37.7528 47.2732 35.7793L39.7476 28.2567V28.2537ZM48.7442 26.8771C48.7168 29.143 48.6041 31.2657 48.1747 33.3154L48.1382 33.489L48.0133 33.3611L42.0349 27.3827L42.2115 27.3461C44.2703 26.9167 46.3931 26.804 48.6529 26.7766H48.7534V26.874L48.7442 26.8771ZM48.5493 26.9746C46.3991 27.005 44.3799 27.1146 42.4247 27.5045L48.0194 33.0961C48.4092 31.15 48.5189 29.1308 48.5493 26.9715V26.9746ZM73.127 16.3699C73.127 16.0318 72.9961 15.7212 72.7646 15.4867C72.2803 15.0024 71.4854 15.0024 71.0012 15.4867C65.7933 20.6946 60.6615 21.7149 55.8922 21.9646C55.883 22.7747 55.883 23.6001 55.883 24.4559V24.465C61.0483 24.1939 66.9993 23.0092 72.7372 17.2897V17.2805L72.7646 17.2531C72.9991 17.0186 73.127 16.708 73.127 16.3699ZM62.2757 18.5993L62.1295 18.648C60.1346 19.3332 58.0728 19.6317 55.8769 19.7535L55.7703 19.7596L55.7764 19.65C55.8983 17.4754 56.1784 15.4166 56.8728 13.3913L56.9216 13.2452L62.2757 18.5993ZM57.0038 13.6045C56.3642 15.5232 56.0962 17.4815 55.9744 19.5556C58.0637 19.4337 60.022 19.1475 61.9163 18.517L57.0038 13.6045ZM60.6463 7.28194L68.2602 14.8928L68.4247 15.0573H68.2176C66.9262 16.1872 65.641 17.0521 64.3497 17.713L64.2888 17.7435L64.2401 17.6947L57.8383 11.2929L57.7896 11.2442L57.8231 11.1833C58.49 9.8798 59.358 8.59762 60.5092 7.28803L60.5762 7.21189L60.6493 7.28499L60.6463 7.28194ZM60.5823 7.49208C59.492 8.74381 58.6606 9.96813 58.021 11.2077L64.3223 17.5059C65.5649 16.8663 66.8014 16.0318 68.044 14.9507L60.5823 7.49208ZM15.1364 71.857C15.1364 72.1951 15.2674 72.5057 15.4989 72.7372C15.7303 72.9686 16.044 73.0996 16.3821 73.0996C16.7201 73.0996 17.0308 72.9686 17.2653 72.7372L17.2927 72.7098H17.3018C23.0793 66.9201 24.2122 60.9722 24.4802 55.8648H24.4711C23.6183 55.8648 22.7899 55.8648 21.9798 55.8709C21.7301 60.628 20.7159 65.7568 15.4989 70.9738C15.2644 71.2083 15.1364 71.519 15.1364 71.857ZM50.9827 24.4741C50.9827 31.3236 50.9827 37.8259 44.4104 44.3952C37.8381 50.9644 31.3328 50.9644 24.4802 50.9644C20.6581 50.9644 16.7293 50.9553 12.7183 52.1614H12.7091H12.7C12.7 52.1614 12.6939 52.1614 12.6909 52.1614C12.6817 52.1614 12.6665 52.1614 12.6482 52.1674C12.6117 52.1735 12.5538 52.1827 12.4777 52.1979C12.3284 52.2284 12.1031 52.2832 11.8137 52.3745C11.232 52.5573 10.3823 52.8892 9.31638 53.4892H9.31333C6.97434 54.6435 4.8394 56.1906 2.77755 58.2525C2.29331 58.7367 2.29331 59.5316 2.77755 60.0159C3.2618 60.5001 4.05669 60.5001 4.54093 60.0159C11.1133 53.4466 17.6186 53.4466 24.4711 53.4466C31.2444 53.4557 38.8705 53.4527 46.1738 46.1525C53.0141 39.306 53.4435 32.1733 53.4679 25.735V24.4559C53.4679 17.6003 53.4679 11.1011 60.0402 4.53484C60.5245 4.0506 60.5245 3.25571 60.0402 2.77146C59.8057 2.53695 59.4859 2.40904 59.157 2.40904C58.8281 2.40904 58.5083 2.54 58.2738 2.77146C50.9797 10.0717 50.9766 17.7039 50.9766 24.465L50.9827 24.4741ZM48.7442 24.7543H48.6498C45.5951 24.7939 42.6866 24.9827 39.8238 25.8781C36.961 26.7735 34.1408 28.3816 31.2597 31.2597C25.4152 37.101 24.8366 42.9394 24.7635 48.4366C24.7635 48.5128 24.7635 48.5645 24.7787 48.6133L24.8152 48.7351H24.4711C23.661 48.7351 22.8326 48.7351 21.9829 48.7442H21.8824V48.6468C21.9768 42.0592 22.8448 35.5904 29.2252 29.213C30.55 27.8882 31.951 26.7522 33.3976 25.8081C34.2382 25.2751 36.1752 24.1056 38.1152 23.4143H38.1244L38.1335 23.4082C38.167 23.4021 38.2096 23.4021 38.2249 23.4021C38.2462 23.4021 38.2614 23.396 38.2736 23.3899L38.2858 23.3838C38.6969 23.2437 39.0989 23.1128 39.504 23.0001C39.5771 22.9818 39.641 22.9635 39.705 22.9453C42.7658 22.0956 45.7779 21.9159 48.6498 21.8793H48.7473V21.9768C48.7381 22.8143 48.7381 23.6518 48.7381 24.465V24.7543H48.7442ZM75.5117 16.379C75.5117 17.3536 75.1279 18.2734 74.4397 18.9617C68.0744 25.333 61.496 26.606 55.8434 26.8862C55.7551 33.4677 54.9724 40.7405 47.8488 47.861C40.7253 54.9815 33.4494 55.7734 26.8649 55.8526C26.5847 61.4442 25.3756 68.0135 18.9495 74.4397C18.2612 75.1279 17.3414 75.5117 16.3638 75.5117C15.3862 75.5117 14.4664 75.1279 13.7781 74.4397C12.432 73.0844 12.365 70.922 13.5863 69.4845L6.01499 61.9132C5.33583 62.4858 4.49525 62.7843 3.65468 62.7843C2.71664 62.7843 1.78775 62.431 1.06899 61.7122C-0.356331 60.2869 -0.356331 57.9632 1.06899 56.5348C3.32271 54.2841 5.67084 52.5816 8.25348 51.3086C8.25348 51.3086 8.25348 51.3086 8.25957 51.3086C8.26261 51.3086 8.27175 51.3025 8.28089 51.2995C8.29916 51.2903 8.32352 51.2812 8.35702 51.266C8.42403 51.2355 8.51844 51.1929 8.63722 51.138C8.87477 51.0315 9.20978 50.8822 9.59048 50.7238C10.3488 50.4041 11.2929 50.0325 12.0269 49.8376C14.6248 49.0518 17.2105 48.7442 19.6743 48.6194C19.7748 41.7973 20.722 34.5885 27.6689 27.6446C28.5187 26.804 29.3988 26.0274 30.2973 25.3178C30.5531 25.0924 30.8911 24.8305 31.3267 24.532L31.351 24.5137H31.3632C31.3632 24.5137 31.3815 24.5015 31.3937 24.4924C31.4363 24.465 31.4759 24.4376 31.5155 24.4132C31.5551 24.3889 31.5947 24.3615 31.6343 24.334C31.951 24.1117 32.2769 23.8863 32.6058 23.6792L32.6149 23.6732H32.6241C32.6241 23.6732 32.6454 23.664 32.6545 23.661C32.6637 23.661 32.6667 23.6579 32.6728 23.6549C32.6819 23.6549 32.685 23.6518 32.685 23.6518C34.6067 22.4549 36.1173 21.7697 37.1528 21.3859C37.6706 21.1941 38.0695 21.0753 38.3375 21.0083C38.4716 20.9748 38.5751 20.9504 38.6421 20.9352C38.6756 20.9291 38.703 20.923 38.7213 20.92C38.7274 20.92 38.7335 20.92 38.7396 20.92C42.1658 19.9119 45.4916 19.7017 48.6376 19.6591C48.9361 13.7264 50.2914 7.34285 56.5652 1.07204C57.2535 0.38374 58.1733 0 59.1509 0C60.1285 0 61.0453 0.38374 61.7366 1.07204C63.0005 2.3329 63.1345 4.27901 62.1813 5.70129L69.8348 13.3517C70.4408 12.9497 71.1413 12.7274 71.8814 12.7274C72.859 12.7274 73.7757 13.1111 74.4671 13.7994L74.6315 13.9639H74.5919C75.1828 14.6309 75.5086 15.4836 75.5086 16.3821L75.5117 16.379ZM73.3219 16.3699C73.3219 16.7445 73.1818 17.0917 72.9321 17.3567V17.3688L72.9047 17.3963C67.0755 23.2224 61.0179 24.401 55.7947 24.663L55.6942 24.6691V24.4559C55.6942 23.5696 55.6942 22.7138 55.7033 21.8732V21.7819L55.7947 21.7758C60.561 21.5352 65.6715 20.5423 70.8672 15.3466C71.4276 14.7862 72.3443 14.7862 72.9047 15.3466C73.1757 15.6176 73.325 15.977 73.325 16.3638L73.3219 16.3699Z" fill="#0023EC"/>
</svg>
