<svg width="68" height="74" viewBox="0 0 68 74" fill="none" xmlns="http://www.w3.org/2000/svg">
<path d="M25.4074 62.1021C25.2635 61.7062 24.8746 61.4442 24.449 61.4625L14.1569 61.8341C11.9092 61.9194 9.97699 60.29 9.69833 58.0728L8.4612 48.5859C8.41833 48.2387 8.18866 47.9463 7.85794 47.8093L3.23708 45.9027C2.37966 45.5494 1.97239 44.5718 2.33067 43.7191C2.34904 43.6764 2.36435 43.6429 2.38885 43.6003L8.36627 31.9297C8.42445 31.8201 8.45814 31.6921 8.46733 31.5764C8.4857 31.3906 8.86541 27.0385 8.86541 24.6691C8.86541 22.6285 9.9678 19.2967 10.1117 18.8673C14.9623 8.55499 29.7221 5.29929 33.4794 5.29929C33.5652 5.29929 33.657 5.28101 33.7428 5.25665H46.6377C47.1797 7.42509 49.3845 8.74077 51.5648 8.19866C53.7451 7.6596 55.068 5.46679 54.5229 3.29835C53.9809 1.12991 51.7761 -0.185771 49.5958 0.35634C48.1382 0.718762 47.0021 1.84866 46.6377 3.29835H33.7673C33.6815 3.29835 33.5897 3.31663 33.5039 3.34099H33.4794C29.4434 3.34099 13.5292 6.87385 8.30503 18.0907C8.28666 18.1242 8.28053 18.1485 8.27134 18.182C8.21316 18.3434 6.89641 22.1717 6.89641 24.666C6.89641 26.6913 6.59019 30.349 6.52283 31.217L0.637266 42.711C-0.278333 44.4987 0.435161 46.6733 2.23267 47.5839C2.31842 47.6265 2.4011 47.6692 2.49602 47.7027L6.59019 49.3899L7.75077 58.3195C8.15804 61.5417 10.9722 63.9111 14.2365 63.7832L23.809 63.436L27.2356 72.789C27.4316 73.2945 27.9981 73.5473 28.5064 73.3524C29.0055 73.1666 29.2597 72.6184 29.0821 72.1129L25.4105 62.096H25.4013L25.4074 62.1021ZM50.588 2.19586C51.7424 2.19586 52.6825 3.13085 52.6825 4.27902C52.6825 5.4272 51.7424 6.36219 50.588 6.36219C49.4335 6.36219 48.4934 5.4272 48.4934 4.27902C48.4934 3.13085 49.4335 2.19586 50.588 2.19586Z" fill="#0023EC"/>
<path d="M8.61747 24.6696C8.61747 23.6158 8.89919 22.2484 9.19316 21.1063C9.4902 19.9581 9.80254 19.011 9.87604 18.7917V18.7795L9.88522 18.7673C12.3442 13.535 17.3111 10.1118 22.1004 7.9982C26.8896 5.88458 31.5534 5.05923 33.4734 5.05923C33.5285 5.05923 33.5989 5.0501 33.6663 5.02878L33.7 5.01964H46.8215L46.8675 5.20237C47.3789 7.23986 49.4489 8.47636 51.5006 7.96775C53.5492 7.45914 54.7925 5.40034 54.2841 3.35981C53.7727 1.32233 51.7027 0.0858288 49.651 0.594438C48.2792 0.935541 47.2135 1.99844 46.8705 3.35981L46.8246 3.54254H33.7643C33.7092 3.54254 33.6388 3.55473 33.5714 3.57604L33.5377 3.58518H33.4765C31.5013 3.58518 26.5467 4.45926 21.4359 6.73429C16.325 9.00933 11.1009 12.664 8.5256 18.1947V18.2008C8.5256 18.2008 8.51029 18.2252 8.50723 18.2435V18.2557L8.50111 18.2678C8.47355 18.344 8.13364 19.3307 7.79986 20.6099C7.46608 21.8951 7.14149 23.4514 7.14149 24.6666C7.14149 26.701 6.83527 30.374 6.7679 31.2389V31.2876L6.7434 31.3303L0.857842 42.8242C0.00348628 44.4932 0.667984 46.5215 2.34301 47.3712C2.38588 47.3926 2.42569 47.4139 2.4655 47.4322L2.58186 47.4809H2.59105L6.68522 49.1712L6.81383 49.2229L7.99278 58.2926C8.38474 61.39 11.0887 63.6681 14.2274 63.5462L23.7999 63.199L23.9775 63.1929L24.0387 63.3574L27.4623 72.7042L27.4929 72.7743C27.6613 73.1093 28.0625 73.2677 28.4208 73.1306C28.7943 72.9905 28.9873 72.5794 28.8525 72.1956L25.2422 62.3402H25.233L25.1748 62.1818C25.0676 61.8834 24.7737 61.6884 24.4552 61.7006L14.1601 62.0722C11.7869 62.1635 9.74436 60.4428 9.45039 58.1008L8.21326 48.6169C8.18264 48.358 8.01115 48.1357 7.76005 48.0321L3.13919 46.1256C2.22052 45.7449 1.75201 44.7368 2.03373 43.811L2.1011 43.6282C2.11947 43.5795 2.14091 43.5399 2.16847 43.4942L8.14589 31.8236V31.8175C8.19182 31.7414 8.21632 31.647 8.22245 31.5617V31.5556C8.24082 31.3668 8.62053 27.0269 8.62053 24.6727L8.61747 24.6696ZM52.4376 4.27957C52.4376 3.2654 51.6047 2.44005 50.585 2.44005C49.5653 2.44005 48.7354 3.26844 48.7354 4.27957C48.7354 5.29374 49.5683 6.12214 50.585 6.12214C51.6047 6.12214 52.4376 5.29374 52.4376 4.27957ZM24.4368 61.2225C24.9084 61.2042 25.3432 61.46 25.5607 61.862H25.5821L25.6403 62.0204L29.3119 72.0403C29.5323 72.6707 29.2169 73.3529 28.5922 73.5874C27.9584 73.828 27.251 73.5144 27.0091 72.8839L23.6437 63.6924L14.2489 64.0305C10.859 64.1614 7.93766 61.7006 7.51201 58.3566L6.36981 49.564L2.40426 47.9316C2.30014 47.892 2.20521 47.8464 2.12559 47.8068C0.208654 46.8352 -0.550772 44.5145 0.426072 42.608L6.28713 31.1567C6.36063 30.2034 6.6546 26.6492 6.6546 24.6727C6.6546 23.3935 6.99144 21.7855 7.32828 20.4941C7.66513 19.1998 8.01115 18.1947 8.04484 18.1064C8.05402 18.0699 8.06627 18.0303 8.09077 17.9876C10.7396 12.3077 16.0801 8.58904 21.2399 6.29573C26.3997 3.99938 31.4217 3.10703 33.4795 3.10703C33.5683 3.08266 33.6694 3.06439 33.7674 3.06439H46.4541C46.8858 1.6147 48.0556 0.49698 49.5377 0.128467C51.8466 -0.444099 54.1831 0.950768 54.7588 3.24712C55.3345 5.54348 53.932 7.86724 51.6231 8.43981C49.3754 8.99715 47.1033 7.6906 46.4541 5.50389H33.7674C33.6786 5.52825 33.5775 5.54652 33.4795 5.54652C31.6422 5.54652 27.0458 6.35055 22.3055 8.44285C17.5683 10.5321 12.73 13.8914 10.3384 18.9653C10.2588 19.2028 9.95565 20.1226 9.67087 21.2312C9.3769 22.3702 9.11049 23.6889 9.11049 24.6757C9.11049 27.0573 8.72771 31.4125 8.7124 31.6044C8.70015 31.7505 8.66034 31.9059 8.58685 32.046L2.60942 43.7166V43.7227L2.6033 43.7287C2.58493 43.7592 2.57268 43.7836 2.56043 43.814C2.25727 44.545 2.6033 45.3825 3.33823 45.687L7.9591 47.5905C8.36943 47.758 8.65422 48.1265 8.70934 48.559L9.94647 58.0459C10.2098 60.1382 12.0349 61.6763 14.157 61.5971L24.4491 61.2255L24.4368 61.2225ZM52.9215 4.27957C52.9215 5.55871 51.8711 6.60333 50.585 6.60333C49.2989 6.60333 48.2485 5.55871 48.2485 4.27957C48.2485 3.00043 49.2989 1.9558 50.585 1.9558C51.8711 1.9558 52.9215 3.00043 52.9215 4.27957Z" fill="#0023EC"/>
<path d="M56.8138 45.784C59.2299 45.784 61.1958 43.8349 61.1958 41.4319C61.1958 39.029 59.236 37.0737 56.8199 37.0737C54.8111 37.0737 53.0564 38.432 52.5634 40.3629H49.7921C49.5196 40.3629 49.2593 40.4726 49.0725 40.6736L44.5037 45.5556H39.4664L35.5835 42.1903C35.4059 42.038 35.1762 41.9466 34.9404 41.9466H30.1236C29.5816 41.9466 29.1406 42.3852 29.1406 42.9243C29.1406 43.4633 29.5816 43.9019 30.1236 43.9019H34.5669L38.4497 47.2672C38.6273 47.4195 38.857 47.5109 39.0928 47.5109H44.9263C45.1988 47.5109 45.4591 47.4012 45.6459 47.2002L50.2147 42.3182H52.5114C52.934 44.3435 54.7254 45.784 56.8015 45.7932L56.8107 45.784H56.8138ZM56.8138 39.0198C58.1458 39.0198 59.2299 40.098 59.2299 41.4228C59.2299 42.7476 58.1458 43.8257 56.8138 43.8257C55.4817 43.8257 54.3977 42.7476 54.3977 41.4228C54.3977 40.098 55.4817 39.0198 56.8138 39.0198Z" fill="#0023EC"/>
<path d="M60.9519 41.4319C60.9519 39.1599 59.1023 37.3143 56.821 37.3143C54.9224 37.3143 53.2627 38.5965 52.8003 40.4208L52.7544 40.6035H49.7932C49.5881 40.6035 49.3921 40.6858 49.2512 40.838L44.6824 45.7231L44.6089 45.7993H39.3756L39.3052 45.7383L35.4223 42.376C35.2845 42.2573 35.11 42.1903 34.9354 42.1903H30.1186C29.7113 42.1903 29.3775 42.5192 29.3775 42.9273C29.3775 43.3324 29.7082 43.6643 30.1186 43.6643H34.6537L34.7211 43.7222L38.6039 47.0875C38.7417 47.2063 38.9163 47.2733 39.0908 47.2733H44.9243C45.1295 47.2733 45.3285 47.1911 45.4663 47.0419L50.0352 42.1568L50.1086 42.0806H52.7085L52.7483 42.2725C53.1433 44.1516 54.7816 45.4977 56.7016 45.5526L56.7077 45.5465H56.8088C59.0932 45.5465 60.9489 43.707 60.9489 41.438L60.9519 41.4319ZM58.986 41.4258C58.986 40.235 58.0091 39.2635 56.8118 39.2635C55.6145 39.2635 54.6376 40.235 54.6376 41.4258C54.6376 42.6166 55.6145 43.5882 56.8118 43.5882C58.0091 43.5882 58.986 42.6166 58.986 41.4258ZM61.4357 41.4319C61.4357 43.9354 59.4147 45.9668 56.9129 46.0216L56.9006 46.0338H56.7996C54.6744 46.0246 52.834 44.5932 52.3165 42.5588H50.3169L45.8185 47.3616C45.5827 47.6175 45.255 47.7515 44.9182 47.7515H39.0847C38.7846 47.7515 38.4998 47.6357 38.2824 47.45L34.4669 44.1425H30.1155C29.4388 44.1425 28.8906 43.5973 28.8906 42.9242C28.8906 42.2512 29.4388 41.706 30.1155 41.706H34.9324C35.1957 41.706 35.4468 41.7943 35.6489 41.9405L35.7347 42.0075L39.5502 45.315H44.3884L48.8868 40.5091C49.1226 40.2563 49.4503 40.1193 49.7871 40.1193H52.3747C52.9565 38.1793 54.7601 36.8301 56.8149 36.8301C59.3657 36.8301 61.4327 38.895 61.4327 41.4319H61.4357ZM59.4698 41.4258C59.4698 42.8816 58.2756 44.0724 56.8088 44.0724C55.345 44.0724 54.1508 42.8847 54.1508 41.4258C54.1508 39.9701 55.345 38.7823 56.8088 38.7823C58.2725 38.7823 59.4668 39.9701 59.4698 41.4258Z" fill="#0023EC"/>
<path d="M62.3289 47.9102C60.9723 47.9102 59.778 48.7873 59.3616 50.0695H54.0701C53.6291 50.0695 53.2464 50.3557 53.13 50.7791L51.0936 57.8631C51.0354 58.0641 51.0416 58.2773 51.1181 58.4783L55.2827 69.5245C55.4787 70.0301 56.0452 70.2737 56.5535 70.0819C57.0527 69.8869 57.3007 69.3387 57.12 68.8423L56.6791 67.6789L53.0657 58.1006L54.8111 52.0278H59.38C59.6678 52.847 60.2772 53.5049 61.0764 53.849C62.6535 54.5312 64.4846 53.8155 65.1706 52.2562C65.8565 50.6877 65.1369 48.8665 63.569 48.1843C63.1801 48.0168 62.7453 47.9223 62.3227 47.9223V47.9132L62.3289 47.9102ZM62.3289 52.1526C61.6919 52.1526 61.1836 51.6379 61.1836 51.0136C61.1836 50.3892 61.7011 49.8745 62.3289 49.8745C62.9566 49.8745 63.4741 50.3892 63.4741 51.0136C63.4741 51.6379 62.9566 52.1526 62.3289 52.1526Z" fill="#0023EC"/>
<path d="M62.5733 47.6694V47.6908C62.953 47.7182 63.3297 47.8126 63.6726 47.9618C65.363 48.6988 66.1408 50.6632 65.3997 52.3535C64.6587 54.0347 62.6836 54.8082 60.984 54.0712C60.1787 53.721 59.5509 53.0753 59.2171 52.2713H54.9974L53.3224 58.0913L56.9052 67.5965L57.3461 68.76V68.766C57.5697 69.3843 57.2635 70.0695 56.6388 70.3101C56.008 70.5507 55.2975 70.2492 55.0525 69.6158L50.8879 58.5665C50.793 58.3167 50.7838 58.0518 50.8573 57.799L52.8906 50.718C53.0407 50.1912 53.5153 49.8348 54.0665 49.8348H59.1896C59.6826 48.5466 60.9228 47.6755 62.3253 47.6755H62.5672L62.5733 47.6694ZM62.1232 48.1598C60.9595 48.245 59.9582 49.0278 59.5969 50.1424L59.5417 50.3099H54.0757C53.7419 50.3099 53.4571 50.5262 53.3683 50.8429L51.335 57.9269C51.2922 58.0792 51.2952 58.2375 51.3565 58.3929L55.518 69.4391C55.665 69.8168 56.0906 70.0025 56.4765 69.8564L56.5438 69.8259C56.8715 69.6584 57.0277 69.2777 56.9052 68.9275L56.4642 67.7641L52.8539 58.1827L52.8263 58.1096L52.8478 58.0335L54.6453 51.787H59.5693L59.6275 51.9485C59.8939 52.7037 60.4573 53.3098 61.1923 53.6296C62.6468 54.26 64.3341 53.5991 64.968 52.1616C65.6018 50.715 64.9373 49.0369 63.492 48.4065C63.1306 48.2511 62.7326 48.1659 62.3437 48.1659H62.1354L62.1232 48.1598ZM63.2348 51.0135C63.2348 50.5231 62.8244 50.1181 62.3314 50.1181C61.8384 50.1181 61.4311 50.5231 61.4311 51.0135C61.4311 51.5038 61.8323 51.9089 62.3314 51.9089C62.8244 51.9089 63.2348 51.5099 63.2348 51.0135ZM63.7186 51.0135C63.7186 51.7809 63.0908 52.3931 62.3314 52.3931C61.5597 52.3931 60.9442 51.7688 60.9442 51.0135C60.9442 50.2551 61.5689 49.6338 62.3314 49.6338C63.0939 49.6338 63.7186 50.2551 63.7186 51.0135Z" fill="#0023EC"/>
<path d="M43.084 34.8143C43.6261 36.0447 45.0684 36.602 46.3055 36.063C47.5426 35.5239 48.103 34.0894 47.561 32.859C47.019 31.6286 45.5767 31.0713 44.3396 31.6104C43.7792 31.854 43.329 32.3017 43.084 32.859H35.7837C35.2417 32.859 34.8008 33.2976 34.8008 33.8367C34.8008 34.3757 35.2417 34.8143 35.7837 34.8143H43.084ZM45.3225 33.3646C45.5859 33.3646 45.7972 33.5747 45.7972 33.8367C45.7972 34.0986 45.5859 34.3087 45.3225 34.3087C45.0592 34.3087 44.8479 34.0986 44.8479 33.8367C44.8479 33.5747 45.0592 33.3646 45.3225 33.3646Z" fill="#0023EC"/>
<path d="M44.4977 31.2901C45.796 30.8729 47.223 31.4911 47.7804 32.7581C48.3775 34.1103 47.762 35.6879 46.3993 36.2787C45.0887 36.8513 43.5729 36.3031 42.9298 35.0514H35.7796C35.1028 35.0514 34.5547 34.5032 34.5547 33.8301C34.5547 33.157 35.1028 32.6119 35.7796 32.6119H42.9298C43.2115 32.0667 43.6709 31.6312 44.2374 31.3845L44.4946 31.2871L44.4977 31.2901ZM45.5541 33.8362C45.5541 33.7083 45.45 33.6047 45.3214 33.6047C45.1928 33.6047 45.0887 33.7083 45.0887 33.8362C45.0887 33.9641 45.1928 34.0676 45.3214 34.0676C45.45 34.0676 45.5541 33.9641 45.5541 33.8362ZM35.0416 33.8362C35.0416 34.2412 35.3723 34.5732 35.7826 34.5732H43.2422L43.3065 34.7164C43.7964 35.8249 45.0948 36.3275 46.2094 35.8402C47.3241 35.3529 47.8293 34.0616 47.3394 32.953C46.8494 31.8444 45.5511 31.3419 44.4364 31.8292C43.9312 32.0484 43.527 32.4535 43.3065 32.953L43.2422 33.0961H35.7826C35.3754 33.0961 35.0416 33.425 35.0416 33.8331V33.8362ZM46.038 33.8362C46.038 34.2321 45.7164 34.5488 45.3214 34.5488C44.9233 34.5488 44.6048 34.2291 44.6048 33.8362C44.6048 33.4403 44.9264 33.1235 45.3214 33.1235C45.7195 33.1235 46.038 33.4433 46.038 33.8362Z" fill="#0023EC"/>
<path d="M44.9257 10.797C44.7389 10.6112 44.4939 10.5107 44.2306 10.5107H33.9048C33.3628 10.5107 32.9219 10.9493 32.9219 11.4884C32.9219 12.0274 33.3628 12.466 33.9048 12.466H43.8264L51.2706 19.8698C51.4574 20.0555 51.7024 20.156 51.9657 20.156H56.5958C57.147 21.5905 58.7669 22.3062 60.2153 21.758C61.6637 21.2098 62.3772 19.5987 61.826 18.1582C61.2748 16.7237 59.6549 16.008 58.2065 16.5562C57.4532 16.8425 56.8591 17.4424 56.5774 18.2008H52.373L44.9288 10.797H44.9257ZM59.1956 18.3287C59.6549 18.3287 60.0255 18.7003 60.0255 19.154C60.0255 19.6078 59.6519 19.9794 59.1956 19.9794C58.7393 19.9794 58.3657 19.6078 58.3657 19.154C58.3657 18.7003 58.7393 18.3287 59.1956 18.3287Z" fill="#0023EC"/>
<path d="M44.2295 10.2695L44.352 10.2756C44.6337 10.303 44.894 10.4249 45.0961 10.6289L52.4699 17.9626H56.4109C56.7355 17.2134 57.348 16.6256 58.1166 16.3332C59.6906 15.7394 61.4513 16.516 62.0485 18.0753C62.6456 19.6407 61.8739 21.3919 60.2969 21.9889C58.775 22.5645 57.0816 21.8579 56.4293 20.4021H51.9615C51.6339 20.4021 51.3277 20.2742 51.0949 20.0458L43.7212 12.7121H33.9007C33.2239 12.7121 32.6758 12.1639 32.6758 11.4908C32.6758 10.8177 33.2239 10.2726 33.9007 10.2726H44.2295V10.2695ZM59.7824 19.1534C59.7824 18.8306 59.5191 18.5687 59.1945 18.5687C58.8699 18.5687 58.6065 18.8337 58.6065 19.1534C58.6065 19.4763 58.8729 19.7382 59.1945 19.7382C59.5191 19.7382 59.7824 19.4763 59.7824 19.1534ZM60.2662 19.1534C60.2662 19.7412 59.7855 20.2194 59.1914 20.2224C58.6004 20.2224 58.1166 19.7443 58.1166 19.1534C58.1166 18.5656 58.6004 18.0844 59.1914 18.0844C59.7824 18.0844 60.2662 18.5656 60.2662 19.1534ZM33.1596 11.4878C33.1596 11.8928 33.4903 12.2248 33.9007 12.2248H43.9233L51.4379 19.6986C51.5788 19.8387 51.7625 19.9148 51.9615 19.9148H56.757L56.8182 20.0702C57.3204 21.3797 58.7995 22.0345 60.1254 21.5351C61.4483 21.0356 62.1005 19.5646 61.5952 18.2459C61.093 16.9393 59.614 16.2815 58.2881 16.784C57.5991 17.0459 57.0571 17.5911 56.7998 18.2855L56.7417 18.4438H52.2678L44.7531 10.97C44.6459 10.8634 44.5173 10.7964 44.3734 10.769L44.2295 10.7538H33.9007C33.4934 10.7538 33.1596 11.0857 33.1596 11.4908V11.4878Z" fill="#0023EC"/>
<path d="M63.6368 25.6468C61.8209 25.6468 60.2438 26.8772 59.8029 28.6315H52.3678L44.9236 21.2277C44.7368 21.0419 44.4919 20.9414 44.2285 20.9414H33.9027C33.7251 20.9414 33.5475 20.9932 33.3852 21.0845L26.2962 25.4032H20.2759C19.7339 25.4032 19.293 25.8417 19.293 26.3808C19.293 26.9198 19.7339 27.3584 20.2759 27.3584H26.5749C26.7525 27.3584 26.9301 27.3066 27.0924 27.2153L34.1814 22.8967H43.8212L51.2655 30.3004C51.4522 30.4862 51.6972 30.5867 51.9606 30.5867H59.8213C60.3816 32.6851 62.5436 33.9338 64.6534 33.3764C66.7633 32.8191 68.0188 30.6689 67.4614 28.5705C67.0021 26.8498 65.4343 25.6529 63.6368 25.6529V25.6438V25.6468ZM63.6368 31.5582C62.5436 31.5582 61.6524 30.672 61.6524 29.5847C61.6524 28.4974 62.5436 27.6112 63.6368 27.6112C64.73 27.6112 65.6211 28.4974 65.6211 29.5847C65.6211 30.672 64.73 31.5582 63.6368 31.5582Z" fill="#0023EC"/>
<path d="M44.2313 20.7003L44.3538 20.7064C44.6355 20.7338 44.8958 20.8556 45.0979 21.0566L52.4717 28.3904H59.6219C60.1517 26.627 61.7777 25.4057 63.6396 25.4057H63.8815V25.4209C65.6851 25.5245 67.2315 26.761 67.697 28.5091C68.291 30.7385 66.959 33.0196 64.7174 33.6104C62.5372 34.1861 60.3079 32.9465 59.6403 30.8268H51.9634C51.6357 30.8268 51.3295 30.6989 51.0968 30.4705L43.723 23.1368H34.2516L27.2207 27.4188H27.2146C27.0186 27.5346 26.8012 27.5985 26.5746 27.5985H20.2757C19.5989 27.5985 19.0508 27.0534 19.0508 26.3803C19.0508 25.7072 19.5989 25.159 20.2757 25.159H26.2286L33.2564 20.877H33.2625C33.4585 20.7612 33.6759 20.6973 33.8994 20.6973H44.2282L44.2313 20.7003ZM65.3789 29.5842C65.3789 28.631 64.598 27.8513 63.6365 27.8513C62.678 27.8513 61.8941 28.6279 61.8941 29.5842C61.8941 30.5375 62.675 31.3141 63.6365 31.3141C64.595 31.3141 65.3758 30.5375 65.3789 29.5842ZM65.8658 29.5842C65.8658 30.8055 64.8675 31.7983 63.6396 31.7983C62.4116 31.7983 61.4133 30.8055 61.4133 29.5842C61.4133 28.3629 62.4116 27.3701 63.6396 27.3701C64.8675 27.3701 65.8658 28.3629 65.8658 29.5842ZM19.5377 26.3803C19.5377 26.7853 19.8715 27.1173 20.2787 27.1173H26.5777C26.6757 27.1173 26.7767 27.096 26.8778 27.0564L26.9758 27.0077L34.0586 22.6921L34.1168 22.6586H43.9281L51.4428 30.1324C51.5836 30.2725 51.7674 30.3487 51.9664 30.3487H60.0139L60.0598 30.5283C60.5865 32.4988 62.6137 33.6714 64.595 33.1475C66.5762 32.6237 67.7552 30.6075 67.2285 28.637C66.7997 27.0229 65.3268 25.8991 63.6396 25.8991H63.4344C61.8175 25.9874 60.4395 27.1112 60.0415 28.6919L59.9955 28.8746H52.2696L44.7549 21.4008C44.6508 21.2972 44.5191 21.2272 44.3783 21.1998L44.2313 21.1846H33.9025C33.7708 21.1846 33.633 21.2211 33.5075 21.2972L26.4246 25.6128L26.3664 25.6463H20.2787C19.8715 25.6463 19.5377 25.9783 19.5377 26.3833V26.3803Z" fill="#0023EC"/>
</svg>
