<svg width="67" height="64" viewBox="0 0 67 64" fill="none" xmlns="http://www.w3.org/2000/svg">
<path fill-rule="evenodd" clip-rule="evenodd" d="M58.5065 32.4017C58.9658 33.9763 60.4418 35.1245 62.1995 35.1245C64.3216 35.1245 66.0365 33.4342 66.0365 31.3602C66.0365 29.2861 64.3124 27.5989 62.1995 27.5989C60.451 27.5989 58.975 28.7471 58.5065 30.3216H51.4267V21.7057L62.1995 21.6479C62.7844 21.6479 63.259 21.1819 63.259 20.6063V12.8218C64.8636 12.3711 66.0334 10.9153 66.0334 9.20064C66.0334 7.12053 64.3094 5.43633 62.1965 5.43633C60.0835 5.43633 58.3595 7.12662 58.3595 9.20064C58.3595 10.9153 59.5323 12.365 61.1339 12.8218V19.5647C61.1339 19.5647 54.1551 19.5982 51.4328 19.6134V18.1485C51.4328 15.977 49.6322 14.2015 47.4091 14.2015H44.9991L45.0512 4.80285H50.4498C50.9092 6.37741 52.3852 7.52559 54.1429 7.52559C56.265 7.52559 57.9798 5.8353 57.9798 3.76127C57.9798 1.68724 56.2558 0 54.1429 0C52.3943 0 50.9184 1.14818 50.4498 2.72273H43.9886C43.4037 2.72273 42.9291 3.1887 42.9291 3.76432L42.8709 14.2106H34.0854V7.38549C35.69 6.93475 36.8598 5.4881 36.8598 3.76432C36.8598 1.6842 35.1357 0.00304621 33.0228 0.00304621C30.9099 0.00304621 29.1859 1.69333 29.1859 3.76432C29.1859 5.47897 30.3587 6.92866 31.9602 7.38549V14.2106H23.1748L23.1166 3.76432C23.1166 3.1887 22.642 2.72273 22.0571 2.72273H15.5958C15.1365 1.14818 13.6605 0 11.9028 0C9.78069 0 8.06585 1.69029 8.06585 3.76127C8.06585 5.83225 9.78987 7.52559 11.9028 7.52559C13.6513 7.52559 15.1273 6.37741 15.5958 4.80285H20.9945L21.0465 14.2015H18.6366C16.4226 14.2015 14.6128 15.9648 14.6128 18.1485V19.6317L4.91178 19.5647V12.8218C6.51637 12.3711 7.68614 10.9153 7.68614 9.20064C7.68614 7.12053 5.96211 5.43633 3.84919 5.43633C1.73627 5.43633 0.00306286 7.11748 0.00306286 9.20064C0.00306286 10.9153 1.17589 12.365 2.77742 12.8127V20.5971C2.77742 21.1728 3.25206 21.6387 3.84001 21.6387L14.619 21.7149V30.3308H7.53915C7.07982 28.7501 5.60384 27.5928 3.84613 27.5928C1.72402 27.5928 0.00918858 29.2831 0.00918858 31.3541C0.00918858 33.4251 1.73321 35.1184 3.84613 35.1184C5.59465 35.1184 7.07063 33.9702 7.52996 32.4048H14.6098V41.0298L3.83695 41.0725C3.25206 41.0725 2.77436 41.5384 2.77436 42.114V49.8985C1.16976 50.3492 0 51.7959 0 53.5197C0 55.5998 1.72402 57.2809 3.83695 57.2809C5.94987 57.2809 7.67389 55.5907 7.67389 53.5197C7.67389 51.805 6.50106 50.3553 4.89953 49.8985V43.1556L14.6006 43.1221V44.5718C14.6006 46.7433 16.4012 48.5189 18.6243 48.5189H21.0343L20.9822 58.9316H15.5836C15.1242 57.3571 13.6483 56.2089 11.8905 56.2089C9.76844 56.2089 8.0536 57.8992 8.0536 59.9702C8.0536 62.0412 9.77763 63.7345 11.8905 63.7345C13.6391 63.7345 15.115 62.5863 15.5836 61.0118H22.0448C22.6297 61.0118 23.1074 60.5458 23.1074 59.9702L23.1656 48.5067H31.9419V56.349C30.3373 56.7997 29.1675 58.2464 29.1675 59.9702C29.1675 62.0503 30.8915 63.7345 33.0045 63.7345C35.1174 63.7345 36.8414 62.0442 36.8414 59.9702C36.8414 58.2555 35.6686 56.8058 34.067 56.349V48.5067H42.8433L42.9015 59.9702C42.9015 60.5458 43.3761 61.0118 43.9641 61.0118H50.5417C51.1021 62.4005 52.4954 63.3843 54.1061 63.3843C56.2282 63.3843 57.9431 61.694 57.9431 59.623C57.9431 57.552 56.219 55.8587 54.1061 55.8587C52.229 55.8587 50.6673 57.1835 50.3365 58.9225H45.0236C45.0236 58.9225 44.9807 51.3391 44.9716 48.5097H47.3815C49.5985 48.5097 51.4053 46.7463 51.4053 44.5627V43.0978L61.1063 43.1465V49.8894C59.5017 50.3401 58.332 51.7868 58.332 53.5105C58.332 55.5907 60.056 57.2718 62.1689 57.2718C64.2818 57.2718 66.0058 55.5815 66.0058 53.5105C66.0058 51.7959 64.833 50.3462 63.2315 49.8894V42.1049C63.2315 41.5293 62.7568 41.0633 62.172 41.0633L51.3991 41.0055V32.3896H58.4789L58.5034 32.4048L58.5065 32.4017ZM62.1903 29.679C63.1335 29.679 63.896 30.4282 63.896 31.351C63.896 32.2738 63.1335 33.023 62.1903 33.023C61.2472 33.023 60.4847 32.2738 60.4847 31.351C60.4847 30.4282 61.2472 29.679 62.1903 29.679ZM60.4847 9.20064C60.4847 8.27784 61.2472 7.52863 62.1903 7.52863C63.1335 7.52863 63.896 8.27784 63.896 9.20064C63.896 10.1235 63.1335 10.8727 62.1903 10.8727C61.2472 10.8727 60.4847 10.1235 60.4847 9.20064ZM54.1337 2.08316C55.0768 2.08316 55.8393 2.83237 55.8393 3.75518C55.8393 4.67799 55.0738 5.42719 54.1337 5.42719C53.1936 5.42719 52.428 4.67799 52.428 3.75518C52.428 2.83237 53.1936 2.08316 54.1337 2.08316ZM11.8967 5.43938C10.9535 5.43938 10.191 4.69017 10.191 3.76736C10.191 2.84455 10.9566 2.09535 11.8967 2.09535C12.8368 2.09535 13.6023 2.84455 13.6023 3.76736C13.6023 4.69017 12.8368 5.43938 11.8967 5.43938ZM2.13436 9.20064C2.13436 8.27784 2.89685 7.52863 3.84001 7.52863C4.78317 7.52863 5.54565 8.27784 5.54565 9.20064C5.54565 10.1235 4.78317 10.8727 3.84001 10.8727C2.89685 10.8727 2.13436 10.1235 2.13436 9.20064ZM3.84001 33.0352C2.89685 33.0352 2.13436 32.286 2.13436 31.3632C2.13436 30.4404 2.89685 29.6912 3.84001 29.6912C4.78317 29.6912 5.54565 30.4404 5.54565 31.3632C5.54565 32.286 4.78317 33.0352 3.84001 33.0352ZM5.55484 53.5136C5.55484 54.4364 4.78929 55.1856 3.84919 55.1856C2.9091 55.1856 2.14354 54.4364 2.14354 53.5136C2.14354 52.5908 2.9091 51.8416 3.84919 51.8416C4.78929 51.8416 5.55484 52.5908 5.55484 53.5136ZM11.8967 61.6483C10.9535 61.6483 10.191 60.8991 10.191 59.9763C10.191 59.0535 10.9566 58.3043 11.8967 58.3043C12.8368 58.3043 13.6023 59.0535 13.6023 59.9763C13.6023 60.8991 12.8368 61.6483 11.8967 61.6483ZM54.1337 57.9418C55.0768 57.9418 55.8393 58.691 55.8393 59.6138C55.8393 60.5367 55.0738 61.2859 54.1337 61.2859C53.1936 61.2859 52.428 60.5367 52.428 59.6138C52.428 58.691 53.1936 57.9418 54.1337 57.9418ZM31.308 3.75822C31.308 2.83542 32.0735 2.08621 33.0136 2.08621C33.9537 2.08621 34.7193 2.83542 34.7193 3.75822C34.7193 4.68103 33.9537 5.43024 33.0136 5.43024C32.0735 5.43024 31.308 4.68103 31.308 3.75822ZM34.7224 59.9671C34.7224 60.8899 33.9568 61.6391 33.0167 61.6391C32.0766 61.6391 31.3111 60.8899 31.3111 59.9671C31.3111 59.0443 32.0766 58.2951 33.0167 58.2951C33.9568 58.2951 34.7224 59.0443 34.7224 59.9671ZM49.2954 44.5657C49.2954 45.589 48.4472 46.4235 47.403 46.4235H18.6366C17.5924 46.4235 16.7441 45.5921 16.7441 44.5657V18.1424C16.7441 17.1191 17.5924 16.2846 18.6366 16.2846H47.403C48.4472 16.2846 49.2954 17.1161 49.2954 18.1424V44.5657ZM63.896 53.5136C63.896 54.4364 63.1335 55.1856 62.1903 55.1856C61.2472 55.1856 60.4847 54.4364 60.4847 53.5136C60.4847 52.5908 61.2472 51.8416 62.1903 51.8416C63.1335 51.8416 63.896 52.5908 63.896 53.5136Z" fill="#0023EC"/>
<path fill-rule="evenodd" clip-rule="evenodd" d="M38.8154 35.1088C38.5613 33.0348 37.0332 31.6369 34.2926 30.9547L34.1303 30.9121V25.9935L34.4181 26.1031C35.3092 26.4351 35.9707 27.0533 36.3289 27.9C36.4484 28.165 36.6597 28.3751 36.9414 28.4908C37.2139 28.6005 37.5171 28.6005 37.7896 28.4908C38.0621 28.3751 38.2734 28.165 38.3837 27.9C38.4939 27.635 38.4939 27.3335 38.3837 27.0686C37.6702 25.3965 36.2799 24.2545 34.4702 23.8464L34.1395 23.7702V22.7378C34.1395 22.1378 33.6373 21.6475 33.0279 21.6475C32.4185 21.6475 31.9163 22.1378 31.9163 22.7378V23.7854L31.5948 23.8616C31.3161 23.9286 31.0436 24.0108 30.7894 24.1113C28.753 24.894 27.5986 26.5508 27.6905 28.5304C27.8191 31.0765 29.9749 32.1851 31.7663 32.6602L31.9194 32.7029V37.7463L31.6468 37.6641C30.8078 37.4143 29.7268 36.8326 29.39 35.4926C29.3226 35.2093 29.1358 34.9779 28.8817 34.8195C28.704 34.719 28.5081 34.6611 28.3121 34.6611C28.2202 34.6611 28.1345 34.6703 28.0395 34.6947C27.4455 34.8347 27.0811 35.4347 27.2342 36.0103C27.7364 37.9747 29.3655 39.4305 31.5886 39.8995L31.9285 39.9665V40.999C31.9285 41.5989 32.4308 42.0893 33.0401 42.0893C33.6495 42.0893 34.1517 41.5989 34.1517 40.999V39.9757L34.5008 39.9087C36.724 39.4914 39.1952 37.9869 38.8461 35.1058L38.8216 35.1149L38.8154 35.1088ZM31.9041 30.4461L31.6162 30.3365C31.4815 30.2877 31.3437 30.2268 31.2273 30.1689C30.3699 29.7608 29.9381 29.1852 29.9044 28.4117C29.8524 27.4036 30.4893 26.5478 31.5948 26.1214L31.8918 26.0057L31.9163 26.3133V30.4491L31.9071 30.44L31.9041 30.4461ZM35.7686 37.1402C35.3858 37.3991 34.9203 37.591 34.3936 37.7158L34.1303 37.7737V33.1536L34.4089 33.245C34.6141 33.312 34.8162 33.3851 35.0122 33.4795C35.9798 33.9119 36.5065 34.5271 36.6076 35.3769C36.6933 36.0926 36.4024 36.7078 35.7594 37.1402H35.7686Z" fill="#0023EC"/>
</svg>
