<svg width="67" height="75" viewBox="0 0 67 75" fill="none" xmlns="http://www.w3.org/2000/svg">
<path d="M32.5234 41.484C32.3255 41.5692 32.0849 41.8251 31.9844 42.0352C31.8565 42.3245 31.8047 46.1498 31.8047 55.1738V67.9134L32.2006 68.3458C32.7397 68.9763 33.6503 68.9763 34.1894 68.3458L34.5853 67.9134V55.1738C34.5853 46.1863 34.5335 42.3246 34.4056 42.0535C34.098 41.3896 33.2483 41.1337 32.5356 41.4931L32.5265 41.484H32.5234Z" fill="#0023EC"/>
<path d="M66.454 62.9403C66.4023 58.0917 66.4023 57.9821 66.0155 57.2938C65.0196 55.439 62.7902 53.7731 58.2798 51.5103L55.4322 50.091L55.3804 44.4446V41.2315C55.3804 39.2153 54.0952 37.4123 52.1795 36.7332L47.1086 34.9393C47.0904 22.6931 46.9959 21.2648 46.5239 18.9441C45.8386 15.5269 44.0783 11.4185 42.1931 8.84193C41.1637 7.45619 34.5579 0.557995 33.8726 0.192527C33.3671 -0.0785275 32.9468 -0.0724365 32.3712 0.268667C31.4879 0.819913 25.3877 7.16382 24.2639 8.72924C22.2751 11.4916 20.5331 15.5056 19.8539 18.9501C19.3818 21.347 19.2874 22.5713 19.2691 34.9211L14.1069 36.7484C12.1943 37.4276 10.906 39.2305 10.906 41.2467V50.1337L8.10106 51.5377C3.59059 53.8005 1.35819 55.4573 0.365336 57.3212C-0.0305873 58.0186 -0.0305881 58.1283 -0.073226 62.9677L-0.125 67.9258L0.286151 68.3766L0.682072 68.8456L9.14874 68.9309C17.4875 69.0161 17.6306 69.0161 18.0083 69.3481C19.1839 70.3927 22.2721 72.0769 24.4923 72.8688C26.4658 73.5754 28.8231 74.0779 31.1042 74.288C36.8847 74.7905 43.1555 73.1216 47.5289 69.9603L48.8324 69.007L57.2656 68.9217L65.714 68.8365L66.1099 68.3674L66.5119 67.9167L66.4601 62.9585L66.4419 62.9403H66.454ZM31.0098 5.52226L33.1874 3.36296L35.3406 5.4979C37.1679 7.31001 37.4603 7.66634 37.1923 7.76075C35.837 8.24499 31.6585 8.32113 29.7032 7.88866L28.82 7.69375L30.9976 5.53444L31.0067 5.52531L31.0098 5.52226ZM63.7161 66.1533H47.8913L47.1269 66.7838C43.4296 69.8537 38.4623 71.5287 33.1874 71.547C27.8942 71.547 22.9634 69.8537 19.2478 66.7838L18.4834 66.1533H2.65864V62.523C2.65864 58.3567 2.65864 58.3902 3.98042 57.2085C5.07073 56.24 6.80975 55.2106 10.4918 53.3985C12.1029 52.5914 13.58 51.8179 13.6836 51.6382C13.7262 51.5529 13.6836 41.2223 13.6836 41.2223C13.6836 40.3635 14.2318 39.5991 15.0389 39.3097L19.2752 37.8144V42.5502C19.2752 64.0549 19.2235 62.858 20.2529 63.2326C20.8193 63.4275 21.3249 63.2844 21.7543 62.8154C22.0132 62.5261 22.0467 61.1068 22.0985 42.0233C22.1685 19.6324 22.0985 20.9419 23.1096 17.4913C23.8375 14.9757 25.3572 11.8113 26.5145 10.4073L26.8587 9.9901L28.4881 10.4226C29.9713 10.8124 30.3763 10.855 33.1295 10.855C36.1568 10.8733 36.6106 10.8033 39.2724 10.048C39.5465 9.96269 39.7262 10.115 40.2683 10.9068C41.8459 13.2275 43.186 16.5106 43.9138 19.9278L44.2915 21.6881L44.3433 42.1238L44.395 62.5596L44.7544 62.9007C45.1747 63.2753 45.5859 63.3697 46.2041 63.2083C47.2 62.9524 47.1482 64.0001 47.1482 42.6477V37.8692L51.2841 39.3311C52.1003 39.6204 52.6394 40.3848 52.6394 41.2437C52.6394 41.2437 52.5967 51.5681 52.6394 51.6595C52.7338 51.8392 54.3023 52.6127 55.9164 53.4198C59.5954 55.2319 61.3375 56.2613 62.4278 57.2298C63.7496 58.4115 63.7496 58.378 63.7496 62.5443V66.1746L63.7252 66.1564L63.7161 66.1533Z" fill="#0023EC"/>
</svg>
