<svg width="58" height="67" viewBox="0 0 58 67" fill="none" xmlns="http://www.w3.org/2000/svg">
<path d="M57.3587 14.7494L57.2764 10.5309C57.2764 10.0184 56.9338 9.55241 56.4459 9.39069L29.2195 0.0740084C29.0879 0.0246702 28.9509 0 28.8193 0C28.6877 0 28.5507 0.0246706 28.4191 0.0657857L1.19271 9.38247C0.704807 9.55241 0.370405 10.0102 0.362182 10.5227L0.288176 14.7494C0.0771181 27.7472 1.12692 37.0666 3.50612 43.2476C5.29873 47.9238 7.96025 52.1339 11.4221 55.7576C15.5583 59.9677 20.3989 63.3008 25.8069 65.669L28.2985 66.8093C28.6247 66.9573 29.0002 66.9573 29.3154 66.8093L31.807 65.669C37.215 63.2981 42.0611 59.9595 46.1973 55.7493C49.6592 52.1257 52.3234 47.9128 54.1215 43.2394C56.5007 37.0666 57.5505 27.739 57.3395 14.7411L57.3559 14.7494H57.3587ZM51.8438 42.3595C50.1663 46.7424 47.6747 50.6757 44.4321 54.0636C40.507 58.0381 35.9213 61.1902 30.8065 63.4214L28.8193 64.3424L26.8321 63.4379C21.7174 61.1985 17.1317 58.0545 13.2065 54.0801C9.96393 50.684 7.47235 46.7424 5.79486 42.3595C3.52256 36.4307 2.52758 27.421 2.74138 14.8234L2.79071 11.4601L28.8138 2.51624L54.8123 11.4355L54.8616 14.7987C55.1056 27.3991 54.1133 36.4143 51.841 42.3677L51.8492 42.3595H51.8438Z" fill="#0023EC"/>
<path d="M50.1179 15.5471C50.1179 15.0263 49.7752 14.5686 49.2873 14.3986L29.2259 7.51598C29.0943 7.47487 28.9655 7.4502 28.8257 7.4502C28.6859 7.4502 28.5571 7.47487 28.4255 7.51598L8.36411 14.3904C7.87621 14.5604 7.54181 15.0181 7.53358 15.5389V15.6705C7.33897 27.032 8.24899 35.6579 10.1814 40.6328C11.5985 44.3469 13.7091 47.6772 16.461 50.5525C19.8489 53.998 23.8069 56.7253 28.2309 58.6659L28.3132 58.6988C28.4831 58.781 28.664 58.8221 28.8257 58.8221C29.0039 58.8221 29.1766 58.781 29.3383 58.707L29.4205 58.6659C33.8582 56.728 37.8244 54.0062 41.2151 50.569C43.9588 47.7019 46.0694 44.3633 47.4865 40.6493C49.4244 35.6086 50.3371 26.9826 50.1343 15.6951L50.1179 15.5252V15.5499V15.5471ZM12.44 39.7941C10.6803 35.1344 9.83329 27.1197 9.98953 16.6134V16.4681L10.1293 16.4188L27.5923 10.4242V55.6426C24.1057 53.9157 20.9618 51.6517 18.218 48.875C15.6936 46.2437 13.7474 43.182 12.4427 39.7776V39.7941H12.44ZM45.1813 39.7941L45.0196 40.2244L45.0031 40.1915C43.7012 43.4259 41.8099 46.3396 39.4005 48.8586C36.665 51.6434 33.5211 53.924 30.0427 55.659V10.4242L47.6592 16.4681V16.6134C47.8209 27.1361 46.9657 35.1508 45.1923 39.7941H45.184H45.1813Z" fill="#0023EC"/>
<path d="M57.097 14.7494L57.0147 10.5309C57.0147 10.0184 56.6721 9.55241 56.1842 9.39069L28.9578 0.0740084C28.8262 0.0246702 28.6892 0 28.5576 0C28.426 0 28.289 0.0246706 28.1574 0.0657857L0.930988 9.38247C0.443089 9.55241 0.108686 10.0102 0.100463 10.5227L0.0264569 14.7494C-0.184601 27.7472 0.865204 37.0666 3.2444 43.2476C5.03702 47.9238 7.69854 52.1339 11.1604 55.7576C15.2966 59.9677 20.1372 63.3008 25.5452 65.669L28.0368 66.8093C28.363 66.9573 28.7385 66.9573 29.0537 66.8093L31.5453 65.669C36.9533 63.2981 41.7994 59.9595 45.9356 55.7493C49.3975 52.1257 52.0617 47.9128 53.8598 43.2394C56.239 37.0666 57.2888 27.739 57.0778 14.7411L57.0942 14.7494H57.097ZM51.5848 42.3595C49.9073 46.7424 47.4157 50.6757 44.1731 54.0636C40.248 58.0381 35.6623 61.1902 30.5476 63.4214L28.5603 64.3424L26.5731 63.4379C21.4584 61.1985 16.8727 58.0545 12.9476 54.0801C9.70495 50.684 7.21338 46.7424 5.53588 42.3595C3.26359 36.4307 2.2686 27.421 2.4824 14.8234L2.53174 11.4601L28.5549 2.51624L54.5533 11.4355L54.6026 14.7987C54.8466 27.3991 53.8543 36.4143 51.582 42.3677L51.5903 42.3595H51.5848Z" fill="#0023EC"/>
<path d="M49.8561 15.5471C49.8561 15.0263 49.5135 14.5686 49.0256 14.3986L28.9642 7.51598C28.8326 7.47487 28.7038 7.4502 28.564 7.4502C28.4242 7.4502 28.2954 7.47487 28.1638 7.51598L8.10239 14.3904C7.61449 14.5604 7.28009 15.0181 7.27187 15.5389V15.6705C7.07725 27.032 7.98727 35.6579 9.91968 40.6328C11.3368 44.3469 13.4474 47.6772 16.1993 50.5525C19.5872 53.998 23.5452 56.7253 27.9692 58.6659L28.0514 58.6988C28.2214 58.781 28.4023 58.8221 28.564 58.8221C28.7422 58.8221 28.9149 58.781 29.0766 58.707L29.1588 58.6659C33.5965 56.728 37.5627 54.0062 40.9534 50.569C43.6971 47.7019 45.8077 44.3633 47.2248 40.6493C49.1627 35.6086 50.0754 26.9826 49.8726 15.6951L49.8561 15.5252V15.5499V15.5471ZM12.1783 39.7941C10.4185 35.1344 9.57157 27.1197 9.72781 16.6134V16.4681L9.8676 16.4188L27.3306 10.4242V55.6426C23.844 53.9157 20.7001 51.6517 17.9563 48.875C15.4318 46.2437 13.4857 43.182 12.181 39.7776V39.7941H12.1783ZM44.9196 39.7941L44.7579 40.2244L44.7414 40.1915C43.4394 43.4259 41.5482 46.3396 39.1388 48.8586C36.4033 51.6434 33.2593 53.924 29.781 55.659V10.4242L47.3975 16.4681V16.6134C47.5592 27.1361 46.704 35.1508 44.9306 39.7941H44.9223H44.9196Z" fill="#0023EC"/>
</svg>
