<svg width="65" height="57" viewBox="0 0 65 57" fill="none" xmlns="http://www.w3.org/2000/svg">
<path d="M61.5463 0.244141H11.1301C9.78089 0.244141 8.6449 1.3375 8.6449 2.72932V8.64685H2.72737C1.32641 8.64685 0.242188 9.74021 0.242188 11.132V54.2816C0.242188 55.6307 1.33555 56.7667 2.72737 56.7667H53.1436C54.4928 56.7667 55.6288 55.6734 55.6288 54.2816V48.364H61.5463C62.8955 48.364 64.0315 47.2707 64.0315 45.8789V2.73846C64.0315 1.3375 62.9381 0.253279 61.5463 0.253279V0.244141ZM11.1331 2.32426H61.5494C61.7595 2.32426 61.9636 2.48263 61.9636 2.73846V9.89858H10.7189V2.73846C10.7189 2.48263 10.9321 2.32426 11.1331 2.32426ZM2.73041 10.727H8.64794V18.3013H2.31622V11.1412C2.31622 10.931 2.47459 10.727 2.73041 10.727ZM53.5578 54.2907C53.5578 54.5008 53.3994 54.7049 53.1436 54.7049H2.73041C2.52027 54.7049 2.31622 54.5465 2.31622 54.2907V20.3723H8.64794V45.888C8.64794 47.2372 9.7413 48.3732 11.1331 48.3732H53.5609V54.2907H53.5578ZM61.5463 46.3022H11.1301C10.9169 46.3022 10.7159 46.1438 10.7159 45.888V11.9696H61.9605V45.888C61.9605 46.0981 61.8022 46.3022 61.5463 46.3022Z" fill="#0023EC"/>
<path d="M19.4814 6.93473H15.6471C15.0745 6.93473 14.6055 6.46876 14.6055 5.89314C14.6055 5.31753 15.0714 4.85156 15.6471 4.85156H19.4814C20.054 4.85156 20.523 5.31753 20.523 5.89314C20.523 6.46876 20.057 6.93473 19.4814 6.93473Z" fill="#0023EC"/>
<path d="M28.2549 6.93473H24.4205C23.8479 6.93473 23.3789 6.46876 23.3789 5.89314C23.3789 5.31753 23.8449 4.85156 24.4205 4.85156H28.2549C28.8274 4.85156 29.2964 5.31753 29.2964 5.89314C29.2964 6.46876 28.8305 6.93473 28.2549 6.93473Z" fill="#0023EC"/>
<path d="M20.418 29.244L30.2765 34.324V32.3474L22.7021 28.5648L30.2765 24.7822V22.8057L20.418 27.84V29.2409V29.244Z" fill="#0023EC"/>
<path d="M32.4492 34.9449H34.3192L40.1301 19.9028H38.2084L32.4523 34.9449H32.4492Z" fill="#0023EC"/>
<path d="M42.2539 22.8057V24.7822L49.88 28.5648L42.2539 32.3474V34.324L52.1124 29.244V27.843L42.2539 22.8087V22.8057Z" fill="#0023EC"/>
<path d="M0 54.2811V11.1315C0 9.60571 1.19386 8.40271 2.72882 8.40271H8.40271V2.72882C8.40271 1.19995 9.65139 0 11.1315 0H61.7884V0.0213189C63.1985 0.140096 64.2766 1.28218 64.2766 2.73796V45.8784C64.2766 47.4072 63.0279 48.6042 61.5478 48.6042H55.8739V54.278C55.8739 55.8069 54.6252 57.0038 53.1481 57.0069H2.72882C1.19995 57.0069 0 55.7582 0 54.278V54.2811ZM8.40271 20.6124H2.55523V54.2902C2.55523 54.3511 2.57655 54.3907 2.607 54.4181C2.63746 54.4486 2.68314 54.4638 2.72882 54.4638H53.1451C53.206 54.4638 53.2456 54.4425 53.273 54.412C53.3004 54.3816 53.3187 54.3359 53.3187 54.2902V48.6163H11.1346C9.60571 48.6163 8.40575 47.3676 8.40575 45.8875V20.6124H8.40271ZM61.7183 12.2097H10.9579V45.8875C10.9579 45.9484 10.9793 45.988 11.0097 46.0124C11.0402 46.0428 11.0859 46.0581 11.1315 46.0581H61.5478C61.6087 46.0581 61.6483 46.0367 61.6727 46.0093C61.7031 45.9789 61.7183 45.9332 61.7183 45.8875V12.2097ZM8.88391 10.4859V18.5414H2.07098V11.1407C2.07098 10.8118 2.32072 10.4859 2.72882 10.4859H8.88695H8.88391ZM61.7183 2.73796C61.7183 2.67705 61.697 2.63746 61.6696 2.61005C61.6391 2.57959 61.5935 2.56436 61.5478 2.56436H11.1315C11.0402 2.56436 10.9579 2.63441 10.9579 2.73796V9.65748H61.7183V2.73796ZM8.88391 45.8875C8.88391 47.1057 9.87371 48.1321 11.1285 48.1321H53.7968V54.2902C53.7968 54.6191 53.5471 54.945 53.142 54.9481H2.72882C2.3999 54.9481 2.07098 54.6983 2.07098 54.2902V20.1312H8.88391V45.8906V45.8875ZM62.2026 45.8875C62.2026 46.2164 61.9528 46.5423 61.5478 46.5423H11.1315C10.8026 46.5423 10.4737 46.2926 10.4737 45.8875V11.7285H62.1995V45.8875H62.2026ZM2.55523 18.0571H8.40271V10.9671H2.72882C2.66791 10.9671 2.62832 10.9884 2.60091 11.0158C2.57045 11.0463 2.55523 11.0919 2.55523 11.1376V18.0571ZM62.2026 10.1387H10.4767V2.73796C10.4767 2.32986 10.8178 2.08316 11.1346 2.08316H61.5508C61.8798 2.08316 62.2056 2.3329 62.2056 2.73796V10.1387H62.2026ZM8.88391 8.88695H2.72578C1.45882 8.88695 0.481197 9.87067 0.481197 11.1315V54.2811C0.481197 55.4993 1.47101 56.5257 2.72578 56.5257H53.142C54.3603 56.5257 55.3866 55.5389 55.3866 54.2811V48.1229H61.5447C62.763 48.1229 63.7893 47.1362 63.7893 45.8784V2.73796C63.7893 1.47101 62.8056 0.49338 61.5447 0.49338H61.3041V0.484243H11.1315C9.91331 0.484243 8.88695 1.47405 8.88695 2.72882V8.88695H8.88391Z" fill="#0023EC"/>
<path d="M20.2808 5.89644C20.2808 5.45788 19.9214 5.0985 19.4798 5.0985H15.6455C15.2069 5.0985 14.8475 5.45788 14.8475 5.89644C14.8475 6.335 15.2069 6.69742 15.6455 6.69742H19.4798C19.9184 6.69742 20.2808 6.33805 20.2808 5.89644ZM20.762 5.89644C20.762 6.60301 20.1864 7.17862 19.4798 7.17862H15.6455C14.9389 7.17862 14.3633 6.60301 14.3633 5.89644C14.3633 5.18987 14.9389 4.61426 15.6455 4.61426H19.4798C20.1864 4.61426 20.762 5.18987 20.762 5.89644Z" fill="#0023EC"/>
<path d="M29.0512 5.89644C29.0512 5.45788 28.6918 5.0985 28.2502 5.0985H24.4159C23.9773 5.0985 23.6179 5.45788 23.6179 5.89644C23.6179 6.335 23.9773 6.69742 24.4159 6.69742H28.2502C28.6888 6.69742 29.0512 6.33805 29.0512 5.89644ZM29.5354 5.89644C29.5354 6.60301 28.9598 7.17862 28.2533 7.17862H24.4189C23.7123 7.17862 23.1367 6.60301 23.1367 5.89644C23.1367 5.18987 23.7123 4.61426 24.4189 4.61426H28.2533C28.9598 4.61426 29.5354 5.18987 29.5354 5.89644Z" fill="#0023EC"/>
<path d="M30.5155 24.9318L30.3815 24.9988L23.2396 28.5651L30.5155 32.1985V34.7172L20.3067 29.4575L20.1758 29.3905V27.6941L20.3067 27.6271L30.1622 22.5928L30.5124 22.4131V24.9318H30.5155ZM20.657 27.9895V29.0981L30.0312 33.9284V32.5L22.1584 28.5682L30.0312 24.6363V23.2049L20.657 27.9926V27.9895Z" fill="#0023EC"/>
<path d="M40.483 19.6621L40.355 19.991L34.4862 35.1884H32.1016L37.9856 19.8174L38.0465 19.6621H40.486H40.483ZM32.802 34.7041H34.1543L39.7794 20.1464H38.3754L32.802 34.7041Z" fill="#0023EC"/>
<path d="M52.2204 27.6271L52.3514 27.6941V29.3905L52.2204 29.4575L42.0117 34.7172V32.1985L42.1457 32.1315L49.3363 28.5651L42.1457 24.9988L42.0117 24.9318V22.4131L52.2204 27.6271ZM42.4929 24.6303L49.985 28.3458L50.4205 28.5621L42.4929 32.4939V33.9223L51.8672 29.092V27.9834L42.4929 23.1958V24.6272V24.6303Z" fill="#0023EC"/>
</svg>
