<svg preserveAspectRatio="none" width="100%" height="100%" overflow="visible" style="display: block;" viewBox="0 0 1440 401.01" fill="none" xmlns="http://www.w3.org/2000/svg">
<g id="Layer_1" clip-path="url(#clip0_0_605)">
<path id="Vector" opacity="0.8" d="M1008.18 60L781.89 80L554.59 134L328.39 147L96.1 164H0V267.01H96.1L328.39 284.01L554.59 297.01L781.89 331.01L1008.18 351.01L1440 401.01V0L1008.18 60Z" fill="url(#paint0_linear_0_605)"/>
<path id="Vector_2" d="M96.1 190H0V243.01H96.1V190Z" fill="url(#paint1_linear_0_605)"/>
<path id="Vector_3" d="M96.1 243.01L328.39 260.01V173L96.1 190V243.01Z" fill="url(#paint2_linear_0_605)"/>
<path id="Vector_4" d="M554.59 163L328.39 173V260.01L554.59 270.01V163Z" fill="url(#paint3_linear_0_605)"/>
<path id="Vector_5" d="M554.59 270.01L781.89 297.01V116L554.59 163V270.01Z" fill="url(#paint4_linear_0_605)"/>
<path id="Vector_6" d="M781.89 297.01L1008.18 307.01V106L781.89 116V297.01Z" fill="url(#paint5_linear_0_605)"/>
<path id="Vector_7" d="M1008.18 307.01L1440 357.01V46L1008.18 106V307.01Z" fill="url(#paint6_linear_0_605)"/>
</g>
<defs>
<linearGradient id="paint0_linear_0_605" x1="-634.31" y1="200.51" x2="1383.92" y2="200.51" gradientUnits="userSpaceOnUse">
<stop stop-color="#23FBC5"/>
<stop offset="1" stop-color="#23FBC5" stop-opacity="0"/>
</linearGradient>
<linearGradient id="paint1_linear_0_605" x1="-32.08" y1="217.28" x2="248.8" y2="214.57" gradientUnits="userSpaceOnUse">
<stop stop-color="#085CF0"/>
<stop offset="1" stop-color="#00158D"/>
</linearGradient>
<linearGradient id="paint2_linear_0_605" x1="11.74" y1="216.51" x2="634.15" y2="216.51" gradientUnits="userSpaceOnUse">
<stop stop-color="#00158D"/>
<stop offset="1" stop-color="#085CF0"/>
</linearGradient>
<linearGradient id="paint3_linear_0_605" x1="259.23" y1="216.51" x2="569.06" y2="216.51" gradientUnits="userSpaceOnUse">
<stop stop-color="#085CF0"/>
<stop offset="1" stop-color="#00158D"/>
</linearGradient>
<linearGradient id="paint4_linear_0_605" x1="472.57" y1="206.51" x2="860.48" y2="206.51" gradientUnits="userSpaceOnUse">
<stop stop-color="#00158D"/>
<stop offset="1" stop-color="#085CF0"/>
</linearGradient>
<linearGradient id="paint5_linear_0_605" x1="781.89" y1="206.51" x2="1008.18" y2="206.51" gradientUnits="userSpaceOnUse">
<stop stop-color="#085CF0"/>
<stop offset="1" stop-color="#00158D"/>
</linearGradient>
<linearGradient id="paint6_linear_0_605" x1="817.97" y1="201.51" x2="1423.18" y2="201.51" gradientUnits="userSpaceOnUse">
<stop stop-color="#00158D"/>
<stop offset="1" stop-color="#085CF0"/>
</linearGradient>
<clipPath id="clip0_0_605">
<rect width="1440" height="401.01" fill="white"/>
</clipPath>
</defs>
</svg>
