<svg preserveAspectRatio="none" width="100%" height="100%" overflow="visible" style="display: block;" viewBox="0 0 292 74" fill="none" xmlns="http://www.w3.org/2000/svg">
<g id="Vector">
<path d="M287.447 0.250924L287.379 0.613205H285.893L285.051 4.86583H284.655L285.497 0.613205H284.011L284.079 0.250924H287.447Z" fill="var(--fill-0, white)"/>
<path d="M289.424 3.32195L291.588 0.256494H292L291.09 4.8714H290.695L291.435 1.10925L289.525 3.84586H289.175L288.35 1.12039L287.61 4.87697H287.215L288.124 0.262067H288.486L289.429 3.32752L289.424 3.32195Z" fill="var(--fill-0, white)"/>
<path d="M81.5173 0L74.4266 45.6084H103.399L115.716 12.2841C115.801 12.0667 116.027 11.9051 116.253 11.9051C116.513 11.9051 116.688 12.1169 116.637 12.3789L110.581 45.6084H138.926L157.718 0H140.412L126.457 34.4111C126.372 34.6341 126.14 34.7957 125.909 34.7957H125.824C125.559 34.7957 125.383 34.5839 125.429 34.3219L131.79 0H107.806L93.6646 34.6675C93.5742 34.8849 93.3482 35.0409 93.1222 35.0409C92.8567 35.0409 92.6815 34.8291 92.7324 34.5616L99.1846 0H81.5173Z" fill="var(--fill-0, white)"/>
<path d="M232.862 0.0390205L219.591 45.6084H280.243L284.344 31.485H243.591L252.705 0.0390205H232.862Z" fill="var(--fill-0, white)"/>
<path d="M65.4092 0.00523887H13.6954L0.265476 45.6081H20.6617L23.9613 34.3662C23.9896 34.2603 24.0913 34.1823 24.1986 34.1823H55.6801C55.6801 34.1823 71.901 33.4689 75.3531 15.2824C78.1499 0.568167 65.4092 0.00523887 65.4092 0.00523887ZM53.9399 18.1917C53.0585 20.672 50.4369 22.4165 47.9057 22.4165H27.7298C27.6112 22.4165 27.5377 22.3162 27.5716 22.1936L30.4022 12.4789C30.4305 12.3785 30.5322 12.3005 30.6395 12.3005H50.0358C53.1602 12.3005 55.0473 15.0761 53.9399 18.1862V18.1917Z" fill="var(--fill-0, white)"/>
<path d="M223.286 15.344C225.998 0.62977 213.251 0.0668407 213.251 0.0668407H161.537L148.113 45.6697H168.628L172.233 32.7334H193.053C194.731 32.7334 196.013 33.8259 196.2 35.4255L197.403 45.6697H217.274L213.935 30.0358C217.873 27.7061 221.811 23.3754 223.291 15.3384L223.286 15.344ZM178.086 12.3621H198.929C201.499 12.3621 203.098 14.5637 202.37 17.1052C201.737 19.3012 199.561 20.9732 197.335 20.9732H175.606L178.092 12.3621H178.086Z" fill="var(--fill-0, white)"/>
<path d="M6.05108 50.942C9.74614 50.942 11.9553 52.8816 11.9553 55.7854C11.9553 59.0459 9.76874 61.058 6.36748 61.058C5.32224 61.058 4.4013 60.8183 3.88716 60.6288V65.3998C3.88716 67.1722 4.07925 68.2534 5.73469 68.2534V68.3984H0V68.2534C1.64978 68.2534 1.75148 67.1722 1.75148 65.3998V53.9461C1.75148 52.1737 1.65543 51.0925 0 51.0925V50.9476H6.05108V50.942ZM9.69529 55.8523C9.69529 53.3107 8.42971 51.321 5.73469 51.321H4.81375C4.2318 51.321 3.89281 51.6108 3.89281 52.1849V59.4249C3.89281 59.9767 4.15835 60.5285 5.76294 60.5285C8.06811 60.5285 9.70094 58.8731 9.70094 55.8579L9.69529 55.8523Z" fill="var(--fill-0, white)"/>
<path d="M12.2155 62.1561C12.2155 58.1765 14.741 55.5403 18.1422 55.5403C21.5435 55.5403 23.9956 58.0316 23.9956 62.0613C23.9956 66.091 21.4701 68.6771 18.0914 68.6771C14.7127 68.6771 12.2098 66.1857 12.2098 62.1561H12.2155ZM21.8599 62.1059C21.8599 58.628 20.5491 55.8747 18.097 55.8747C15.645 55.8747 14.3568 58.4887 14.3568 62.1059C14.3568 65.7231 15.6902 68.3371 18.1479 68.3371C20.6056 68.3371 21.8656 65.7231 21.8656 62.1059H21.8599Z" fill="var(--fill-0, white)"/>
<path d="M37.8659 55.8302H41.2163V55.9751C40.3914 56.12 39.7813 56.9839 38.8603 59.6648L35.6794 68.6271H35.4873L32.4024 59.7818L29.0012 68.6271H28.8091L25.2609 58.6838C24.6055 56.8167 24.1931 56.12 23.3682 55.9751V55.8302H27.7638V55.9751C26.6678 56.0698 26.696 56.8111 27.1085 58.0373L29.7583 65.5839L32.2103 59.1855L32.0182 58.656C31.3629 56.8111 30.9222 56.1144 30.0973 55.9695V55.8246H34.4703V55.9695C33.3516 56.0643 33.4251 56.8055 33.8658 58.0317L36.3913 65.439L38.4535 59.5199C39.3293 57.0062 39.0129 56.0921 37.8716 55.9751V55.8302H37.8659Z" fill="var(--fill-0, white)"/>
<path d="M50.5612 65.5336C49.7137 66.9716 48.2278 68.6715 45.6514 68.6715C42.4196 68.6715 40.4534 65.868 40.4534 62.2954C40.4534 58.3437 43.0524 55.5347 46.1881 55.5347C48.7419 55.5347 50.6855 57.307 50.5386 60.3279H42.5948C42.5439 60.6902 42.5213 61.0469 42.5213 61.4092C42.5213 64.8146 43.883 67.4955 46.6006 67.4955C48.2786 67.4955 49.6402 66.5369 50.4143 65.4333L50.5612 65.528V65.5336ZM42.64 59.9489H48.4481C48.6402 57.4798 47.9114 55.8746 46.0695 55.8746C44.2276 55.8746 43.0072 57.7195 42.6456 59.9489H42.64Z" fill="var(--fill-0, white)"/>
<path d="M58.3863 55.7355L57.9004 57.7978H57.7535C57.2167 57.441 56.5896 57.2237 56.0754 57.2237C55.4201 57.2237 54.7873 57.586 54.1319 58.4944V65.9017C54.1319 67.4344 54.2053 68.2482 55.1997 68.2482V68.3931H51.0922V68.2482C52.0866 68.2482 52.16 67.4344 52.16 65.9017V58.9515C52.16 57.4188 51.7476 56.9116 50.9227 56.6998V56.5549L54.0302 55.5962H54.1262V58.16C55.1206 56.6496 56.1884 55.546 57.4314 55.546C57.7252 55.546 58.036 55.5962 58.3806 55.7355H58.3863Z" fill="var(--fill-0, white)"/>
<path d="M58.4767 68.3873V68.2424C59.471 68.2424 59.5445 67.4287 59.5445 65.8959V52.8092C59.5445 51.2765 59.132 50.7693 58.3072 50.5575V50.4126L61.4146 49.6435H61.5107V65.8904C61.5107 67.4231 61.5841 68.2368 62.5785 68.2368V68.3818H58.471L58.4767 68.3873Z" fill="var(--fill-0, white)"/>
<path d="M73.4267 67.0664C73.0369 67.7854 72.2346 68.6716 71.1442 68.6716C69.9294 68.6716 69.6639 67.4955 69.613 66.6372C68.6186 67.8578 67.1609 68.6716 65.7767 68.6716C64.1269 68.6716 62.9574 67.6404 62.9574 66.1579C62.9574 64.4301 64.2908 63.2596 67.2344 62.418L69.5396 61.7715V59.9266C69.5396 59.2299 69.5396 56.6215 67.0875 56.6215C65.4603 56.6215 64.2682 57.7474 63.5167 59.1854L63.3698 59.1129C63.7597 57.792 65.1665 55.5403 67.9858 55.5403C70.3419 55.5403 71.4831 57.1454 71.4831 59.3972V65.7231C71.4831 66.7041 71.534 67.5178 72.2854 67.5178C72.7939 67.5178 73.1329 67.1555 73.2798 66.966L73.4267 67.0608V67.0664ZM69.5396 62.1338L67.8163 62.6856C65.579 63.4045 64.9236 64.1458 64.9236 65.5392C64.9236 66.81 65.7485 67.6014 66.8898 67.6014C67.8615 67.6014 68.8842 66.9772 69.5396 66.4031V62.1338Z" fill="var(--fill-0, white)"/>
<path d="M86.5798 55.8302H89.9302V55.9751C89.1053 56.12 88.4951 56.9839 87.5742 59.6648L84.3932 68.6271H84.2011L81.1163 59.7818L77.715 68.6271H77.5229L73.9748 58.6838C73.3194 56.8167 72.9069 56.12 72.082 55.9751V55.8302H76.4777V55.9751C75.3816 56.0698 75.4098 56.8111 75.8223 58.0373L78.4721 65.5839L80.9242 59.1855L80.7321 58.656C80.0767 56.8111 79.636 56.1144 78.8111 55.9695V55.8246H83.1842V55.9695C82.0655 56.0643 82.1389 56.8055 82.5796 58.0317L85.1051 65.439L87.1674 59.5199C88.0431 57.0062 87.7267 56.0921 86.5854 55.9751V55.8302H86.5798Z" fill="var(--fill-0, white)"/>
<path d="M95.3254 62.1561C95.3254 58.1765 97.8509 55.5403 101.252 55.5403C104.653 55.5403 107.105 58.0316 107.105 62.0613C107.105 66.091 104.58 68.6771 101.201 68.6771C97.8226 68.6771 95.3197 66.1857 95.3197 62.1561H95.3254ZM104.97 62.1059C104.97 58.628 103.659 55.8747 101.207 55.8747C98.7549 55.8747 97.4667 58.4887 97.4667 62.1059C97.4667 65.7231 98.8001 68.3371 101.258 68.3371C103.716 68.3371 104.975 65.7231 104.975 62.1059H104.97Z" fill="var(--fill-0, white)"/>
<path d="M118.31 65.8961C118.31 67.4289 118.383 68.2426 119.378 68.2426V68.3875H115.27V68.2426C116.265 68.2426 116.338 67.4289 116.338 65.8961V59.8098C116.338 57.9873 115.756 56.8391 114.055 56.8391C112.988 56.8391 111.818 57.3686 110.779 58.1823V65.9017C110.779 67.4344 110.852 68.2482 111.846 68.2482V68.3931H107.739V68.2482C108.733 68.2482 108.807 67.4344 108.807 65.9017V58.9515C108.807 57.4188 108.394 56.9116 107.569 56.6998V56.5549L110.677 55.5962H110.773V57.9427C112.061 56.6273 113.592 55.546 115.219 55.546C117.112 55.546 118.304 56.867 118.304 59.2859V65.9017L118.31 65.8961Z" fill="var(--fill-0, white)"/>
<path d="M120.174 68.3873V68.2424C121.169 68.2424 121.242 67.4287 121.242 65.8959V52.8092C121.242 51.2765 120.83 50.7693 120.005 50.5575V50.4126L123.112 49.6435H123.208V65.8904C123.208 67.4231 123.282 68.2368 124.276 68.2368V68.3818H120.169L120.174 68.3873Z" fill="var(--fill-0, white)"/>
<path d="M132.553 55.8302H135.932V55.9751C135.079 56.12 134.57 57.0508 133.553 59.715L129.423 70.405C128.451 72.8964 127.163 74 125.683 74C125.248 74 124.881 73.9498 124.491 73.8328L124.683 72.105H124.83C126.288 73.3535 128.011 72.9689 128.909 70.5723L129.807 68.2258L126.163 58.6894C125.457 56.8446 125.073 56.1256 124.242 55.9807V55.8358H128.689V55.9807C127.593 56.0754 127.57 56.8446 128.011 58.0429L130.83 65.5672L133.135 59.5756C134.107 57.0564 133.717 56.0977 132.553 55.9807V55.8302Z" fill="var(--fill-0, white)"/>
<path d="M148.735 49.7161L148.514 51.4885H148.367C147.373 50.7695 146.593 50.3403 146.011 50.3403C144.944 50.3403 144.288 51.3212 144.288 53.6008V55.8303H147.52L147.204 56.7165H144.288V65.8961C144.288 67.4288 144.362 68.2426 145.356 68.2426V68.3875H141.248V68.2426C142.243 68.2426 142.316 67.4288 142.316 65.8961V56.7165H141.051V56.4545L142.316 55.8303C142.316 51.9956 144.311 49.599 147.249 49.599C147.661 49.599 148.294 49.6492 148.729 49.7216L148.735 49.7161Z" fill="var(--fill-0, white)"/>
<path d="M155.424 55.7355L154.938 57.7978H154.791C154.254 57.441 153.627 57.2237 153.113 57.2237C152.458 57.2237 151.825 57.586 151.169 58.4944V65.9017C151.169 67.4344 151.243 68.2482 152.237 68.2482V68.3931H148.13V68.2482C149.124 68.2482 149.198 67.4344 149.198 65.9017V58.9515C149.198 57.4188 148.785 56.9116 147.96 56.6998V56.5549L151.068 55.5962H151.164V58.16C152.158 56.6496 153.226 55.546 154.469 55.546C154.763 55.546 155.079 55.5962 155.418 55.7355H155.424Z" fill="var(--fill-0, white)"/>
<path d="M155.345 62.1561C155.345 58.1765 157.87 55.5403 161.272 55.5403C164.673 55.5403 167.125 58.0316 167.125 62.0613C167.125 66.091 164.6 68.6771 161.221 68.6771C157.842 68.6771 155.339 66.1857 155.339 62.1561H155.345ZM164.989 62.1059C164.989 58.628 163.679 55.8747 161.221 55.8747C158.763 55.8747 157.481 58.4887 157.481 62.1059C157.481 65.7231 158.814 68.3371 161.272 68.3371C163.729 68.3371 164.989 65.7231 164.989 62.1059Z" fill="var(--fill-0, white)"/>
<path d="M185.329 65.8961C185.329 67.4289 185.402 68.2426 186.397 68.2426V68.3875H182.289V68.2426C183.284 68.2426 183.357 67.4289 183.357 65.8961V59.8098C183.357 57.9873 182.775 56.8614 181.075 56.8614C180.007 56.8614 178.888 57.363 177.967 58.2046C178.041 58.539 178.063 58.9013 178.063 59.2803V65.8961C178.063 67.4289 178.137 68.2426 179.131 68.2426V68.3875H175.024V68.2426C176.018 68.2426 176.091 67.4289 176.091 65.8961V59.8098C176.091 57.9873 175.509 56.8614 173.831 56.8614C172.764 56.8614 171.696 57.363 170.797 58.1545V65.8961C170.797 67.4289 170.871 68.2426 171.865 68.2426V68.3875H167.758V68.2426C168.752 68.2426 168.826 67.4289 168.826 65.8961V58.9459C168.826 57.4132 168.413 56.906 167.588 56.6942V56.5493L170.696 55.5906H170.792V57.8925C171.956 56.5994 173.368 55.546 174.973 55.546C176.577 55.546 177.572 56.4099 177.939 57.9928C179.103 56.6496 180.611 55.546 182.238 55.546C184.131 55.546 185.323 56.867 185.323 59.2859V65.9017L185.329 65.8961Z" fill="var(--fill-0, white)"/>
<path d="M204.353 65.3221C205.082 67.3341 205.545 68.1479 206.562 68.2482V68.3931H201.025V68.2482C202.386 68.1534 202.822 67.362 202.313 65.9017L201.025 62.2845H195.29L194.708 63.912C193.714 66.7378 193.686 68.1089 195.437 68.2482V68.3931H191.431V68.2482C192.595 68.1311 193.228 66.6653 194.251 63.7671L198.94 50.7082H199.132L204.358 65.3276L204.353 65.3221ZM195.482 61.6993H200.827L198.155 54.1527L195.482 61.6993Z" fill="var(--fill-0, white)"/>
<path d="M210.155 65.8959C210.155 67.4287 210.229 68.2424 211.223 68.2424V68.3873H207.115V68.2424C208.11 68.2424 208.183 67.4287 208.183 65.8959V52.8092C208.183 51.2765 207.771 50.7693 206.946 50.5575V50.4126L210.053 49.6435H210.15V65.8904L210.155 65.8959ZM212.511 60.5732C215.692 65.5838 217.444 68.0529 218.365 68.2424V68.3873C217.636 68.4821 217.099 68.4821 216.686 68.4821C215.082 68.4821 214.257 67.189 210.856 61.6768L213.308 59.2077C214.33 58.1989 214.935 57.4799 214.935 56.8333C214.935 56.2816 214.449 56.0196 213.941 55.9694V55.8245H218.071V55.9694C217.291 56.1144 215.664 57.4576 213.602 59.4696L212.506 60.5732H212.511Z" fill="var(--fill-0, white)"/>
<path d="M221.873 65.8959C221.873 67.4287 221.946 68.2424 222.941 68.2424V68.3873H218.833V68.2424C219.828 68.2424 219.901 67.4287 219.901 65.8959V52.8092C219.901 51.2765 219.489 50.7693 218.664 50.5575V50.4126L221.771 49.6435H221.867V65.8904L221.873 65.8959ZM224.229 60.5732C227.41 65.5838 229.161 68.0529 230.082 68.2424V68.3873C229.353 68.4821 228.817 68.4821 228.404 68.4821C226.8 68.4821 225.975 67.189 222.573 61.6768L225.026 59.2077C226.048 58.1989 226.653 57.4799 226.653 56.8333C226.653 56.2816 226.167 56.0196 225.658 55.9694V55.8245H229.788V55.9694C229.009 56.1144 227.382 57.4576 225.319 59.4696L224.229 60.5732Z" fill="var(--fill-0, white)"/>
<path d="M240.585 67.0664C240.196 67.7854 239.393 68.6716 238.303 68.6716C237.088 68.6716 236.823 67.4955 236.772 66.6372C235.777 67.8578 234.32 68.6716 232.935 68.6716C231.286 68.6716 230.116 67.6404 230.116 66.1579C230.116 64.4301 231.455 63.2596 234.393 62.418L236.698 61.7715V59.9266C236.698 59.2299 236.698 56.6215 234.246 56.6215C232.619 56.6215 231.427 57.7474 230.675 59.1854L230.528 59.1129C230.918 57.792 232.325 55.5403 235.144 55.5403C237.5 55.5403 238.642 57.1454 238.642 59.3972V65.7231C238.642 66.7041 238.693 67.5178 239.444 67.5178C239.953 67.5178 240.297 67.1555 240.438 66.966L240.585 67.0608V67.0664ZM236.698 62.1338L234.975 62.6856C232.738 63.4045 232.082 64.1458 232.082 65.5392C232.082 66.81 232.907 67.6014 234.048 67.6014C235.02 67.6014 236.043 66.9772 236.698 66.4031V62.1338Z" fill="var(--fill-0, white)"/>
<path d="M251.343 65.4389C251.343 66.9716 251.733 67.5457 252.581 67.7854V67.9303L249.886 68.6716H249.79L249.4 66.3474C248.451 67.6405 247.191 68.6716 245.439 68.6716C242.597 68.6716 240.58 66.0576 240.58 62.3456C240.58 58.249 243.128 55.5403 246.507 55.5403C247.603 55.5403 248.575 55.8524 249.371 56.3317V52.8092C249.371 51.2765 248.959 50.7693 248.134 50.5575V50.4126L251.242 49.6435H251.338V65.4389H251.343ZM249.371 59.57C249.371 57.4353 248.281 55.8803 246.405 55.8803C243.925 55.8803 242.688 58.6615 242.688 61.7269C242.688 64.7924 243.925 67.6015 246.405 67.6015C247.643 67.6015 248.614 66.9048 249.371 66.0464V59.57Z" fill="var(--fill-0, white)"/>
<path d="M253.36 68.3874V68.2425C254.354 68.2425 254.428 67.4288 254.428 65.896V58.9458C254.428 57.4131 254.015 56.9059 253.19 56.6941V56.5492L256.298 55.5905H256.394V65.896C256.394 67.4288 256.467 68.2425 257.462 68.2425V68.3874H253.354H253.36ZM253.778 52.2129C253.778 51.4717 254.388 50.8697 255.162 50.8697C255.936 50.8697 256.524 51.4717 256.524 52.2129C256.524 52.9542 255.914 53.5562 255.162 53.5562C254.411 53.5562 253.778 52.9542 253.778 52.2129Z" fill="var(--fill-0, white)"/>
<path d="M268.31 67.0664C267.92 67.7854 267.118 68.6716 266.027 68.6716C264.813 68.6716 264.547 67.4955 264.496 66.6372C263.502 67.8578 262.044 68.6716 260.66 68.6716C259.01 68.6716 257.841 67.6404 257.841 66.1579C257.841 64.4301 259.18 63.2596 262.118 62.418L264.423 61.7715V59.9266C264.423 59.2299 264.423 56.6215 261.971 56.6215C260.343 56.6215 259.151 57.7474 258.4 59.1854L258.253 59.1129C258.643 57.792 260.05 55.5403 262.869 55.5403C265.225 55.5403 266.366 57.1454 266.366 59.3972V65.7231C266.366 66.7041 266.417 67.5178 267.169 67.5178C267.677 67.5178 268.022 67.1555 268.163 66.966L268.31 67.0608V67.0664ZM264.423 62.1338L262.699 62.6856C260.462 63.4045 259.807 64.1458 259.807 65.5392C259.807 66.81 260.632 67.6014 261.773 67.6014C262.745 67.6014 263.767 66.9772 264.423 66.4031V62.1338Z" fill="var(--fill-0, white)"/>
<path d="M279.141 65.8961C279.141 67.4289 279.214 68.2426 280.208 68.2426V68.3875H276.101V68.2426C277.095 68.2426 277.169 67.4289 277.169 65.8961V59.8098C277.169 57.9873 276.587 56.8391 274.886 56.8391C273.818 56.8391 272.649 57.3686 271.609 58.1823V65.9017C271.609 67.4344 271.683 68.2482 272.677 68.2482V68.3931H268.57V68.2482C269.564 68.2482 269.637 67.4344 269.637 65.9017V58.9515C269.637 57.4188 269.225 56.9116 268.4 56.6998V56.5549L271.508 55.5962H271.604V57.9427C272.892 56.6273 274.423 55.546 276.05 55.546C277.943 55.546 279.135 56.867 279.135 59.2859V65.9017L279.141 65.8961Z" fill="var(--fill-0, white)"/>
</g>
</svg>
