<svg preserveAspectRatio="none" width="100%" height="100%" overflow="visible" style="display: block;" viewBox="0 0 100 100" fill="none" xmlns="http://www.w3.org/2000/svg">
<g id="Group">
<g id="Group_2">
<path id="Vector" d="M72.4398 27.5601C69.1086 24.229 64.6649 22.3877 59.9349 22.3877C55.2049 22.3877 50.7677 24.2225 47.43 27.5601C42.7195 32.2706 41.0669 39.1476 43.1229 45.5042L43.1815 45.6929L43.0383 45.836L22.7651 66.1092C22.5178 66.3565 22.3812 66.6948 22.3812 67.0396V76.2979C22.3812 77.0201 22.9668 77.6122 23.6954 77.6122H32.9537C33.3051 77.6122 33.6304 77.4755 33.8841 77.2283L36.2003 74.9121C36.4866 74.6258 36.6232 74.2355 36.5777 73.8321L36.2524 71.0149L40.0325 70.6571C40.6571 70.5985 41.158 70.104 41.2166 69.4729L41.5744 65.6929L44.3916 66.0182C44.7625 66.0637 45.1333 65.9466 45.4131 65.6929C45.6928 65.4456 45.849 65.0878 45.849 64.7104V61.3337H49.1671C49.512 61.3337 49.8438 61.1971 50.091 60.9564L54.3005 56.7989L54.4892 56.8575C60.8457 58.9199 67.7293 57.2673 72.4398 52.5569C75.7709 49.2257 77.6122 44.782 77.6122 40.052C77.6122 35.322 75.7774 30.8848 72.4398 27.5471V27.5601ZM70.5855 50.7091C66.363 54.9316 60.026 56.2524 54.4437 54.0663C53.9622 53.8776 53.4092 53.9882 53.0448 54.3526L48.6271 58.7182H44.5347C43.8126 58.7182 43.2205 59.3038 43.2205 60.0325V63.2465L40.5334 62.9342C40.1886 62.8952 39.8308 62.9993 39.5575 63.2205C39.2843 63.4417 39.1086 63.767 39.0761 64.1184L38.6987 68.1522L34.6649 68.5295C34.3135 68.5621 33.9882 68.7378 33.767 69.011C33.5458 69.2843 33.4417 69.6421 33.4807 69.9869L33.8906 73.5068L32.4072 74.9902H25.0032V67.5862L45.6278 46.9616C45.9986 46.5907 46.1092 46.0442 45.9206 45.5562C43.741 39.9739 45.0552 33.6434 49.2777 29.4144C55.1528 23.5458 64.7039 23.5458 70.5725 29.4144C73.4092 32.2511 74.9772 36.0377 74.9772 40.065C74.9772 44.0923 73.4157 47.8724 70.5725 50.7156L70.5855 50.7091Z" fill="var(--fill-0, #085CF0)"/>
<path id="Vector_2" d="M64.5674 30.8458C63.3898 30.8458 62.2187 31.2947 61.3273 32.186C60.462 33.0514 59.987 34.203 59.987 35.4261C59.987 36.6493 60.462 37.8074 61.3273 38.6662C62.1926 39.525 63.3442 40.0065 64.5674 40.0065C65.7906 40.0065 66.9487 39.5315 67.8075 38.6662C68.6663 37.8009 69.1477 36.6493 69.1477 35.4261C69.1477 34.203 68.6728 33.0449 67.8075 32.186C66.9421 31.3272 65.7385 30.8458 64.5674 30.8458ZM65.9532 36.8184C65.5824 37.1893 65.0879 37.391 64.5674 37.391C64.0469 37.391 63.5524 37.1893 63.1816 36.8184C62.8107 36.4476 62.609 35.9531 62.609 35.4326C62.609 34.9121 62.8107 34.4177 63.1816 34.0468C63.9493 33.2791 65.192 33.2791 65.9597 34.0468C66.7274 34.8145 66.7274 36.0572 65.9597 36.8249L65.9532 36.8184Z" fill="var(--fill-0, #085CF0)"/>
</g>
<path id="Vector_3" d="M50 99.9935C22.4268 99.9935 0 77.5667 0 50C0 22.4333 22.4268 0 50 0C77.5732 0 100 22.4268 100 50C100 77.5732 77.5732 100 50 100V99.9935ZM50 2.60247C23.8647 2.60247 2.60247 23.8647 2.60247 50C2.60247 76.1353 23.8647 97.3975 50 97.3975C76.1353 97.3975 97.3975 76.1353 97.3975 50C97.3975 23.8647 76.1288 2.60247 50 2.60247Z" fill="var(--fill-0, #085CF0)"/>
</g>
</svg>
