<svg preserveAspectRatio="none" width="100%" height="100%" overflow="visible" style="display: block;" viewBox="0 0 100 100" fill="none" xmlns="http://www.w3.org/2000/svg">
<g id="Group">
<path id="Subtract" d="M54.1367 25L54.6367 25.0098C57.1268 25.099 59.4428 25.8515 61.4053 27.0918L61.502 27.1533L61.6162 27.1455C61.9533 27.1222 62.2937 27.1094 62.6367 27.1094H64.2461C65.5012 27.1092 66.5471 26.1996 66.7207 25.0039H69.2715C69.1047 27.3181 67.2975 29.1978 64.9658 29.5234L64.3604 29.6084L64.7402 30.0879C66.495 32.3029 67.539 35.0809 67.5391 38.0977V78.3008H56.9883C43.2509 78.3008 32.0868 67.5831 31.7412 54.25L31.7324 53.6133V38.0977C31.7325 35.0811 32.7758 32.3028 34.5303 30.0879L34.9102 29.6084L34.3047 29.5234C31.9735 29.1974 30.1668 27.3178 30 25.0039H32.5508C32.7244 26.1996 33.7703 27.1092 35.0254 27.1094H36.6348C36.9774 27.1094 37.3175 27.1223 37.6543 27.1455L37.7686 27.1533L37.8652 27.0918C39.9585 25.7686 42.4544 25.0001 45.1348 25H54.1367ZM34.2695 53.6133C34.2697 65.7615 44.2298 75.6188 56.583 75.8301L57.6768 75.8496L56.7969 75.1992C53.1149 72.4792 50.6982 68.216 50.5508 63.3975L50.543 62.9297V53.7314H47.7275C42.4733 53.7313 37.813 51.2553 34.8975 47.4346L34.2695 46.6104V53.6133ZM64.375 47.4326C61.806 50.8 57.8819 53.1213 53.3906 53.626L53.0801 53.6611V62.9297C53.0802 69.5135 58.1149 74.9359 64.6104 75.7344L65.0029 75.7822V71.1895L64.7148 71.1377C60.8254 70.4436 57.8566 67.2012 57.6748 63.2559L57.666 62.8721V60.4648H60.2021V62.8721C60.2023 65.5756 62.0454 67.8472 64.5566 68.5703L65.0029 68.6992V46.6084L64.375 47.4326ZM60.665 29.7383C55.1299 30.6551 50.9045 35.3659 50.9043 41.0547V44.3799H48.3672V41.0547C48.367 35.3655 44.141 30.6547 38.6055 29.7383L38.4531 29.7139L38.3311 29.8086C35.8567 31.7557 34.2697 34.7438 34.2695 38.0977L34.2734 38.4375C34.4577 45.56 40.4177 51.2664 47.7275 51.2666H51.5439C58.8538 51.2664 64.8147 45.56 64.999 38.4375L65.0029 38.0977C65.0028 34.7435 63.4141 31.7556 60.9395 29.8086L60.8174 29.7139L60.665 29.7383ZM57.8916 37.0742C58.8392 37.1683 59.5682 37.9494 59.5684 38.8848C59.5684 39.8057 58.8616 40.5777 57.9355 40.6914L57.7471 40.7051H57.6973C56.7388 40.7041 55.9596 40.0045 55.8447 39.1133L55.8301 38.9326L55.8291 38.8906L55.8301 38.8379C55.8555 37.8618 56.6758 37.0645 57.6992 37.0645L57.8916 37.0742ZM41.5723 37.0645C42.6119 37.0645 43.4414 37.887 43.4414 38.8848C43.4414 39.8054 42.7354 40.5767 41.8096 40.6904L41.6211 40.7041H41.5703C40.612 40.7031 39.8334 40.0035 39.7188 39.1123L39.7041 38.9316L39.7031 38.8906L39.7041 38.8379C39.7295 37.8618 40.5492 37.0645 41.5723 37.0645ZM45.1348 27.4648C44.2949 27.4649 43.4777 27.5601 42.6934 27.7363L41.6738 27.9658L42.626 28.3965C45.5112 29.7031 47.8745 31.9227 49.3262 34.6748L49.6357 35.2617L49.9453 34.6748C51.3968 31.9229 53.7597 29.7031 56.6445 28.3965L57.5967 27.9658L56.5771 27.7363C55.7931 27.5602 54.9763 27.4649 54.1367 27.4648H45.1348Z" fill="var(--fill-0, #085CF0)"/>
<path id="Vector" d="M50 99.9935C22.4333 99.9935 0 77.5667 0 49.9935C0 22.4203 22.4333 0 50 0C77.5667 0 100 22.4268 100 50C100 77.5732 77.5732 100 50 100V99.9935ZM50 2.60247C23.8647 2.60247 2.60247 23.8647 2.60247 50C2.60247 76.1353 23.8647 97.3975 50 97.3975C76.1353 97.3975 97.3975 76.1353 97.3975 50C97.3975 23.8647 76.1353 2.60247 50 2.60247Z" fill="var(--fill-0, #085CF0)"/>
</g>
</svg>
