<svg preserveAspectRatio="none" width="100%" height="100%" overflow="visible" style="display: block;" viewBox="0 0 300 84.5114" fill="none" xmlns="http://www.w3.org/2000/svg">
<g id="Group 633228">
<g id="PWRL-Logo-Akka-Black">
<path d="M4.67809 84.251L4.74772 83.8753L6.2743 83.8753L7.13918 79.4642L7.54547 79.4642L6.68062 83.8753L8.20718 83.8753L8.13755 84.251L4.67809 84.251Z" fill="var(--fill-0, white)"/>
<path d="M2.64694 81.0656L0.423792 84.2453L6.83803e-05 84.2453L0.934573 79.4584L1.34089 79.4584L0.58052 83.3607L2.54243 80.5222L2.90233 80.5222L3.74975 83.3492L4.51014 79.4526L4.91644 79.4526L3.98196 84.2395L3.61045 84.2395L2.64109 81.0598L2.64694 81.0656Z" fill="var(--fill-0, white)"/>
<path d="M216.239 84.5113L223.524 37.2037L193.759 37.2037L181.105 71.7695C181.018 71.995 180.786 72.1627 180.554 72.1627C180.287 72.1627 180.107 71.943 180.159 71.6713L186.381 37.2037L157.26 37.2037L137.955 84.5113L155.734 84.5113L170.071 48.8181C170.158 48.5869 170.396 48.4192 170.634 48.4192L170.721 48.4192C170.994 48.4192 171.174 48.6389 171.127 48.9106L164.591 84.5113L189.231 84.5113L203.76 48.5522C203.853 48.3267 204.085 48.1649 204.317 48.1649C204.59 48.1649 204.77 48.3845 204.718 48.662L198.089 84.5113L216.239 84.5113Z" fill="var(--fill-0, white)"/>
<path d="M60.7553 84.4708L74.3899 37.2037L12.0791 37.2037L7.86501 51.8532L49.7326 51.8532L40.37 84.4708L60.7553 84.4708Z" fill="var(--fill-0, white)"/>
<path d="M232.788 84.5059L285.916 84.5059L299.714 37.204L278.759 37.204L275.37 48.8647C275.341 48.9746 275.236 49.0555 275.126 49.0555L242.783 49.0555C242.783 49.0555 226.119 49.7955 222.572 68.6596C219.699 83.922 232.788 84.5059 232.788 84.5059ZM244.571 65.6418C245.477 63.0692 248.17 61.2596 250.77 61.2596L271.498 61.2596C271.62 61.2596 271.695 61.3637 271.661 61.4909L268.753 71.5675C268.723 71.6716 268.619 71.7525 268.509 71.7525L248.582 71.7525C245.372 71.7525 243.433 68.8735 244.571 65.6476L244.571 65.6418Z" fill="var(--fill-0, white)"/>
<path d="M70.5938 68.5957C67.8077 83.8581 80.9025 84.442 80.9025 84.442L134.031 84.442L147.822 37.1401L126.746 37.1401L123.043 50.5583L101.653 50.5583C99.9296 50.5583 98.612 49.4252 98.4204 47.766L97.1841 37.1401L76.7698 37.1401L80.2002 53.3564C76.1545 55.773 72.1088 60.265 70.588 68.6015L70.5938 68.5957ZM117.03 71.6886L95.6169 71.6886C92.9758 71.6886 91.3332 69.4051 92.0819 66.7688C92.732 64.491 94.9668 62.7567 97.2537 62.7567L119.578 62.7567L117.024 71.6886L117.03 71.6886Z" fill="var(--fill-0, white)"/>
</g>
<g id="Private Tech. Nasdaq Listed.">
<path d="M300 23.9979L293.64 23.9979C289.758 23.9979 287.434 21.9646 287.434 18.9272C287.434 15.5133 289.732 13.4047 293.308 13.4047C294.407 13.4047 295.377 13.6557 295.914 13.8565L295.914 9.01176C295.914 7.15419 295.709 6.02458 293.972 6.02458L293.972 5.72335L300 5.72335L300 6.02458C298.263 6.02458 298.161 7.15419 298.161 9.01176L298.161 20.7095C298.161 22.567 298.263 23.6966 300 23.6966L300 23.9979ZM293.947 14.1828C291.52 14.1828 289.809 15.689 289.809 18.8519C289.809 21.5127 291.137 23.295 293.972 23.295L294.943 23.295C295.556 23.295 295.913 22.9938 295.913 22.3913L295.914 15.3376C295.914 14.7602 295.633 14.1828 293.947 14.1828Z" fill="var(--fill-0, white)"/>
<path d="M279.353 19.1782C279.072 19.1782 278.714 19.128 278.357 18.9774L278.868 16.8186L279.123 16.8186C279.659 17.1951 280.247 17.3457 280.707 17.3457C281.473 17.3457 282.137 16.9441 282.827 15.94L282.827 8.48461C282.827 6.87806 282.75 6.02458 281.703 6.02458L281.703 5.72335L286.019 5.72335L286.019 6.02458C284.972 6.02458 284.896 6.87806 284.896 8.48461L284.896 15.5635C284.896 17.17 285.33 17.6972 286.198 17.9231L286.198 18.2243L283.031 19.128L282.827 19.128L282.827 16.7684C281.754 18.2243 280.604 19.1782 279.353 19.1782Z" fill="var(--fill-0, white)"/>
<path d="M275.362 21.2617C276.18 21.2617 276.818 21.8893 276.818 22.6674C276.818 23.4456 276.18 24.0732 275.362 24.0732C274.57 24.0732 273.932 23.4456 273.932 22.6674C273.932 21.8893 274.57 21.2617 275.362 21.2617ZM272.936 5.72335L277.252 5.72335L277.252 6.02458C276.205 6.02458 276.128 6.87806 276.128 8.48461L276.128 15.5635C276.128 17.17 276.563 17.6972 277.431 17.9231L277.431 18.2243L274.264 19.128L274.06 19.128L274.06 8.48461C274.06 6.87806 273.983 6.02458 272.936 6.02458L272.936 5.72335Z" fill="var(--fill-0, white)"/>
<path d="M263.533 18.5758L263.533 18.877L260.008 18.877L260.008 18.5758C260.774 18.4251 261.285 17.647 262.332 14.8104L265.755 5.47233L266.265 5.47233L270.25 15.8898C270.991 17.8227 271.399 18.4251 272.268 18.5758L272.268 18.877L267.594 18.877L267.594 18.5758C268.743 18.4753 268.769 17.8227 268.309 16.5676L265.346 8.66033L263.073 15.0112C262.128 17.5968 262.332 18.4502 263.533 18.5758Z" fill="var(--fill-0, white)"/>
<path d="M249.545 7.20439L249.188 6.87806C249.596 6.30071 250.439 5.42212 251.589 5.42212C252.789 5.42212 253.121 6.47642 253.172 7.38011C254.245 6.15009 255.829 5.42212 257.233 5.42212C258.97 5.42212 260.196 6.47642 260.196 8.10807C260.196 9.99075 258.817 11.3965 255.701 12.2751L253.274 12.9528L253.274 14.7853C253.274 15.5133 253.274 17.9482 255.778 17.9482C257.438 17.9482 258.613 16.8688 259.353 15.4631L259.864 15.6639C259.456 17.0194 257.872 19.1782 254.909 19.1782C252.432 19.1782 251.231 17.4964 251.231 15.1367L251.231 8.45951C251.231 7.63113 251.231 6.75255 250.439 6.75255C250.056 6.75255 249.75 7.00357 249.545 7.20439ZM256.084 6.67724C255.037 6.67724 253.964 7.3299 253.274 7.93236L253.274 12.2751L255.088 11.6977C256.825 11.1706 258.127 10.5179 258.127 8.73563C258.127 7.38011 257.259 6.67724 256.084 6.67724Z" fill="var(--fill-0, white)"/>
<path d="M240.616 7.85705L240.233 7.45541C241.408 6.20029 242.94 5.42212 244.268 5.42212C246.159 5.42212 247.257 6.45132 247.257 8.58502L247.257 17.8478L248.585 17.8478L248.585 18.4502L248.227 18.6009C246.976 19.1531 246.235 20.1572 245.495 22.1654L245.188 22.1654L245.188 18.877L240.412 18.877L240.769 17.8478L245.188 17.8478L245.188 8.93645C245.188 7.45541 244.498 6.67724 243.17 6.67724C242.149 6.67724 241.255 7.3048 240.616 7.85705Z" fill="var(--fill-0, white)"/>
<path d="M229.746 8.88624L229.286 8.61012C230.18 7.20439 231.738 5.42212 234.446 5.42212C237.843 5.42212 239.912 8.3591 239.912 12.0742C239.912 16.2412 237.179 19.1782 233.858 19.1782C231.1 19.1782 229.108 17.2202 229.312 13.9067L237.69 13.9067C237.715 13.6055 237.741 13.3043 237.741 12.9779C237.741 9.4887 236.31 6.80275 233.475 6.80275C231.738 6.80275 230.563 7.88215 229.746 8.88624ZM233.961 18.5255C235.927 18.5255 237.179 16.8688 237.587 14.6598L231.508 14.6598C231.33 17.1449 232.096 18.5255 233.961 18.5255Z" fill="var(--fill-0, white)"/>
<path d="M209.275 23.9979L208.943 20.2325L209.249 20.2325C210.552 22.8431 211.216 23.295 213.796 23.295L214.69 23.295L214.69 9.01176C214.69 7.15418 214.587 6.02458 212.851 6.02458L212.851 5.72335L218.776 5.72335L218.776 6.02458C217.039 6.02458 216.937 7.15418 216.937 9.01176L216.937 23.295L217.857 23.295C220.436 23.295 221.075 22.8432 222.403 20.2325L222.71 20.2325L222.352 23.9979L209.275 23.9979Z" fill="var(--fill-0, white)"/>
<path d="M200.102 8.88624L199.643 8.61012C200.537 7.20438 202.095 5.42212 204.802 5.42212C208.199 5.42212 210.268 8.35909 210.268 12.0742C210.268 16.2412 207.535 19.1782 204.215 19.1782C201.456 19.1782 199.464 17.2202 199.668 13.9067L208.046 13.9067C208.072 13.6055 208.097 13.3043 208.097 12.9779C208.097 9.4887 206.667 6.80275 203.832 6.80275C202.095 6.80275 200.92 7.88215 200.102 8.88624ZM204.317 18.5255C206.284 18.5255 207.535 16.8688 207.944 14.6598L201.865 14.6598C201.686 17.1449 202.452 18.5255 204.317 18.5255Z" fill="var(--fill-0, white)"/>
<path d="M192.643 5.42212C196.04 5.42212 198.109 8.35909 198.109 12.0993C198.109 16.2412 195.376 19.1782 192.081 19.1782C190.267 19.1782 188.633 18.2745 187.764 17.0445L188.786 15.5384L189.093 15.5384C189.603 17.3708 190.37 18.5255 192.081 18.5255C194.38 18.5255 195.938 16.3165 195.938 12.9277C195.938 9.4887 194.482 6.80275 191.723 6.80275C189.986 6.80275 188.837 7.90725 187.994 8.93645L187.534 8.66032C188.428 7.22949 189.961 5.42212 192.643 5.42212Z" fill="var(--fill-0, white)"/>
<path d="M175.367 15.2622L175.367 8.4846C175.367 6.87805 175.29 6.02457 174.243 6.02457L174.243 5.72334L178.559 5.72334L178.559 6.02457C177.512 6.02457 177.436 6.87805 177.436 8.4846L177.436 14.71C177.436 16.6178 178.023 17.7223 179.811 17.7223C180.935 17.7223 182.161 17.1449 183.259 16.2914L183.259 8.4846C183.259 6.87805 183.183 6.02457 182.135 6.02457L182.135 5.72334L186.452 5.72335L186.452 6.02457C185.405 6.02457 185.328 6.87805 185.328 8.4846L185.328 21.9897C185.328 23.5962 185.762 24.1234 186.631 24.3493L186.631 24.6505L183.463 25.3534L183.259 25.3534L183.259 16.9692C181.905 18.2494 180.245 19.1782 178.585 19.1782C176.593 19.1782 175.367 17.7976 175.367 15.2622Z" fill="var(--fill-0, white)"/>
<path d="M171.26 5.42212C172.078 5.42212 172.742 6.07478 172.742 6.85295C172.742 7.65622 172.078 8.30889 171.26 8.30889C170.469 8.30889 169.805 7.65623 169.805 6.85295C169.805 6.07478 170.469 5.42212 171.26 5.42212Z" fill="var(--fill-0, white)"/>
<path d="M151.863 23.6966L151.863 23.9979L147.087 23.9979L147.087 23.6966C148.568 23.6966 148.824 21.9646 148.824 19.3037L148.824 5.47232L149.335 5.47232L160.011 21.6633L160.011 10.1665C160.011 7.75663 159.603 6.02457 157.993 6.02457L157.993 5.72334L162.974 5.72334L162.974 6.02457C161.442 6.02457 160.88 7.75663 160.88 10.1665L160.88 21.0107C160.88 22.7427 161.697 23.4958 162.974 23.6966L162.974 23.9979L158.887 23.9979L149.692 9.91543L149.692 19.3037C149.692 21.9646 150.178 23.6966 151.863 23.6966Z" fill="var(--fill-0, white)"/>
<path d="M135.897 7.20438L135.539 6.87805C135.948 6.30069 136.791 5.42211 137.94 5.42211C139.14 5.42211 139.472 6.47641 139.524 7.3801C140.596 6.15008 142.18 5.42211 143.585 5.42211C145.322 5.42211 146.548 6.47641 146.548 8.10806C146.548 9.99074 145.168 11.3965 142.052 12.2751L139.626 12.9528L139.626 14.7853C139.626 15.5133 139.626 17.9482 142.129 17.9482C143.789 17.9482 144.964 16.8688 145.705 15.4631L146.216 15.6639C145.807 17.0194 144.223 19.1782 141.26 19.1782C138.783 19.1782 137.582 17.4963 137.582 15.1367L137.582 8.4595C137.582 7.63112 137.582 6.75254 136.791 6.75254C136.407 6.75254 136.101 7.00356 135.897 7.20438ZM142.435 6.67723C141.388 6.67723 140.315 7.32989 139.626 7.93235L139.626 12.2751L141.439 11.6977C143.176 11.1706 144.479 10.5179 144.479 8.73562C144.479 7.3801 143.61 6.67723 142.435 6.67723Z" fill="var(--fill-0, white)"/>
<path d="M130.726 5.42211C132.028 5.42211 133.484 5.74844 134.404 6.22539L134.608 9.33808L134.301 9.33808C133.356 7.10397 132.284 6.07477 130.47 6.07477C128.912 6.07477 127.686 6.87805 127.686 8.35909C127.686 9.84013 128.733 10.4426 130.496 11.3714L131.466 11.8734C132.82 12.6014 134.25 13.4298 134.25 15.5133C134.25 17.7976 132.462 19.1782 130.036 19.1782C129.014 19.1782 127.609 18.9523 126.639 18.4251L126.639 15.8647L126.945 15.8647C127.584 17.7223 128.708 18.5255 130.215 18.5255C131.645 18.5255 132.59 17.6721 132.59 16.4169C132.59 14.8857 131.287 14.2079 130.445 13.7812L129.5 13.2791C127.661 12.3253 126.026 11.5471 126.026 9.33808C126.026 6.95336 127.916 5.42211 130.726 5.42211Z" fill="var(--fill-0, white)"/>
<path d="M113.127 25.3534L113.127 8.86113C113.127 7.25458 112.719 6.65213 111.825 6.4011L111.825 6.09988L114.558 5.42211L114.762 5.42211L115.119 7.58091C116.167 6.3258 117.571 5.42211 119.334 5.42211C122.348 5.42211 124.442 8.20847 124.442 12.0491C124.442 16.442 121.633 19.1782 118.236 19.1782C117.061 19.1782 116.039 18.8519 115.196 18.3498L115.196 21.9897C115.196 23.5962 115.63 24.1234 116.499 24.3493L116.499 24.6505L113.332 25.3534L113.127 25.3534ZM118.338 6.65213C117.035 6.65213 115.988 7.38009 115.196 8.28378L115.196 14.961C115.196 17.1951 116.345 18.5255 118.261 18.5255C120.943 18.5255 122.22 15.9149 122.22 12.6516C122.22 9.41339 120.917 6.65213 118.338 6.65213Z" fill="var(--fill-0, white)"/>
<path d="M100.042 7.20438L99.6845 6.87805C100.093 6.30069 100.936 5.42211 102.085 5.42211C103.286 5.42211 103.618 6.47641 103.669 7.38009C104.742 6.15008 106.325 5.42211 107.73 5.42211C109.467 5.42211 110.693 6.47641 110.693 8.10806C110.693 9.99074 109.314 11.3965 106.198 12.2751L103.771 12.9528L103.771 14.7853C103.771 15.5133 103.771 17.9482 106.274 17.9482C107.935 17.9482 109.11 16.8688 109.85 15.463L110.361 15.6639C109.952 17.0194 108.369 19.1782 105.406 19.1782C102.928 19.1782 101.728 17.4963 101.728 15.1367L101.728 8.45949C101.728 7.63112 101.728 6.75253 100.936 6.75253C100.553 6.75253 100.246 7.00356 100.042 7.20438ZM106.581 6.67723C105.534 6.67723 104.461 7.32989 103.771 7.93235L103.771 12.2751L105.585 11.6977C107.322 11.1705 108.624 10.5179 108.624 8.73562C108.624 7.38009 107.756 6.67723 106.581 6.67723Z" fill="var(--fill-0, white)"/>
<path d="M87.4615 19.0276L87.4615 2.76126C87.4615 1.15471 87.3849 0.30123 86.3377 0.30123L86.3377 0L90.6543 1.8883e-06L90.6543 0.30123C89.607 0.30123 89.5304 1.15471 89.5304 2.76126L89.5304 7.4805C90.5521 6.30069 91.9314 5.42211 93.6682 5.42211C96.6822 5.42211 98.7766 8.20847 98.7766 12.0491C98.7766 16.442 95.967 19.1782 92.5699 19.1782C90.9608 19.1782 89.5815 18.5506 88.6365 17.6721L87.9723 19.0276L87.4615 19.0276ZM92.6721 6.65212C91.3694 6.65212 90.3222 7.38009 89.5304 8.28378L89.5304 14.961C89.5304 17.1951 90.6798 18.5255 92.5955 18.5255C95.2774 18.5255 96.5545 15.9149 96.5545 12.6516C96.5545 9.41338 95.2518 6.65212 92.6721 6.65212Z" fill="var(--fill-0, white)"/>
<path d="M67.55 5.72334L79.3248 5.72334L79.3248 6.02456C77.588 6.02456 77.4858 7.15417 77.4858 9.01174L77.4858 20.7094C77.4858 22.567 77.588 23.6966 79.3248 23.6966L79.3248 23.9978L73.3991 23.9978L73.3991 23.6966C75.1359 23.6966 75.2381 22.567 75.2381 20.7094L75.2381 7.60601C75.2381 6.82784 75.0082 6.4262 74.242 6.4262L72.454 6.4262C69.6955 6.4262 68.8015 6.97845 67.2179 10.1665L66.9114 10.1665L67.55 5.72334Z" fill="var(--fill-0, white)"/>
<path d="M63.7283 21.2617C64.5456 21.2617 65.1841 21.8892 65.1841 22.6674C65.1841 23.4456 64.5456 24.0732 63.7283 24.0732C62.9365 24.0732 62.2979 23.4456 62.2979 22.6674C62.2979 21.8892 62.9365 21.2617 63.7283 21.2617ZM61.3018 5.72333L65.6184 5.72334L65.6184 6.02456C64.5711 6.02456 64.4945 6.87804 64.4945 8.48459L64.4945 15.5635C64.4945 17.17 64.9287 17.6972 65.7971 17.9231L65.7971 18.2243L62.6299 19.128L62.4256 19.128L62.4256 8.48459C62.4256 6.87804 62.349 6.02456 61.3018 6.02456L61.3018 5.72333Z" fill="var(--fill-0, white)"/>
<path d="M55.9116 5.42211C57.2143 5.42211 58.6702 5.74844 59.5897 6.22538L59.794 9.33807L59.4875 9.33807C58.5424 7.10396 57.4697 6.07477 55.6562 6.07477C54.0982 6.07477 52.8721 6.87804 52.8721 8.35908C52.8721 9.84012 53.9194 10.4426 55.6818 11.3714L56.6523 11.8734C58.0061 12.6014 59.4364 13.4298 59.4364 15.5133C59.4364 17.7976 57.6485 19.1782 55.222 19.1782C54.2003 19.1782 52.7955 18.9523 51.8249 18.4251L51.8249 15.8647L52.1314 15.8647C52.77 17.7223 53.8938 18.5255 55.4008 18.5255C56.8311 18.5255 57.7762 17.6721 57.7762 16.4169C57.7762 14.8857 56.4736 14.2079 55.6307 13.7812L54.6856 13.2791C52.8466 12.3253 51.2119 11.5471 51.2119 9.33807C51.2119 6.95335 53.102 5.42211 55.9116 5.42211Z" fill="var(--fill-0, white)"/>
<path d="M41.9146 7.85703L41.5315 7.4554C42.7064 6.20028 44.239 5.42211 45.5671 5.42211C47.4572 5.42211 48.5555 6.4513 48.5555 8.585L48.5555 17.8478L49.8837 17.8478L49.8837 18.4502L49.5261 18.6008C48.2746 19.1531 47.5339 20.1572 46.7931 22.1654L46.4866 22.1654L46.4866 18.877L41.7103 18.877L42.0679 17.8478L46.4866 17.8478L46.4866 8.93643C46.4866 7.4554 45.797 6.67722 44.4688 6.67722C43.4472 6.67722 42.5532 7.30478 41.9146 7.85703Z" fill="var(--fill-0, white)"/>
<path d="M31.0448 8.88623L30.585 8.6101C31.479 7.20437 33.037 5.4221 35.7445 5.4221C39.1416 5.4221 41.2104 8.35908 41.2104 12.0742C41.2104 16.2412 38.4775 19.1782 35.157 19.1782C32.3985 19.1782 30.4062 17.2202 30.6105 13.9067L38.9883 13.9067C39.0138 13.6055 39.0394 13.3042 39.0394 12.9779C39.0394 9.48869 37.609 6.80273 34.7739 6.80273C33.037 6.80273 31.8621 7.88213 31.0448 8.88623ZM35.2592 18.5255C37.2259 18.5255 38.4775 16.8688 38.8861 14.6598L32.8071 14.6598C32.6284 17.1449 33.3946 18.5255 35.2592 18.5255Z" fill="var(--fill-0, white)"/>
<path d="M17.736 25.3534L17.736 8.86112C17.736 7.25457 17.3273 6.65212 16.4334 6.40109L16.4334 6.09987L19.1663 5.4221L19.3707 5.4221L19.7283 7.58091C20.7755 6.32579 22.1803 5.4221 23.9427 5.4221C26.9566 5.4221 29.0511 8.20846 29.0511 12.0491C29.0511 16.442 26.2415 19.1782 22.8444 19.1782C21.6695 19.1782 20.6478 18.8519 19.8049 18.3498L19.8049 21.9897C19.8049 23.5962 20.2391 24.1234 21.1075 24.3493L21.1075 24.6505L17.9403 25.3534L17.736 25.3534ZM22.9465 6.65212C21.6439 6.65212 20.5967 7.38009 19.8049 8.28377L19.8049 14.961C19.8049 17.1951 20.9543 18.5255 22.8699 18.5255C25.5518 18.5255 26.8289 15.9149 26.8289 12.6516C26.8289 9.41338 25.5263 6.65212 22.9465 6.65212Z" fill="var(--fill-0, white)"/>
<path d="M13.514 5.4221C14.3314 5.4221 14.9954 6.07476 14.9954 6.85294C14.9954 7.65621 14.3314 8.30887 13.514 8.30887C12.7222 8.30887 12.0581 7.65621 12.0581 6.85294C12.0581 6.07476 12.7222 5.4221 13.514 5.4221Z" fill="var(--fill-0, white)"/>
</g>
</g>
</svg>
