<svg preserveAspectRatio="none" width="100%" height="100%" overflow="visible" style="display: block;" viewBox="0 0 177.491 50" fill="none" xmlns="http://www.w3.org/2000/svg">
<g id="Group 633228">
<g id="PWRL-Logo-Akka-Black">
<path d="M2.76769 49.846L2.80888 49.6237L3.71207 49.6237L4.22376 47.0139L4.46414 47.0139L3.95246 49.6237L4.85563 49.6237L4.81443 49.846L2.76769 49.846Z" fill="var(--fill-0, white)"/>
<path d="M1.56599 47.9614L0.25069 49.8426L0 49.8426L0.552887 47.0105L0.793279 47.0105L0.343417 49.3193L1.50416 47.6399L1.71708 47.6399L2.21845 49.3124L2.66833 47.0071L2.90871 47.0071L2.35583 49.8392L2.13604 49.8392L1.56253 47.958L1.56599 47.9614Z" fill="var(--fill-0, white)"/>
<path d="M127.935 50L132.245 22.0111L114.635 22.0111L107.148 42.4615C107.097 42.5949 106.959 42.6941 106.822 42.6941C106.664 42.6941 106.558 42.5641 106.589 42.4033L110.27 22.0111L93.0409 22.0111L81.619 50L92.1378 50L100.62 28.8826C100.672 28.7458 100.812 28.6466 100.953 28.6466L101.005 28.6466C101.166 28.6466 101.273 28.7766 101.245 28.9373L97.3783 50L111.956 50L120.552 28.7253C120.607 28.5919 120.744 28.4961 120.881 28.4961C121.043 28.4961 121.149 28.6261 121.118 28.7902L117.197 50L127.935 50Z" fill="var(--fill-0, white)"/>
<path d="M35.945 49.976L44.0118 22.0111L7.14637 22.011L4.65319 30.6783L29.4236 30.6783L23.8843 49.976L35.945 49.976Z" fill="var(--fill-0, white)"/>
<path d="M137.726 49.9968L169.159 49.9968L177.321 22.0113L164.924 22.0113L162.919 28.9102C162.902 28.9752 162.84 29.023 162.774 29.023L143.639 29.023C143.639 29.023 133.78 29.4608 131.682 40.6215C129.982 49.6513 137.726 49.9968 137.726 49.9968ZM144.697 38.8361C145.233 37.314 146.826 36.2435 148.365 36.2435L160.628 36.2435C160.7 36.2435 160.745 36.305 160.724 36.3803L159.004 42.342C158.987 42.4036 158.925 42.4514 158.86 42.4514L147.07 42.4514C145.171 42.4514 144.024 40.7481 144.697 38.8395L144.697 38.8361Z" fill="var(--fill-0, white)"/>
<path d="M41.7658 40.5837C40.1175 49.6135 47.8649 49.959 47.8649 49.959L79.2975 49.959L87.457 21.9735L74.9877 21.9735L72.7967 29.9122L60.1419 29.9122C59.1219 29.9122 58.3424 29.2418 58.2291 28.2601L57.4976 21.9735L45.4198 21.9735L47.4493 31.5676C45.0557 32.9973 42.6622 35.655 41.7624 40.5871L41.7658 40.5837ZM69.2389 42.4136L56.5704 42.4136C55.0079 42.4136 54.036 41.0626 54.479 39.5029C54.8636 38.1553 56.1858 37.1291 57.5388 37.1291L70.7465 37.1291L69.2355 42.4136L69.2389 42.4136Z" fill="var(--fill-0, white)"/>
</g>
<g id="Private Tech. Nasdaq Listed.">
<path d="M177.491 14.198L173.728 14.198C171.431 14.198 170.056 12.9951 170.056 11.198C170.056 9.17824 171.416 7.93071 173.532 7.93071C174.182 7.93071 174.756 8.07923 175.073 8.19804L175.073 5.33171C175.073 4.2327 174.952 3.56438 173.925 3.56438L173.925 3.38616L177.491 3.38616L177.491 3.56438C176.463 3.56438 176.403 4.2327 176.403 5.33171L176.403 12.2525C176.403 13.3515 176.463 14.0198 177.491 14.0198L177.491 14.198ZM173.91 8.39111C172.474 8.39111 171.462 9.2822 171.462 11.1535C171.462 12.7277 172.247 13.7822 173.925 13.7822L174.499 13.7822C174.862 13.7822 175.073 13.604 175.073 13.2475L175.073 9.07428C175.073 8.73269 174.907 8.39111 173.91 8.39111Z" fill="var(--fill-0, white)"/>
<path d="M165.275 11.3465C165.109 11.3465 164.898 11.3168 164.686 11.2277L164.988 9.95051L165.139 9.95051C165.457 10.1733 165.804 10.2624 166.076 10.2624C166.53 10.2624 166.923 10.0248 167.331 9.43071L167.331 5.01982C167.331 4.06933 167.285 3.56438 166.666 3.56438L166.666 3.38616L169.219 3.38616L169.219 3.56438C168.6 3.56438 168.555 4.06933 168.555 5.01982L168.555 9.20794C168.555 10.1584 168.811 10.4703 169.325 10.604L169.325 10.7822L167.451 11.3168L167.331 11.3168L167.331 9.92081C166.696 10.7822 166.016 11.3465 165.275 11.3465Z" fill="var(--fill-0, white)"/>
<path d="M162.914 12.5792C163.398 12.5792 163.776 12.9505 163.776 13.4109C163.776 13.8713 163.398 14.2426 162.914 14.2426C162.446 14.2426 162.068 13.8713 162.068 13.4109C162.068 12.9505 162.446 12.5792 162.914 12.5792ZM161.479 3.38616L164.033 3.38616L164.033 3.56438C163.413 3.56438 163.368 4.06933 163.368 5.01982L163.368 9.20794C163.368 10.1584 163.625 10.4703 164.138 10.604L164.138 10.7822L162.265 11.3168L162.144 11.3168L162.144 5.01982C162.144 4.06933 162.098 3.56438 161.479 3.56438L161.479 3.38616Z" fill="var(--fill-0, white)"/>
<path d="M155.915 10.9901L155.915 11.1683L153.83 11.1683L153.83 10.9901C154.283 10.901 154.586 10.4406 155.205 8.76239L157.23 3.23765L157.532 3.23765L159.89 9.40101C160.328 10.5446 160.57 10.901 161.084 10.9901L161.084 11.1683L158.318 11.1683L158.318 10.9901C158.998 10.9307 159.013 10.5446 158.741 9.802L156.988 5.12378L155.643 8.8812C155.084 10.4109 155.205 10.9159 155.915 10.9901Z" fill="var(--fill-0, white)"/>
<path d="M147.64 4.2624L147.429 4.06933C147.67 3.72775 148.169 3.20794 148.849 3.20794C149.559 3.20794 149.756 3.83171 149.786 4.36636C150.421 3.63864 151.358 3.20794 152.189 3.20794C153.216 3.20794 153.942 3.83171 153.942 4.79705C153.942 5.91091 153.126 6.74259 151.282 7.26239L149.846 7.66338L149.846 8.74754C149.846 9.17823 149.846 10.6188 151.327 10.6188C152.31 10.6188 153.005 9.98021 153.443 9.14853L153.745 9.26734C153.503 10.0693 152.566 11.3465 150.814 11.3465C149.348 11.3465 148.637 10.3515 148.637 8.95546L148.637 5.00497C148.637 4.51487 148.637 3.99507 148.169 3.99507C147.942 3.99507 147.761 4.14359 147.64 4.2624ZM151.509 3.95052C150.889 3.95052 150.254 4.33666 149.846 4.69309L149.846 7.26239L150.919 6.92081C151.947 6.60893 152.718 6.22279 152.718 5.16834C152.718 4.36636 152.204 3.95052 151.509 3.95052Z" fill="var(--fill-0, white)"/>
<path d="M142.357 4.64854L142.131 4.41091C142.826 3.66834 143.732 3.20794 144.518 3.20794C145.636 3.20794 146.286 3.81685 146.286 5.07923L146.286 10.5594L147.072 10.5594L147.072 10.9159L146.86 11.005C146.12 11.3317 145.682 11.9258 145.243 13.1139L145.062 13.1139L145.062 11.1683L142.236 11.1683L142.448 10.5594L145.062 10.5594L145.062 5.28715C145.062 4.41091 144.654 3.95052 143.868 3.95052C143.264 3.95052 142.735 4.3218 142.357 4.64854Z" fill="var(--fill-0, white)"/>
<path d="M135.926 5.25744L135.654 5.09408C136.183 4.2624 137.105 3.20794 138.707 3.20794C140.717 3.20794 141.941 4.94556 141.941 7.14358C141.941 9.60893 140.324 11.3465 138.359 11.3465C136.727 11.3465 135.548 10.1881 135.669 8.22774L140.626 8.22774C140.641 8.04952 140.656 7.8713 140.656 7.67823C140.656 5.61388 139.81 4.02477 138.132 4.02477C137.105 4.02477 136.41 4.66339 135.926 5.25744ZM138.42 10.9604C139.583 10.9604 140.324 9.98021 140.565 8.67328L136.969 8.67328C136.863 10.1436 137.316 10.9604 138.42 10.9604Z" fill="var(--fill-0, white)"/>
<path d="M123.814 14.198L123.618 11.9703L123.799 11.9703C124.57 13.5149 124.963 13.7822 126.489 13.7822L127.018 13.7822L127.018 5.3317C127.018 4.23269 126.958 3.56438 125.93 3.56438L125.93 3.38616L129.436 3.38616L129.436 3.56438C128.408 3.56438 128.348 4.23269 128.348 5.3317L128.348 13.7822L128.892 13.7822C130.418 13.7822 130.796 13.5149 131.582 11.9703L131.763 11.9703L131.552 14.198L123.814 14.198Z" fill="var(--fill-0, white)"/>
<path d="M118.388 5.25744L118.116 5.09408C118.645 4.2624 119.567 3.20794 121.168 3.20794C123.178 3.20794 124.402 4.94556 124.402 7.14358C124.402 9.60892 122.785 11.3465 120.821 11.3465C119.189 11.3465 118.01 10.1881 118.131 8.22774L123.088 8.22774C123.103 8.04952 123.118 7.8713 123.118 7.67823C123.118 5.61388 122.272 4.02477 120.594 4.02477C119.567 4.02477 118.871 4.66339 118.388 5.25744ZM120.881 10.9604C122.045 10.9604 122.785 9.98021 123.027 8.67328L119.431 8.67328C119.325 10.1436 119.778 10.9604 120.881 10.9604Z" fill="var(--fill-0, white)"/>
<path d="M113.975 3.20794C115.984 3.20794 117.208 4.94556 117.208 7.15843C117.208 9.60892 115.591 11.3465 113.642 11.3465C112.569 11.3465 111.602 10.8119 111.088 10.0842L111.693 9.19308L111.874 9.19308C112.176 10.2772 112.63 10.9604 113.642 10.9604C115.002 10.9604 115.924 9.65348 115.924 7.64853C115.924 5.61388 115.063 4.02477 113.43 4.02477C112.403 4.02477 111.723 4.67824 111.224 5.28715L110.952 5.12378C111.481 4.27725 112.388 3.20794 113.975 3.20794Z" fill="var(--fill-0, white)"/>
<path d="M103.753 9.02972L103.753 5.01982C103.753 4.06932 103.708 3.56437 103.088 3.56437L103.088 3.38616L105.642 3.38616L105.642 3.56437C105.023 3.56437 104.977 4.06933 104.977 5.01982L104.977 8.70298C104.977 9.83169 105.325 10.4852 106.383 10.4852C107.048 10.4852 107.773 10.1436 108.423 9.63863L108.423 5.01982C108.423 4.06932 108.377 3.56438 107.758 3.56438L107.758 3.38616L110.312 3.38616L110.312 3.56438C109.692 3.56438 109.647 4.06933 109.647 5.01982L109.647 13.0099C109.647 13.9604 109.904 14.2723 110.418 14.4059L110.418 14.5842L108.544 15L108.423 15L108.423 10.0396C107.622 10.797 106.64 11.3465 105.657 11.3465C104.479 11.3465 103.753 10.5297 103.753 9.02972Z" fill="var(--fill-0, white)"/>
<path d="M101.324 3.20794C101.807 3.20794 102.2 3.59408 102.2 4.05447C102.2 4.52972 101.807 4.91586 101.324 4.91586C100.855 4.91586 100.463 4.52972 100.463 4.05447C100.463 3.59408 100.855 3.20794 101.324 3.20794Z" fill="var(--fill-0, white)"/>
<path d="M89.8479 14.0198L89.8479 14.198L87.022 14.198L87.022 14.0198C87.8985 14.0198 88.0496 12.9951 88.0496 11.4208L88.0496 3.23764L88.3518 3.23764L94.6684 12.8168L94.6684 6.01487C94.6684 4.58913 94.4267 3.56437 93.4746 3.56437L93.4746 3.38616L96.4214 3.38616L96.4214 3.56437C95.5147 3.56437 95.1822 4.58913 95.1822 6.01487L95.1822 12.4307C95.1822 13.4555 95.6658 13.901 96.4214 14.0198L96.4214 14.198L94.0035 14.198L88.5634 5.86635L88.5634 11.4208C88.5634 12.9951 88.8505 14.0198 89.8479 14.0198Z" fill="var(--fill-0, white)"/>
<path d="M80.4014 4.26239L80.1898 4.06932C80.4316 3.72774 80.9303 3.20794 81.6103 3.20794C82.3205 3.20794 82.517 3.8317 82.5472 4.36635C83.1819 3.63863 84.1188 3.20794 84.9499 3.20794C85.9775 3.20794 86.7029 3.8317 86.7029 4.79705C86.7029 5.91091 85.8869 6.74259 84.0432 7.26239L82.6077 7.66338L82.6077 8.74754C82.6077 9.17823 82.6077 10.6188 84.0886 10.6188C85.0708 10.6188 85.766 9.98021 86.2042 9.14853L86.5064 9.26734C86.2646 10.0693 85.3277 11.3465 83.5748 11.3465C82.109 11.3465 81.3987 10.3515 81.3987 8.95546L81.3987 5.00497C81.3987 4.51487 81.3987 3.99507 80.9303 3.99507C80.7036 3.99507 80.5223 4.14358 80.4014 4.26239ZM84.2699 3.95051C83.6503 3.95051 83.0157 4.33665 82.6077 4.69308L82.6077 7.26239L83.6806 6.92081C84.7082 6.60892 85.4788 6.22279 85.4788 5.16833C85.4788 4.36635 84.9651 3.95051 84.2699 3.95051Z" fill="var(--fill-0, white)"/>
<path d="M77.342 3.20794C78.1127 3.20794 78.974 3.40101 79.518 3.68318L79.6389 5.52477L79.4576 5.52477C78.8985 4.20299 78.2638 3.59408 77.1909 3.59408C76.2691 3.59408 75.5437 4.06932 75.5437 4.94556C75.5437 5.8218 76.1633 6.17823 77.206 6.72774L77.7802 7.02476C78.5811 7.45546 79.4274 7.94556 79.4274 9.17823C79.4274 10.5297 78.3696 11.3465 76.934 11.3465C76.3295 11.3465 75.4984 11.2129 74.9241 10.901L74.9241 9.38615L75.1055 9.38615C75.4833 10.4852 76.1482 10.9604 77.0397 10.9604C77.886 10.9604 78.4451 10.4555 78.4451 9.71288C78.4451 8.80694 77.6744 8.40595 77.1758 8.15348L76.6166 7.85645C75.5286 7.29209 74.5615 6.8317 74.5615 5.52477C74.5615 4.11388 75.6797 3.20794 77.342 3.20794Z" fill="var(--fill-0, white)"/>
<path d="M66.9301 15L66.9301 5.24259C66.9301 4.29209 66.6884 3.93566 66.1594 3.78714L66.1594 3.60893L67.7764 3.20794L67.8973 3.20794L68.1088 4.48516C68.7284 3.74259 69.5595 3.20794 70.6022 3.20794C72.3854 3.20794 73.6245 4.85645 73.6245 7.12872C73.6245 9.72773 71.9623 11.3465 69.9524 11.3465C69.2573 11.3465 68.6528 11.1535 68.1542 10.8564L68.1542 13.0099C68.1542 13.9604 68.4111 14.2723 68.9249 14.4059L68.9249 14.5842L67.051 15L66.9301 15ZM70.0129 3.93566C69.2422 3.93566 68.6226 4.36635 68.1542 4.901L68.1542 8.85149C68.1542 10.1733 68.8342 10.9604 69.9676 10.9604C71.5543 10.9604 72.3098 9.41585 72.3099 7.48516C72.3099 5.56932 71.5392 3.93566 70.0129 3.93566Z" fill="var(--fill-0, white)"/>
<path d="M59.1885 4.26239L58.977 4.06932C59.2188 3.72774 59.7174 3.20794 60.3975 3.20794C61.1077 3.20794 61.3041 3.8317 61.3344 4.36635C61.9691 3.63863 62.906 3.20794 63.7371 3.20794C64.7647 3.20794 65.4901 3.8317 65.4901 4.79704C65.4901 5.9109 64.674 6.74259 62.8304 7.26239L61.3948 7.66338L61.3948 8.74753C61.3948 9.17823 61.3948 10.6188 62.8758 10.6188C63.858 10.6188 64.5531 9.98021 64.9914 9.14852L65.2936 9.26734C65.0518 10.0693 64.1149 11.3465 62.362 11.3465C60.8961 11.3465 60.1859 10.3515 60.1859 8.95545L60.1859 5.00496C60.1859 4.51487 60.1859 3.99506 59.7174 3.99506C59.4908 3.99506 59.3094 4.14358 59.1885 4.26239ZM63.0571 3.95051C62.4375 3.95051 61.8028 4.33665 61.3948 4.69308L61.3948 7.26239L62.4677 6.9208C63.4953 6.60892 64.266 6.22278 64.266 5.16833C64.266 4.36635 63.7522 3.95051 63.0571 3.95051Z" fill="var(--fill-0, white)"/>
<path d="M51.7454 11.2574L51.7454 1.63368C51.7454 0.683186 51.7 0.178236 51.0805 0.178236L51.0805 1.71079e-05L53.6343 1.82251e-05L53.6343 0.178236C53.0148 0.178236 52.9694 0.683186 52.9694 1.63368L52.9694 4.42576C53.5739 3.72774 54.3899 3.20794 55.4175 3.20794C57.2007 3.20794 58.4398 4.85645 58.4398 7.12872C58.4398 9.72773 56.7775 11.3465 54.7677 11.3465C53.8157 11.3465 52.9996 10.9753 52.4405 10.4555L52.0476 11.2574L51.7454 11.2574ZM54.8281 3.93566C54.0574 3.93566 53.4379 4.36635 52.9694 4.901L52.9694 8.85149C52.9694 10.1733 53.6494 10.9604 54.7828 10.9604C56.3695 10.9604 57.1251 9.41585 57.1251 7.48516C57.1251 5.56932 56.3544 3.93566 54.8281 3.93566Z" fill="var(--fill-0, white)"/>
<path d="M39.965 3.38615L46.9314 3.38615L46.9314 3.56437C45.9038 3.56437 45.8434 4.23269 45.8434 5.3317L45.8434 12.2525C45.8434 13.3515 45.9038 14.0198 46.9314 14.0198L46.9314 14.198L43.4255 14.198L43.4255 14.0198C44.4531 14.0198 44.5136 13.3515 44.5136 12.2525L44.5136 4.50001C44.5136 4.03962 44.3776 3.80199 43.9242 3.80199L42.8664 3.80199C41.2344 3.80199 40.7055 4.12873 39.7685 6.01486L39.5872 6.01486L39.965 3.38615Z" fill="var(--fill-0, white)"/>
<path d="M37.7039 12.5792C38.1875 12.5792 38.5653 12.9505 38.5653 13.4109C38.5653 13.8713 38.1875 14.2426 37.7039 14.2426C37.2355 14.2426 36.8577 13.8713 36.8577 13.4109C36.8577 12.9505 37.2355 12.5792 37.7039 12.5792ZM36.2683 3.38615L38.8222 3.38615L38.8222 3.56437C38.2026 3.56437 38.1573 4.06932 38.1573 5.01981L38.1573 9.20793C38.1573 10.1584 38.4142 10.4703 38.9279 10.604L38.9279 10.7822L37.0541 11.3168L36.9332 11.3168L36.9332 5.01981C36.9332 4.06932 36.8879 3.56437 36.2683 3.56437L36.2683 3.38615Z" fill="var(--fill-0, white)"/>
<path d="M33.0793 3.20793C33.85 3.20793 34.7114 3.401 35.2554 3.68318L35.3763 5.52476L35.1949 5.52476C34.6358 4.20298 34.0011 3.59407 32.9282 3.59407C32.0064 3.59407 31.281 4.06932 31.281 4.94556C31.281 5.82179 31.9006 6.17823 32.9433 6.72773L33.5175 7.02476C34.3185 7.45545 35.1647 7.94555 35.1647 9.17822C35.1647 10.5297 34.1069 11.3465 32.6713 11.3465C32.0668 11.3465 31.2357 11.2129 30.6615 10.901L30.6615 9.38614L30.8428 9.38614C31.2206 10.4852 31.8855 10.9604 32.7771 10.9604C33.6233 10.9604 34.1825 10.4555 34.1825 9.71288C34.1825 8.80694 33.4118 8.40595 32.9131 8.15347L32.354 7.85644C31.2659 7.29209 30.2988 6.83169 30.2988 5.52476C30.2988 4.11387 31.417 3.20793 33.0793 3.20793Z" fill="var(--fill-0, white)"/>
<path d="M24.7982 4.64853L24.5715 4.4109C25.2666 3.66833 26.1733 3.20793 26.9591 3.20793C28.0774 3.20793 28.7272 3.81684 28.7272 5.07922L28.7272 10.5594L29.513 10.5594L29.513 10.9158L29.3014 11.005C28.561 11.3317 28.1227 11.9257 27.6845 13.1139L27.5031 13.1139L27.5031 11.1683L24.6773 11.1683L24.8888 10.5594L27.5031 10.5594L27.5031 5.28714C27.5031 4.4109 27.0951 3.95051 26.3093 3.95051C25.7049 3.95051 25.176 4.32179 24.7982 4.64853Z" fill="var(--fill-0, white)"/>
<path d="M18.3672 5.25744L18.0951 5.09407C18.6241 4.26239 19.5459 3.20793 21.1477 3.20793C23.1575 3.20793 24.3816 4.94556 24.3816 7.14357C24.3816 9.60892 22.7646 11.3465 20.8001 11.3465C19.1681 11.3465 17.9894 10.1881 18.1103 8.22773L23.0668 8.22773C23.082 8.04951 23.0971 7.87129 23.0971 7.67823C23.0971 5.61387 22.2508 4.02476 20.5734 4.02476C19.5459 4.02476 18.8507 4.66338 18.3672 5.25744ZM20.8606 10.9604C22.0242 10.9604 22.7646 9.9802 23.0064 8.67327L19.4099 8.67327C19.3041 10.1436 19.7574 10.9604 20.8606 10.9604Z" fill="var(--fill-0, white)"/>
<path d="M10.4932 15L10.4932 5.24258C10.4932 4.29209 10.2514 3.93565 9.72253 3.78714L9.72253 3.60892L11.3395 3.20793L11.4603 3.20793L11.6719 4.48516C12.2915 3.74258 13.1226 3.20793 14.1653 3.20793C15.9485 3.20793 17.1876 4.85645 17.1876 7.12872C17.1876 9.72773 15.5254 11.3465 13.5155 11.3465C12.8204 11.3465 12.2159 11.1535 11.7172 10.8564L11.7172 13.0099C11.7172 13.9604 11.9741 14.2723 12.4879 14.4059L12.4879 14.5842L10.6141 15L10.4932 15ZM13.576 3.93565C12.8053 3.93565 12.1857 4.36635 11.7172 4.901L11.7172 8.85149C11.7172 10.1733 12.3973 10.9604 13.5306 10.9604C15.1173 10.9604 15.8729 9.41585 15.8729 7.48516C15.8729 5.56932 15.1022 3.93565 13.576 3.93565Z" fill="var(--fill-0, white)"/>
<path d="M7.99533 3.20793C8.4789 3.20793 8.87179 3.59407 8.87179 4.05447C8.87179 4.52971 8.4789 4.91585 7.99533 4.91585C7.52688 4.91585 7.13398 4.52971 7.13398 4.05447C7.13398 3.59407 7.52688 3.20793 7.99533 3.20793Z" fill="var(--fill-0, white)"/>
</g>
</g>
</svg>
