<svg preserveAspectRatio="none" width="100%" height="100%" overflow="visible" style="display: block;" viewBox="0 0 20 20" fill="none" xmlns="http://www.w3.org/2000/svg">
<g id="Instagram" clip-path="url(#clip0_0_726)">
<path id="Vector" d="M14.6877 3.55469H5.31272C4.34348 3.55469 3.5549 4.34326 3.5549 5.3125V14.6875C3.5549 15.6567 4.34348 16.4453 5.31272 16.4453H14.6877C15.657 16.4453 16.4455 15.6567 16.4455 14.6875V5.3125C16.4455 4.34326 15.657 3.55469 14.6877 3.55469ZM10.0002 14.1016C7.73886 14.1016 5.89865 12.2614 5.89865 10C5.89865 7.73865 7.73886 5.89844 10.0002 5.89844C12.2616 5.89844 14.1018 7.73865 14.1018 10C14.1018 12.2614 12.2616 14.1016 10.0002 14.1016ZM14.1018 7.07031C13.4557 7.07031 12.9299 6.54449 12.9299 5.89844C12.9299 5.25238 13.4557 4.72656 14.1018 4.72656C14.7478 4.72656 15.2737 5.25238 15.2737 5.89844C15.2737 6.54449 14.7478 7.07031 14.1018 7.07031Z" fill="var(--fill-0, #B0E9FD)"/>
<path id="Vector_2" d="M10 7.07129C8.3847 7.07129 7.07031 8.38568 7.07031 10.001C7.07031 11.6163 8.3847 12.9307 10 12.9307C11.6153 12.9307 12.9297 11.6163 12.9297 10.001C12.9297 8.38568 11.6153 7.07129 10 7.07129Z" fill="var(--fill-0, #B0E9FD)"/>
<path id="Vector_3" d="M17.0312 0.000976562H10H2.96875C1.35345 0.000976562 0 1.35443 0 2.96973V17.0322C0 18.6475 1.35345 20.001 2.96875 20.001H17.0312C18.6465 20.001 20 18.6475 20 17.0322V2.96973C20 1.35443 18.6465 0.000976562 17.0312 0.000976562ZM17.6172 14.6885C17.6172 16.3038 16.3028 17.6182 14.6875 17.6182H5.3125C3.6972 17.6182 2.38281 16.3038 2.38281 14.6885V5.31348C2.38281 3.69818 3.6972 2.38379 5.3125 2.38379H14.6875C16.3028 2.38379 17.6172 3.69818 17.6172 5.31348V14.6885Z" fill="var(--fill-0, #B0E9FD)"/>
</g>
<defs>
<clipPath id="clip0_0_726">
<rect width="20" height="20" fill="white"/>
</clipPath>
</defs>
</svg>
