<svg preserveAspectRatio="none" width="100%" height="100%" overflow="visible" style="display: block;" viewBox="0 0 20 20" fill="none" xmlns="http://www.w3.org/2000/svg">
<path id="Youtube" d="M17 0C18.6569 0 20 1.34315 20 3V17C20 18.6569 18.6569 20 17 20H3C1.34315 20 6.44266e-08 18.6569 0 17V3C0 1.34315 1.34315 6.44255e-08 3 0H17ZM10.0029 5.1748C8.27307 5.17406 6.53499 5.17539 4.81836 5.36719C4.09413 5.44811 3.49114 5.99063 3.32227 6.72754C3.08092 7.7757 3.07813 8.92041 3.07812 10C3.07812 11.0796 3.07777 12.2252 3.31934 13.2734C3.48823 14.0096 4.09128 14.5529 4.81641 14.6338C6.53301 14.8251 8.27097 14.8265 10.001 14.8252C11.7317 14.8265 13.4695 14.8251 15.1855 14.6338C15.9103 14.5527 16.5129 14.0095 16.6826 13.2734C16.924 12.2252 16.9238 11.0796 16.9238 10C16.9238 8.92041 16.9261 7.7757 16.6846 6.72754C16.5149 5.99068 15.9126 5.44812 15.1875 5.36719C13.4709 5.17536 11.7328 5.1741 10.0029 5.1748ZM12.6162 9.86621C11.1438 10.6296 9.68585 11.3866 8.21484 12.1494V7.57031C9.68172 8.33579 11.1395 9.09572 12.6162 9.86621Z" fill="var(--fill-0, #B0E9FD)"/>
</svg>
