<svg preserveAspectRatio="none" width="100%" height="100%" overflow="visible" style="display: block;" viewBox="0 0 20 20" fill="none" xmlns="http://www.w3.org/2000/svg">
<path id="Linkedin" d="M17 0C18.6569 0 20 1.34315 20 3V17C20 18.6569 18.6569 20 17 20H3C1.34315 20 6.44266e-08 18.6569 0 17V3C0 1.34315 1.34315 6.44255e-08 3 0H17ZM4.72656 7.65723V15.8604H7.07031V7.65723H4.72656ZM8.24219 7.65723V15.8604H10.5859V11.1729C10.5859 10.5268 11.1118 10.001 11.7578 10.001C12.4039 10.001 12.9297 10.5268 12.9297 11.1729V15.8604H15.2734V10.7705C15.2734 9.08533 13.9333 7.65891 12.3438 7.65723C11.5989 7.65723 11.1999 7.90775 10.5859 8.09863V7.65723H8.24219ZM4.72656 4.1416V6.48535H7.07031V4.1416H4.72656Z" fill="var(--fill-0, #B0E9FD)"/>
</svg>
