<svg preserveAspectRatio="none" width="100%" height="100%" overflow="visible" style="display: block;" viewBox="0 0 20 20" fill="none" xmlns="http://www.w3.org/2000/svg">
<path id="X - Twitter" d="M17 0C18.6569 0 20 1.34315 20 3V17C20 18.6569 18.6569 20 17 20H3C1.34315 20 6.44266e-08 18.6569 0 17V3C0 1.34315 1.34315 6.44255e-08 3 0H17ZM3.5 3.5C4.02467 4.23271 4.54677 5.00147 5.06348 5.74219L8.54883 10.7383C8.44081 10.8791 8.27865 11.0534 8.15918 11.1895L7.49023 11.9541L5.25195 14.5166L4.00391 15.9443C3.92965 16.0292 3.57788 16.45 3.51953 16.5H4.68457C5.00999 16.1428 5.33739 15.7579 5.65625 15.3926L7.35156 13.4512L8.47461 12.167C8.65089 11.9653 8.90201 11.6949 9.05859 11.4922C9.14788 11.5795 9.33953 11.8682 9.41895 11.9824L10.0518 12.8936L12.5693 16.5H16.5L12.9629 11.4287L11.8682 9.85938C11.7056 9.62672 11.4019 9.21651 11.2715 8.98145C11.308 8.91464 11.5691 8.62244 11.6367 8.54492L12.4375 7.62891L14.7598 4.9707C15.1799 4.48998 15.6322 3.98874 16.0391 3.5H14.8779C14.562 3.84308 14.2388 4.22953 13.9297 4.58301L11.999 6.79395L11.1865 7.72266C11.0881 7.83474 10.8206 8.12487 10.7539 8.24023C10.6805 8.16635 10.5018 7.90103 10.4346 7.80469L9.83789 6.94727L8.19043 4.58887C7.93919 4.22946 7.68791 3.85403 7.43164 3.5H3.5ZM6.78223 4.2373C6.94967 4.44179 7.21979 4.85047 7.38086 5.07812L8.53613 6.70508L12.2324 11.9131L14.2188 14.7109L14.7227 15.4199C14.7794 15.4997 14.9566 15.7373 14.9883 15.8174C14.5931 15.7986 14.1709 15.819 13.7734 15.8125C13.5834 15.8094 13.3989 15.8197 13.208 15.8008C12.4876 14.8202 11.7601 13.7649 11.0547 12.7695L7.31934 7.50684L5.6748 5.19043L5.20117 4.52344C5.15659 4.45979 5.02811 4.28174 5.00098 4.22363C5.05863 4.2204 5.14212 4.22282 5.20117 4.22461C5.71913 4.24024 6.26727 4.20023 6.78223 4.2373Z" fill="var(--fill-0, #B0E9FD)"/>
</svg>
