<svg width="18" height="18" viewBox="0 0 18 18" fill="none" xmlns="http://www.w3.org/2000/svg" ><g clip-path="url(#clip0_48_2895)"><path d="M13.2188 3.19922H4.78125C3.90894 3.19922 3.19922 3.90894 3.19922 4.78125V13.2188C3.19922 14.0911 3.90894 14.8008 4.78125 14.8008H13.2188C14.0911 14.8008 14.8008 14.0911 14.8008 13.2188V4.78125C14.8008 3.90894 14.0911 3.19922 13.2188 3.19922ZM9 12.6914C6.96478 12.6914 5.30859 11.0352 5.30859 9C5.30859 6.96478 6.96478 5.30859 9 5.30859C11.0352 5.30859 12.6914 6.96478 12.6914 9C12.6914 11.0352 11.0352 12.6914 9 12.6914ZM12.6914 6.36328C12.11 6.36328 11.6367 5.89005 11.6367 5.30859C11.6367 4.72714 12.11 4.25391 12.6914 4.25391C13.2729 4.25391 13.7461 4.72714 13.7461 5.30859C13.7461 5.89005 13.2729 6.36328 12.6914 6.36328Z" fill="#B0E9FD"></path><path d="M9 6.36377C7.54623 6.36377 6.36328 7.54672 6.36328 9.00049C6.36328 10.4543 7.54623 11.6372 9 11.6372C10.4538 11.6372 11.6367 10.4543 11.6367 9.00049C11.6367 7.54672 10.4538 6.36377 9 6.36377Z" fill="#B0E9FD"></path><path d="M15.3281 0.000488281H2.67188C1.21811 0.000488281 0 1.2186 0 2.67236V15.3286C0 16.7824 1.21811 18.0005 2.67188 18.0005H15.3281C16.7819 18.0005 18 16.7824 18 15.3286V2.67236C18 1.2186 16.7819 0.000488281 15.3281 0.000488281ZM15.8555 13.2192C15.8555 14.673 14.6725 15.856 13.2188 15.856H4.78125C3.32748 15.856 2.14453 14.673 2.14453 13.2192V4.78174C2.14453 3.32797 3.32748 2.14502 4.78125 2.14502H13.2188C14.6725 2.14502 15.8555 3.32797 15.8555 4.78174V13.2192Z" fill="#B0E9FD"></path></g><defs><clipPath id="clip0_48_2895"><rect width="18" height="18" fill="#060B35"></rect></clipPath></defs></svg>