<svg width="18" height="18" viewBox="0 0 18 18" fill="none" xmlns="http://www.w3.org/2000/svg" ><g clip-path="url(#clip0_48_2893)"><path d="M15.3633 0.000488281H2.63672C1.18295 0.000488281 0 1.18344 0 2.63721V15.3638C0 16.8175 1.18295 18.0005 2.63672 18.0005H15.3633C16.817 18.0005 18 16.8175 18 15.3638V2.63721C18 1.18344 16.817 0.000488281 15.3633 0.000488281ZM6.36328 14.2739H4.25391V6.89111H6.36328V14.2739ZM6.36328 5.83643H4.25391V3.72705H6.36328V5.83643ZM13.7461 14.2739H11.6367V10.0552C11.6367 9.47372 11.1635 9.00049 10.582 9.00049C10.0006 9.00049 9.52734 9.47372 9.52734 10.0552V14.2739H7.41797V6.89111H9.52734V7.28868C10.08 7.11688 10.4389 6.89111 11.1094 6.89111C12.5399 6.89262 13.7461 8.17596 13.7461 9.69263V14.2739Z" fill="#B0E9FD"></path></g><defs><clipPath id="clip0_48_2893"><rect width="18" height="18" fill="#060B35"></rect></clipPath></defs></svg>