<svg width="18" height="18" viewBox="0 0 20 20" fill="none" xmlns="http://www.w3.org/2000/svg" ><rect width="20" height="20" rx="3" fill="#B0E9FD"></rect><path d="M8.70211 4.00375C8.79679 3.99322 8.92537 4.0078 9.02349 4.01182C11.0008 4.09288 12.3076 5.64594 12.877 7.31779C13.0062 7.19764 13.2788 6.75365 13.3851 6.58398C13.7337 6.02253 14.0743 5.45644 14.4066 4.88589C14.459 4.79589 14.7272 4.31553 14.774 4.28796C14.8513 4.24241 15.6759 4.2719 15.8073 4.27385C15.7492 4.43164 15.6408 4.64552 15.5675 4.80206C15.4367 5.08134 15.3098 5.36232 15.1868 5.6449C14.4002 7.47261 13.3812 10.0938 13.9001 12.066C14.052 12.6647 14.4977 13.4511 15.0546 13.7506C16.1367 14.3324 16.2927 12.8666 16.4037 12.2115C16.4091 12.1795 16.815 12.005 16.858 12.0356C16.8812 12.0984 16.9543 12.5474 16.9628 12.6268C17.0349 13.3015 17.0437 13.991 16.5953 14.5525C16.2728 14.9139 15.941 15.0033 15.4681 14.9999C15.0776 14.9971 14.8307 14.9852 14.4946 14.7572C13.9336 14.3766 13.5898 13.7698 13.3318 13.1735C13.2708 13.0293 13.1686 12.767 13.137 12.6209C11.7571 14.3224 9.87899 15.3139 7.642 14.7599C6.96685 14.5926 6.35469 14.3545 5.80773 13.9252C5.70339 13.8432 5.60815 13.7542 5.51089 13.665C3.48208 11.7452 3.58283 7.81235 5.29694 5.75246C6.05329 4.84174 7.13295 4.23201 8.3284 4.04047C8.44703 4.0212 8.57914 4.01693 8.70211 4.00375ZM9.19016 13.9812C9.28364 13.9786 9.37587 13.9615 9.46776 13.9489C11.2766 13.7011 11.8916 12.1742 12.0638 10.626C12.2613 8.85213 12.0041 6.87661 10.6082 5.57143C10.1422 5.14183 9.50436 4.87827 8.85388 4.91138L8.83632 4.91235C8.20862 4.91509 7.54377 5.18652 7.10906 5.62326C6.0943 6.64273 5.90663 8.25212 5.90716 9.59409C5.90783 11.3212 6.82186 14.0069 9.00809 13.985C9.06878 13.9842 9.12948 13.983 9.19016 13.9812Z" fill="#060B35"></path></svg>