<svg width="18" height="18" viewBox="0 0 20 20" fill="none" xmlns="http://www.w3.org/2000/svg" ><rect width="20" height="20" rx="3" fill="#B0E9FD"></rect><path d="M7.31911 14.3396C7.12715 14.35 6.87599 14.3428 6.67962 14.3429L5.49364 14.3428L4.46554 14.3433C4.16526 14.3436 3.82912 14.3695 3.54326 14.2713C3.08908 14.1153 2.93189 13.6737 3.02626 13.236C3.05347 13.1098 3.09769 12.9859 3.13741 12.8622L3.31675 12.3096L3.84907 10.6909L4.88079 7.54487L5.21461 6.52661C5.2836 6.31451 5.35074 6.10077 5.42583 5.89093C5.56647 5.5052 5.88248 5.22545 6.26231 5.08423C6.55628 4.97494 6.80959 5.0031 7.11715 5.00364L8.01161 5.00435L10.8392 5.00445L14.3274 5.00436L15.4816 5.00381C15.7568 5.00369 16.0818 4.98656 16.3506 5.03334C16.5886 5.07476 16.8386 5.28554 16.931 5.50356C16.958 5.56733 16.9683 5.64501 17 5.71196V5.99508C16.9855 6.02398 16.9296 6.23686 16.9143 6.28805C16.8524 6.49156 16.7876 6.69417 16.7198 6.89583L15.2299 11.4313C15.0855 11.8814 14.9384 12.3305 14.7884 12.7788C14.7081 13.0253 14.6287 13.298 14.5283 13.5375C14.3872 13.8742 13.9672 14.2078 13.6144 14.2953C13.3187 14.3687 12.8998 14.3432 12.589 14.343L11.3391 14.3438C11.1735 14.3438 10.9803 14.3213 10.819 14.3497C10.7125 14.3684 10.0946 14.7784 9.96145 14.8605L7.70027 16.2539L6.86817 16.7678C6.76437 16.8313 6.65901 16.8937 6.55474 16.9564C6.51903 16.9779 6.50497 17.0049 6.45854 16.9992C6.44573 16.9541 6.6051 16.4971 6.62961 16.4224L6.95877 15.4248L7.18214 14.7419C7.22257 14.6181 7.27083 14.457 7.31911 14.3396ZM5.3969 12.4061L6.4149 12.4067C6.58897 12.4069 6.8438 12.4142 7.011 12.3995C6.96704 12.4918 6.84427 12.6454 6.77831 12.7325C6.64106 12.9135 6.50267 13.0937 6.36314 13.273H6.73676L7.36747 13.2733L7.9997 13.2778C8.15006 13.086 8.28983 12.8736 8.44155 12.6812C8.50291 12.6034 8.59819 12.4677 8.67291 12.4053C9.64724 12.4439 10.6277 12.5591 11.3972 11.8245C11.9492 11.2977 12.1748 10.3031 11.6272 9.68821C11.2598 9.27561 10.623 9.12267 10.1492 8.8806C10.082 8.84743 10.0241 8.79128 10.0241 8.71499C10.0241 8.54334 10.0707 8.43677 10.2615 8.42888C10.5581 8.41659 10.8559 8.4206 11.1529 8.41842L12.9644 8.40145C13.049 8.40032 13.3429 8.42146 13.4015 8.39911C13.4363 8.38585 14.4739 6.98873 14.611 6.82811L13.4633 6.83127C13.3005 6.83089 13.0458 6.83486 12.8893 6.82359C13.0631 6.57676 13.3462 6.17682 13.5439 5.95714C13.5439 5.95714 12.4131 5.96857 11.9145 5.97584C11.8779 6.00672 11.6901 6.23686 11.6901 6.23686L11.4118 6.60841C11.3626 6.67357 11.3136 6.74609 11.2523 6.79959C11.2285 6.82036 11.1684 6.83041 11.1377 6.83048C10.1461 6.8326 9.25878 6.70017 8.50416 7.50829C7.95474 8.09668 7.82007 9.07243 8.46647 9.65509C8.8766 10.0122 9.40227 10.1265 9.8695 10.372C9.92126 10.3992 9.97201 10.4922 9.97071 10.5498C9.97067 10.7343 9.85288 10.8195 9.68098 10.8272C9.37169 10.8411 9.06515 10.8343 8.75744 10.8332L7.15615 10.8338C6.98188 10.8339 6.76989 10.8267 6.59735 10.8426C6.57999 10.8442 6.55644 10.8703 6.54622 10.8844C6.36022 11.141 6.14801 11.4001 5.96394 11.6553C5.79385 11.8912 5.55226 12.172 5.3969 12.4061Z" fill="#060B35"></path></svg>