<svg width="18" height="18" viewBox="0 0 18 18" fill="none" xmlns="http://www.w3.org/2000/svg" ><g clip-path="url(#clip0_48_2901)"><path fill-rule="evenodd" clip-rule="evenodd" d="M0 0V18H18V0H0ZM15.0129 11.9457C14.8602 12.6083 14.3181 13.0976 13.6656 13.1705C12.121 13.3427 10.5571 13.3439 8.99937 13.3427C7.44223 13.3439 5.87837 13.3427 4.33329 13.1705C3.68062 13.0977 3.13861 12.6083 2.98666 11.9457C2.76923 11.0023 2.76923 9.97164 2.76923 8.99996C2.76923 8.02828 2.7718 6.99808 2.98903 6.05469C3.14098 5.39142 3.6832 4.90276 4.33503 4.82993C5.88026 4.65725 7.4448 4.65658 9.00194 4.65725C10.5589 4.65662 12.1229 4.65725 13.668 4.82993C14.3207 4.90276 14.8627 5.39142 15.0153 6.05469C15.2327 6.99808 15.2308 8.02828 15.2308 8.99996C15.2308 9.97164 15.2301 11.0023 15.0129 11.9457Z" fill="#B0E9FD"></path><path fill-rule="evenodd" clip-rule="evenodd" d="M7.39258 10.9344C8.71655 10.2479 10.0288 9.56704 11.3541 8.88C10.025 8.1865 8.71287 7.50246 7.39258 6.81348V10.9344Z" fill="#B0E9FD"></path></g><defs><clipPath id="clip0_48_2901"><rect width="18" height="18" rx="3.75" fill="#060B35"></rect></clipPath></defs></svg>